<svg id="Layer_11" data-name="Layer 11" xmlns="http://www.w3.org/2000/svg" viewBox="0 0 500 500"><defs><style>.cls-1{fill:#2e7d32;}.cls-2{fill:#393;}.cls-3{fill:#9f9;}.cls-4{fill:#6ee56e;}.cls-5{fill:#ff6f00;}.cls-6{fill:#ffb74d;}.cls-7{fill:#ff9800;}.cls-8{fill:#ef6c00;}.cls-9{fill:#ffeb3b;}.cls-10{fill:#fdd835;}</style></defs><g id="Layer_9" data-name="Layer 9"><polygon class="cls-1" points="335.36 243.27 197.78 294.67 328.01 385.46 335.36 243.27"/><polygon class="cls-2" points="198.07 294.75 201.74 498.24 276.52 349.91 198.07 294.75"/><polygon class="cls-3" points="108.58 365.85 27.67 250.62 53.42 413.66 108.58 365.85"/><polygon class="cls-4" points="108.58 365.85 201.74 498.24 200.52 293.52 108.58 365.85"/></g><g id="Layer_10" data-name="Layer 10"><polygon class="cls-5" points="27.67 250.62 200.52 293.52 188.26 108.42 27.67 250.62"/><polygon class="cls-6" points="200.52 293.52 495.95 314.37 347.62 156.23 200.52 293.52"/><polygon class="cls-7" points="188.26 108.42 200.52 293.52 347.62 156.23 188.26 108.42"/><polygon class="cls-8" points="201.74 498.24 276.52 349.91 328.01 385.46 201.74 498.24"/></g><g id="Layer_5" data-name="Layer 5"><polygon class="cls-9" points="41.16 18.94 27.67 249.4 198.07 294.75 41.16 18.94"/><polygon class="cls-10" points="236.07 123.13 347.62 156.23 347.62 3 236.07 123.13"/><polygon class="cls-9" points="107.35 365.85 53.42 413.66 201.74 498.24 107.35 365.85"/><polygon class="cls-10" points="107.35 365.85 198.07 294.75 27.61 249.79 107.35 365.85"/></g></svg>