<svg xmlns="http://www.w3.org/2000/svg" viewBox="0 0 500 500"><defs><style>.cls-1{fill:#ffb74d;}.cls-2{fill:#ef6c00;}.cls-3{fill:#fc9;}.cls-4{fill:#ff9800;}.cls-5{fill:#9f9;}.cls-6{fill:#393;}.cls-7{fill:#6ee56e;}.cls-8{fill:#ffeb3b;}.cls-9{fill:#fc0;}.cls-10{fill:#fdd835;}</style></defs><g id="Layer_6_copy" data-name="Layer 6 copy"><polygon class="cls-1" points="498.44 21.96 281.31 99.99 441.19 140.16 498.44 21.96"/><polygon class="cls-2" points="441.19 140.16 281.31 99.99 404.33 300.83 441.19 140.16"/><polygon class="cls-3" points="244.61 260.92 404.49 301.09 281.48 100.25 244.61 260.92"/><polygon class="cls-4" points="192.92 395.09 404.69 300.97 244.81 260.8 192.92 395.09"/><polygon class="cls-5" points="1 12.08 83.61 227.5 120.38 66.81 1 12.08"/><polygon class="cls-6" points="120.38 66.81 83.61 227.5 281.8 100.27 120.38 66.81"/><polygon class="cls-5" points="245.28 260.8 282.06 100.1 83.86 227.34 245.28 260.8"/><polygon class="cls-7" points="244.61 260.92 404.49 301.09 281.48 100.25 244.61 260.92"/></g><g id="Layer_5" data-name="Layer 5"><polygon class="cls-8" points="154.71 358 42.62 305.34 185.46 486.99 154.71 358"/><polygon class="cls-9" points="154.71 358 186.12 486.99 245.4 260.04 154.71 358"/><polygon class="cls-8" points="330.79 400.37 245.4 260.04 186.15 486.06 330.79 400.37"/><polygon class="cls-10" points="330.74 401.08 404.01 300.96 244.95 260.32 330.74 401.08"/></g></svg>