<svg xmlns="http://www.w3.org/2000/svg" viewBox="0 0 500 500"><defs><style>.cls-1{fill:#ffb74d;}.cls-2{fill:#ef6c00;}.cls-3{fill:#ff9800;}.cls-4{fill:#ffeb3b;}.cls-5{fill:#fc0;}.cls-6{fill:#fdd835;}.cls-7{fill:#6ee56e;}.cls-8{fill:#9f9;}.cls-9{fill:#393;}</style></defs><g id="Layer_6_copy" data-name="Layer 6 copy"><polygon class="cls-1" points="270.29 295.89 149 187 135.24 365.41 270.29 295.89"/><polygon class="cls-2" points="3.3 277.18 135.24 365.41 149 187 3.3 277.18"/><polygon class="cls-3" points="101 481 135.24 365.41 3.3 277.18 101 481"/></g><g id="Layer_5" data-name="Layer 5"><polygon class="cls-4" points="469.65 331.34 500 250 380.9 208.18 469.65 331.34"/><polygon class="cls-5" points="469.9 330.57 380.9 208.18 343.25 423.83 469.9 330.57"/><polygon class="cls-4" points="256.98 288.98 343.25 423.83 380.73 208.39 256.98 288.98"/><polygon class="cls-6" points="135.24 365.41 343.25 423.83 256.98 288.98 135.24 365.41"/></g><g id="Layer_6_copy_3" data-name="Layer 6 copy 3"><polygon class="cls-7" points="380.9 208.18 257.19 287.45 343.25 423.83 380.9 208.18"/><polygon class="cls-8" points="257.19 287.45 380.9 208.18 148.86 186.96 257.19 287.45"/><polygon class="cls-9" points="148.86 186.96 380.9 208.18 267.93 98.5 148.86 186.96"/><polygon class="cls-8" points="236.61 3.41 148.86 186.96 268.4 98.5 236.61 3.41"/></g></svg>