<svg id="Layer_1_copy_2" data-name="Layer 1 copy 2" xmlns="http://www.w3.org/2000/svg" viewBox="0 0 500 500"><defs><style>.cls-1{fill:#ff9800;}.cls-2{fill:#fc9;}.cls-3{fill:#9f9;}.cls-4{fill:#6c6;}.cls-5{fill:#393;}</style></defs><g id="Layer_3_copy" data-name="Layer 3 copy"><polygon class="cls-1" points="142.84 459.6 249.5 496.17 249.5 5.54 54.47 109.15 142.84 459.6"/><polygon class="cls-2" points="356.16 459.54 249.5 496.11 249.5 5.48 444.53 109.09 356.16 459.54"/></g><polygon class="cls-3" points="249.5 154.86 94.08 264.57 54.47 112.2 249.5 8.59 249.5 154.86"/><polygon class="cls-4" points="249.5 154.86 404.92 264.57 444.53 112.2 249.5 8.59 249.5 154.86"/><polygon class="cls-2" points="94.08 262.03 54.97 109.66 250 3 94.08 262.03"/><polygon class="cls-1" points="405.22 262.47 444.34 110.11 249.31 3.45 405.22 262.47"/><path class="cls-5" d="M136.61,220.34q0-21.17,13.59-42.87t39.64-36q26.06-14.24,60.79-14.25,32.3,0,57,11.92t38.19,32.4a79.48,79.48,0,0,1,13.47,44.54q0,18.93-7.68,33.18a101.72,101.72,0,0,1-18.26,24.61q-10.58,10.35-38,34.85a154.53,154.53,0,0,0-12.13,12.13,49.23,49.23,0,0,0-6.8,9.58,47.51,47.51,0,0,0-3.45,8.68q-1.23,4.35-3.67,15.26-4.24,23.16-26.5,23.16A27.09,27.09,0,0,1,223.35,370q-7.9-7.58-7.91-22.49,0-18.72,5.79-32.41a82.43,82.43,0,0,1,15.37-24,353.71,353.71,0,0,1,25.83-24.61Q276.68,254,283,247.62a63.64,63.64,0,0,0,10.69-14.14,34.17,34.17,0,0,0,4.34-16.93,39.36,39.36,0,0,0-13.25-30.06q-13.24-12.24-34.18-12.25-24.49,0-36.08,12.36T195,223q-7.58,25.17-28.73,25.16a28.23,28.23,0,0,1-21-8.79Q136.61,230.58,136.61,220.34ZM245.29,464.41a35,35,0,0,1-23.72-8.8q-10.14-8.79-10.13-24.6a31.72,31.72,0,0,1,9.79-23.61,33.13,33.13,0,0,1,24.06-9.58A32.72,32.72,0,0,1,278.47,431q0,15.58-10,24.49A33.84,33.84,0,0,1,245.29,464.41Z"/></svg>