<svg id="Layer_6" data-name="Layer 6" xmlns="http://www.w3.org/2000/svg" viewBox="0 0 500 500"><defs><style>.cls-1{fill:#ffb74d;}.cls-2{fill:#ef6c00;}.cls-3{fill:#fc9;}.cls-4{fill:#ff9800;}.cls-5{fill:#9f9;}.cls-6{fill:#393;}.cls-7{fill:#6ee56e;}</style></defs><polygon class="cls-1" points="498.29 206.79 251.6 205.81 397.56 304.63 498.29 206.79"/><polygon class="cls-2" points="397.56 304.63 251.6 205.81 301.77 452.59 397.56 304.63"/><polygon class="cls-3" points="155.88 354.1 301.84 452.91 251.67 206.13 155.88 354.1"/><polygon class="cls-4" points="54.89 470 302.09 452.86 156.13 354.04 54.89 470"/><polygon class="cls-5" points="2.09 15 6.33 261.65 102.03 113.64 2.09 15"/><polygon class="cls-6" points="102.03 113.64 6.33 261.65 251.99 206.27 102.03 113.64"/><polygon class="cls-5" points="156.61 354.21 252.31 206.2 6.65 261.58 156.61 354.21"/><polygon class="cls-7" points="155.88 354.1 301.84 452.91 251.67 206.13 155.88 354.1"/></svg>