<svg xmlns="http://www.w3.org/2000/svg" viewBox="0 0 500 500"><defs><style>.cls-1{fill:#9f9;}.cls-2{fill:#6ee56e;}.cls-3{fill:#393;}.cls-4{fill:#ff9800;}.cls-5{fill:#ef6c00;}.cls-6{fill:#ffb74d;}.cls-7{fill:#fc0;}.cls-8{fill:#ffeb3b;}.cls-9{fill:#fdd835;}</style></defs><g id="green"><polygon class="cls-1" points="55.5 91.06 106.13 351.9 313.96 47.53 55.5 91.06"/><polygon class="cls-2" points="206.07 205.4 106.13 351.9 337.81 290.57 206.07 205.4"/><polygon class="cls-3" points="286.71 367.8 337.81 290.57 106.71 352.05 286.71 367.8"/><polygon class="cls-2" points="286.71 367.8 246.96 497.27 435.49 371.21 286.71 367.8"/><polygon class="cls-2" points="251.56 1.24 196.99 66.84 316.24 46.4 251.56 1.24"/><polygon class="cls-3" points="83.41 236.06 74.33 187.22 34.58 288.3 83.41 236.06"/></g><g id="orange"><polygon class="cls-4" points="206.07 205.4 337.81 290.57 315.1 46.4 206.07 205.4"/><polygon class="cls-5" points="384.38 217.89 315.49 46.3 338.2 290.48 384.38 217.89"/><polygon class="cls-6" points="490 138.39 384.38 217.89 435.49 371.21 490 138.39"/><polygon class="cls-6" points="490 138.39 315.34 46.91 384.38 217.89 490 138.39"/></g><g id="yellow"><polygon class="cls-7" points="337.9 290.92 286.71 367.8 434.35 371.21 337.9 290.92"/><polygon class="cls-8" points="337.66 290.88 435.49 371.21 384.38 217.89 337.66 290.88"/><polygon class="cls-9" points="286.71 367.8 246.96 497.27 106.13 351.9 286.71 367.8"/><polygon class="cls-9" points="13 312.15 106.13 351.9 83.41 236.06 13 312.15"/><polygon class="cls-7" points="196.94 66.5 251.5 2.1 158.37 73.65 196.94 66.5"/></g></svg>