<svg id="Layer_1" data-name="Layer 1" xmlns="http://www.w3.org/2000/svg" viewBox="0 0 632.33 606.36"><defs><style>.cls-1{fill:#eed3be;}.cls-2{fill:#9e785f;}.cls-3{fill:#ddbea2;}.cls-4{fill:#ffead7;}.cls-5{fill:#900;}.cls-6{fill:#b5844e;}.cls-7,.cls-8{fill:#3a1502;}.cls-8{stroke:#3a1502;stroke-width:4px;}.cls-17,.cls-8{stroke-miterlimit:10;}.cls-9{fill:#ff8475;}.cls-10{fill:#a22329;}.cls-11{fill:#fad4c7;}.cls-12{fill:#d98f82;}.cls-13{fill:#debeab;}.cls-14{fill:#f93;}.cls-15{fill:#fc6;}.cls-16,.cls-17{fill:#84bcc7;}.cls-17{stroke:#3982b9;}.cls-18{fill:#3982b9;}</style></defs><path class="cls-1" d="M281.34,492.56l2.93,28.36,1.82,13L288,545.29l-15,13.09-31.27-1.46s-12.22-5.09-13-6.18-5.69-7.2-5.69-7.2l9.41-18.64a22.59,22.59,0,0,0,2.37-11.73L232,471.66Z"/><ellipse class="cls-2" cx="252.7" cy="549.12" rx="35.27" ry="23.3"/><ellipse class="cls-1" cx="250.84" cy="546.47" rx="30.5" ry="22.8"/><path class="cls-2" d="M235.07,548.14c-.76,3.84-3.79,6.81-4.46,10.67-.51,2.94.41,6.46,3.52,7.49a3.09,3.09,0,0,0,2.12,0c.5-.2.59-.65,0-.84-2.79-.92-3.1-4.68-2.55-7.11a20.41,20.41,0,0,1,2.24-5,19,19,0,0,0,2.13-5.25c.14-.71-2.82-.93-3,0Z"/><path class="cls-2" d="M258.73,551.63c-2.77,2.39-5.74,5-7,8.53a8.06,8.06,0,0,0,1.86,8.45,7.05,7.05,0,0,0,5.39,1.78c.34,0,1.3-.2,1.06-.72s-1.42-.47-1.84-.45c.14,0,.12,0-.06,0,.14,0,.13,0-.06,0,.27,0-.32-.09-.19-.05a3.34,3.34,0,0,1-.94-.48,5.72,5.72,0,0,1-1.59-1.73,7.61,7.61,0,0,1-1.1-4.88c.49-4.13,4.1-7.24,7.06-9.79.48-.42-.12-.72-.53-.83a2.68,2.68,0,0,0-2.06.19Z"/><path class="cls-3" d="M245,529.84a19.55,19.55,0,0,1,7.39-1.49,34.55,34.55,0,0,1,9.44,1.11A37,37,0,0,1,279,539c.52.53,2-.13,2.55-.35.17-.06,2.46-1.11,2.11-1.46-10.17-10.28-27-14.25-40.32-8-.34.15-1.88.81-1.36,1.31s2.61-.53,3-.72Z"/><path class="cls-4" d="M474.41,514.26c-46.61,56.06-157.34,57.54-227.62-17.57-57.44-61.4-89.44-174.18-58.83-220.58,40.15-60.86,148.52-48.2,227.62,17.56S521,458.19,474.41,514.26Z"/><path class="cls-4" d="M366.89,495.61l-1.64,50.86L374,559.85l1.89,11.38-15,13.09-31.27-1.45s-12.21-5.09-13-6.18-5.69-7.21-5.69-7.21l5.69-39-2.23-28.93Z"/><ellipse class="cls-2" cx="340.61" cy="575.06" rx="35.27" ry="23.3"/><ellipse class="cls-4" cx="338.75" cy="572.42" rx="30.5" ry="22.8"/><path class="cls-2" d="M266.32,401.07c.21,17.45.05,36.63,9,52.23,8.53,14.9,24.75,23,34,37.41A42.89,42.89,0,0,1,315,504.2a109.49,109.49,0,0,1,2.09,16.34l0-.27c.25,3.51.43,7,.49,10.56,0,.32,0,.29,0-.06,0-2,0-4,0-6.07,0-.43,0-.85,0-1.28,0,.22,0,.44,0,.67,0,.78,0,1.55-.07,2.33-.07,1.84-.18,3.67-.31,5.5l0-.27c-1,12.93-3.69,25.86-9.47,37.55a8.66,8.66,0,0,0-.05,2.2c0,1.76,0,3.53,0,5.3s0,3.53,0,5.3a7.45,7.45,0,0,1,.05,2.2c5.36-10.82,8.08-22.75,9.22-34.72a250.63,250.63,0,0,0,.75-25.12c0-7.47-.22-14.91-.89-22.35-.58-6.44-1.31-13-3.73-19a50.36,50.36,0,0,0-9.41-14.61c-7.65-8.58-17.35-15.13-24.42-24.25C270.83,433.29,268,419.76,267,406.35l0,.27q-.31-4.32-.45-8.64c0-1.26-.07-2.51-.09-3.77,0-.71,0-1.43,0-2.14,0-.36,0-.72,0-1.07,0-1,0,.52,0-.53,0,.34,0-2.2-.06-2.2s-.05,2.54-.05,2.2c0,3.53,0,7.07,0,10.6Z"/><path class="cls-2" d="M323,574.09c-.76,3.84-3.79,6.81-4.46,10.67-.51,2.94.42,6.46,3.53,7.48a3.09,3.09,0,0,0,2.12,0c.49-.21.58-.66,0-.85-2.79-.92-3.11-4.67-2.55-7.1a20,20,0,0,1,2.23-4.95,18.64,18.64,0,0,0,2.13-5.26c.14-.7-2.81-.92-3,0Z"/><path class="cls-2" d="M346.65,577.57c-2.78,2.4-5.74,5-7,8.53a8,8,0,0,0,1.85,8.45,7,7,0,0,0,5.4,1.79c.34,0,1.3-.2,1.05-.73s-1.41-.46-1.83-.44c.13,0,.11,0-.07,0,.15,0,.13,0-.05,0,.26.05-.32-.08-.2,0a3.63,3.63,0,0,1-.94-.48,5.84,5.84,0,0,1-1.59-1.73,7.68,7.68,0,0,1-1.09-4.88c.49-4.13,4.1-7.25,7.05-9.79.48-.42-.12-.73-.53-.83a2.7,2.7,0,0,0-2.05.18Z"/><path class="cls-3" d="M332.92,555.51a19.51,19.51,0,0,1,7.39-1.49,34.48,34.48,0,0,1,9.43,1.11,37.07,37.07,0,0,1,17.19,9.58c.52.53,2-.13,2.54-.34.18-.07,2.46-1.12,2.12-1.46-10.17-10.29-27-14.26-40.33-8-.33.16-1.87.81-1.36,1.31s2.62-.53,3-.72Z"/><path class="cls-2" d="M367.09,479.67c-1.85,6-2.42,12.24-2.92,18.43-.67,8.42-.73,16.86-.73,25.3,0,14.18.21,28.32,3.65,42.15a86.13,86.13,0,0,0,6.35,17.54,13.81,13.81,0,0,1,.07-2.93q0-3.54,0-7.07t0-7.07c0-.76.25-2.27-.07-2.93-5.78-11.69-8.47-24.62-9.47-37.55l0,.35c-.13-1.75-.24-3.51-.31-5.27,0-.44,0-.88,0-1.32,0,.09,0-1.29,0-.76,0-.3,0-.59,0-.89v.68q0,5.29,0,10.59,0,1.13,0,.45c.06-3,.24-6.88.49-10.3l0,.36c.5-6.63,1-13.39,3-19.76a12.63,12.63,0,0,0,.07-2.93c0-2.36,0-4.71,0-7.07s0-4.71,0-7.07a12.06,12.06,0,0,1-.07-2.93Z"/><path class="cls-4" d="M195.47,300.54c-15.12-1.51-30.07,11.73-30.38,26.93l18.66-4.5A39.32,39.32,0,0,0,165.6,356.6a112.79,112.79,0,0,1,32.59-8.11,46.93,46.93,0,0,1-17,8,15.22,15.22,0,0,0-5.09,1.79,13.05,13.05,0,0,0-3.73,4.84c-3.55,6.51-7.17,13.26-7.85,20.64s2.36,15.64,9.06,18.81c-1-3.86-1-8.28,1.44-11.46s7.75-4.17,10.35-1.16l-.06,25.35c0,6,1.81,14,7.82,14.16-2.37-11.14,8.28-20.18,16.49-28.08a95,95,0,0,0,23-35.07c1.93-5.16,3.41-10.79,2.08-16.13-1.08-4.32-3.89-8-6.62-11.49l-33.47-43"/><path class="cls-5" d="M306.05,330.28c-40.74,0-74.63-20.61-81.64-47.77a36,36,0,0,0-1.33,9.67c0,29.81,37.15,54,83,54s83-24.16,83-54a35.65,35.65,0,0,0-1.33-9.67C380.69,309.67,346.8,330.28,306.05,330.28Z"/><path class="cls-6" d="M231.17,242.42c-8.28-.62-13.24,3.19-19.83,8.24-5,3.79-11.6,5.69-14.56,11.19A75.92,75.92,0,0,1,183.11,280c-2,2-4.25,4-5.27,6.63-1.29,3.36-.42,7.13.51,10.61a464.34,464.34,0,0,0,21.7,63c1.61-7.27,3.25-14.64,6.72-21.22s9-12.41,16.18-14.51c2.85-.83,5.92-1.08,8.49-2.56s4.48-4.27,6-7c11.9-21.36,11.6-49-.74-70.1Z"/><path class="cls-6" d="M433.23,472.47c-5.77-1.64-12.2,1.13-16,5.78s-5.29,10.82-5.41,16.82c-3.94-4.44-10.14-6.22-16.07-6.56s-11.87.53-17.82.37c-9.44-.24-18.94-3.22-26.27-9.18-1.84-1.49-3.62-3.31-4.11-5.63-.59-2.7.7-5.43,2-7.86,6.93-12.77,14.4-21.82,25-31.7l1.45-1.58c5.82-3.39,9.85-7.79,14.06-12.84l21.13-25.33c2-2.42,4.1-5.88,2.27-8.44a5.73,5.73,0,0,0-2.69-1.85c-7.14-2.72-14.92.93-22,3.81s-16.1,4.69-21.58-.62c-6-5.84-3.51-15.8-5-24.06a7.9,7.9,0,0,0-1.66-4c-3.37-3.69-9.32-.15-14.31,0-8.55.25-13.6-10.65-11.42-18.93s8.73-14.52,14-21.25c9.89-12.59,15.82-27.77,21.61-42.71L408,251.81A167.28,167.28,0,0,1,434.68,293c5,11,9.1,23,18,31.21,4.31,4,9.51,6.86,14.72,9.57,10.05,5.24,20.49,10.17,28.8,17.89,8,7.44,13.64,17.14,21.71,24.5,15.47,14.11,37.76,17.94,55,29.74,25.45,17.37,36.68,50.06,36.79,80.87a40.89,40.89,0,0,1-1,10.48,35,35,0,0,1-6.29,12c-11.31,15-28.62,24.71-46.8,29.39-21.18,5.45-43.48,4.51-65,8.28-16.55,2.89-32.48,8.52-48.86,12.21-2.43.55-5,1-7.37.21-2.9-1-4.76-3.83-6.05-6.62-6.45-13.95-3.53-30.22-.48-45.28q3.47-17.17,6.95-34.37Z"/><ellipse class="cls-4" cx="307.34" cy="262.2" rx="89.7" ry="52.16"/><ellipse class="cls-4" cx="307.34" cy="158.41" rx="42.18" ry="75.95"/><path class="cls-6" d="M272.54,201.59c-.15.44-.32.87-.49,1.3a30.91,30.91,0,0,0-2.38,7.58,11.42,11.42,0,0,0,1.69,8.28c1.83,2.53,4.89,3.86,7.45,5.66a5.3,5.3,0,0,1,1.76,6.45l-.95,2.2a5.39,5.39,0,0,1-5.12,3.21c-8.83-.24-17.65,1.55-26.34,3.33-7.55,1.54-16.15,3.87-19.43,10.84-1.52,3.24-1.58,6.95-1.59,10.52q0,12.29.24,24.56-15.52-15.16-29.66-31.64c-3.46-4-6.9-8.2-9.08-13.06a48.5,48.5,0,0,1-3.34-12.58,141.41,141.41,0,0,1,14.5-87c1.58-3,3.29-6,3.82-9.37s-.19-6.84-.91-10.2c-2.12-9.8-4.23-19.61-6.86-29.29-3-11.2-6.78-22.27-8.28-33.77a122.16,122.16,0,0,1-.19-26.28c.78-9,3.2-19.36,11.42-23.06,9.33-4.2,19.6,2.84,27.4,9.47l16.32,13.87c5.72,4.85,11.61,9.93,14.7,16.76,2,4.4,2.71,9.31,4.82,13.65,3.21,6.58,9.42,11.32,16.14,14.21s14,4.14,21.25,5.38l.43.4c-4.54,7.57-4.43,16.94-4.18,25.76.27,9.6.55,19.24,2.29,28.69.73,4,1.74,8,1.88,12.07a29.2,29.2,0,0,1-3.55,15c-2.61,4.77-6.49,8.69-10.31,12.54l-3.8,3.83a23.43,23.43,0,0,0-5.52,8.83Z"/><path class="cls-6" d="M341.57,201.59c.15.44.31.87.49,1.3a31.32,31.32,0,0,1,2.37,7.58,11.36,11.36,0,0,1-1.68,8.28c-1.83,2.53-4.89,3.86-7.45,5.66a5.29,5.29,0,0,0-1.77,6.45l1,2.2a5.39,5.39,0,0,0,5.11,3.21c8.83-.24,17.66,1.55,26.35,3.33,7.55,1.54,16.15,3.87,19.43,10.84,1.52,3.24,1.58,6.95,1.59,10.52q0,12.29-.24,24.56,15.52-15.16,29.66-31.64c3.46-4,6.9-8.2,9.08-13.06a48.9,48.9,0,0,0,3.34-12.58,141.49,141.49,0,0,0-14.5-87c-1.58-3-3.3-6-3.82-9.37s.19-6.84.91-10.2c2.12-9.8,4.23-19.61,6.86-29.29,3-11.2,6.78-22.27,8.27-33.77a122.16,122.16,0,0,0,.2-26.28c-.78-9-3.2-19.36-11.42-23.06-9.33-4.2-19.61,2.84-27.4,9.47L371.58,32.61c-5.71,4.85-11.6,9.93-14.69,16.76-2,4.4-2.71,9.31-4.82,13.65-3.21,6.58-9.42,11.32-16.15,14.21s-14,4.14-21.24,5.38l-.43.4c4.54,7.57,4.42,16.94,4.17,25.76-.27,9.6-.54,19.24-2.28,28.69-.74,4-1.74,8-1.89,12.07a29.21,29.21,0,0,0,3.56,15c2.61,4.77,6.48,8.69,10.31,12.54l3.8,3.83a23.55,23.55,0,0,1,5.52,8.83Z"/><ellipse class="cls-4" cx="307.34" cy="202.21" rx="42.18" ry="32.16"/><path class="cls-7" d="M326.71,197.42c0-18-8.67-12.16-19.37-12.16S288,180.11,288,197.42c0,7.45,7.21,12.6,16.59,13.45l2.78,4.82,2.78-4.82C319.5,210,326.71,204.87,326.71,197.42Z"/><path class="cls-4" d="M323,193.1c0,1.9-7-1-15.63-1s-15.62,2.92-15.62,1,7-3.43,15.62-3.43S323,191.21,323,193.1Z"/><ellipse class="cls-7" cx="349" cy="146.76" rx="13.09" ry="16.36"/><ellipse class="cls-7" cx="265.26" cy="146.76" rx="13.09" ry="16.36"/><path class="cls-8" d="M312.83,229.79l-3-3a3.49,3.49,0,0,0-5,0l-3,3a3.53,3.53,0,0,1-3.16,1c-33.76-6.06-33.77-46.64-33.77-26.65,0,21.57,19,39,42.42,39s42.42-17.48,42.42-39c0-20,0,20.59-33.77,26.65A3.53,3.53,0,0,1,312.83,229.79Z"/><path class="cls-9" d="M307.4,235.2a41.74,41.74,0,0,1-25.75-8.88,41.09,41.09,0,0,0-2.1,13.06c0,19.06,12.68,34.51,28.33,34.51s28.32-15.45,28.32-34.51a40.79,40.79,0,0,0-2.31-13.66A41.72,41.72,0,0,1,307.4,235.2Z"/><polygon class="cls-10" points="303.6 235.13 306.87 233.84 310.51 235.13 310.51 262.05 303.6 235.13"/><path class="cls-3" d="M359.09,290.08a4.64,4.64,0,0,1,.1.76v-9.65c-.07,2.94-2.93,5.42-5,7.18-2.71,2.35-5.66,4.4-8.42,6.68-6.6,5.45-15.62,6.8-22.76,11.36a11.87,11.87,0,0,0-4.19,4,7.35,7.35,0,0,0-.82,3.12c-.16,2.46-.07,5-.07,7.42,0,1,0,2,0,3,0-.28,0,1.13,0,.5.17-2,0-4.12,0-6.15l0,4.63.06-.42c.07-.28.11-.56.19-.84a5.83,5.83,0,0,1,.6-1.38,8.78,8.78,0,0,1,1.74-2.06,24,24,0,0,1,5.07-3.31c4.17-2.15,8.63-3.69,12.91-5.63a38.15,38.15,0,0,0,5.56-3c1.49-1,2.83-2.23,4.25-3.33,2.94-2.27,6.1-4.44,8.54-7.27a8.14,8.14,0,0,0,2.17-4.16,55.25,55.25,0,0,0,.07-6.81,22.09,22.09,0,0,0-.16-4.6,7.77,7.77,0,0,1,0,1.46c0,1.18,0,2.36,0,3.54s0,2.35,0,3.53a8,8,0,0,0,0,1.47Z"/><path class="cls-3" d="M253,268.15c-.09,4.78-.14,9.58,0,14.36a37.81,37.81,0,0,0,.9,7.56,20,20,0,0,0,9.93,13c5.77,3.22,12.53,4.6,18.94,5.94,7,1.45,14.07,2.63,20.82,5a29.41,29.41,0,0,1,8.74,4.43c2.93,2.32,4.25,5.49,5,9.07a8.91,8.91,0,0,1,0-1.47c0-1.17,0-2.35,0-3.53a26.92,26.92,0,0,0-.05-5c-.62-3-1.6-5.85-3.82-8a21.5,21.5,0,0,0-6.45-4.1c-5.9-2.61-12.34-3.9-18.63-5.18s-12.7-2.42-18.79-4.55c-5.19-1.81-10.2-4.57-13.2-9.35a21.6,21.6,0,0,1-2.81-7.48,36.66,36.66,0,0,1-.53-4.32c0-.59-.05-1.18-.08-1.78-.08-2.3.05,3.3,0,4.92,0,.32,0-.72,0-.85,0-2.28,0-4.56,0-6.84,0-.76,0-1.54,0-2.3,0-.56,0,.65,0,.51Z"/><path class="cls-11" d="M270.41,84.15,259.88,69.79a40.06,40.06,0,0,1-6.44-13.54v-.06a36.39,36.39,0,0,0-2.38-7.08c-2.39-4.81-6.74-8.3-11-11.62L232,31.08a9.79,9.79,0,0,1-1.92-2h0a7.59,7.59,0,0,0-.57-.68c-11.7-12.28-21.74-17.69-28.17-14.84s-9.25,14.1-8,31.26c1.25,16.66,5.44,40.58,14.49,66.3a38.2,38.2,0,0,1,1.33,4.82c.78,3.57,5,5,7.22,2.4l15.88-18.59.11-.12A19.58,19.58,0,0,1,243,94.9l24.54-2.7C271.17,91.8,272.75,87.34,270.41,84.15Z"/><path class="cls-12" d="M251.47,93.92c-.27-.56-1.41-1.73-1.69-2.29s-.55-1.11-.82-1.66c-7.13-14.32-14-25.68-19.72-33.2S219,45.6,216.51,46.69s-2.82,6.92-1.11,16.2,5.47,22,11.25,36.93l.68,1.73.68,1.73,4.42-3.81a19.25,19.25,0,0,1,10.35-4.54Z"/><path class="cls-11" d="M343.26,87.94l10.53-14.36A40,40,0,0,0,360.23,60l0-.07a37.28,37.28,0,0,1,2.37-7.08c2.39-4.81,6.74-8.29,11-11.62l8.12-6.41a10.11,10.11,0,0,0,1.93-2h0a8.77,8.77,0,0,1,.56-.68c11.7-12.27,21.74-17.68,28.17-14.84s9.25,14.1,8,31.27c-1.24,16.65-5.44,40.57-14.49,66.29a40,40,0,0,0-1.33,4.82c-.78,3.57-5,5-7.21,2.41l-15.88-18.59-.12-.12a19.4,19.4,0,0,0-10.64-4.74L346.12,96C342.51,95.58,340.92,91.13,343.26,87.94Z"/><path class="cls-12" d="M362.2,97.7c.27-.56,1.42-1.73,1.69-2.29l.82-1.66c7.13-14.32,14-25.68,19.73-33.19s10.26-11.17,12.72-10.08,2.82,6.91,1.12,16.19-5.48,22-11.26,36.93c-.22.58-.45,1.16-.68,1.73s-.45,1.16-.68,1.73l-4.42-3.8a19.16,19.16,0,0,0-10.34-4.55Z"/><ellipse class="cls-13" cx="434.19" cy="563.37" rx="40.86" ry="23.25" transform="translate(-49.55 41.93) rotate(-5.23)"/><path class="cls-2" d="M450.63,583.44a84.73,84.73,0,0,1-13.28,2.7q-3.45.4-6.92.53c-.31,0-.62,0-.92,0-.83,0,6.62.08,4.12,0l-1.59-.07c-1.23-.06-2.45-.15-3.68-.27-8-.78-16.51-2.5-23.49-6.67a19,19,0,0,1-7.16-6.9,12.22,12.22,0,0,1-.62-10.07,23.73,23.73,0,0,1,6.94-9.57,57,57,0,0,1,8-6.06c6-3.67,13-5,19.84-6.44a8.05,8.05,0,0,1-1.31,0l-3.19,0a22.55,22.55,0,0,0-4.5,0c-6.47,1.38-13.15,2.61-19,5.93a54.52,54.52,0,0,0-8.59,6.31A23.82,23.82,0,0,0,388,563.07a12.2,12.2,0,0,0,1.25,10.55,21.49,21.49,0,0,0,8.46,7.06c7.87,4,17.17,5.56,25.92,6,12.11.57,24.33.14,36-3.22a7.13,7.13,0,0,1-1.32,0l-3.18,0-3.18,0a5.29,5.29,0,0,0-1.32,0Z"/><path class="cls-2" d="M431,559a32.29,32.29,0,0,0-10.92-.34,20.94,20.94,0,0,0-10.41,4.42c-5.76,4.68-8.22,13.2-3.69,19.61.1.14,1.31,0,1.5,0s1.4-.15,1.5,0c-3.82-5.4-2.72-12.72,1.52-17.53A19.58,19.58,0,0,1,418,560a22.15,22.15,0,0,1,5.24-1.33,6.7,6.7,0,0,1,1.83-.15h-1.22c.4,0,.8,0,1.2.07a23.65,23.65,0,0,1,2.9.46c.95.21,2-.21,3,0Z"/><path class="cls-2" d="M447.88,563.05a32.29,32.29,0,0,0-10.92-.34,20.94,20.94,0,0,0-10.41,4.42c-5.76,4.68-8.22,13.2-3.69,19.61.1.14,1.31,0,1.5,0s1.4-.15,1.5,0c-3.82-5.4-2.72-12.72,1.52-17.53a19.58,19.58,0,0,1,7.55-5.2,22.15,22.15,0,0,1,5.24-1.33,7.12,7.12,0,0,1,1.83-.16h-1.22c.4,0,.8,0,1.2.07a23.65,23.65,0,0,1,2.9.46c.95.21,2.05-.21,3,0Z"/><polygon class="cls-6" points="436.97 484.57 425.61 501.29 421.23 515.84 421.23 533.68 426.97 539.4 436.97 542.71 441.53 544.57 448.33 544.57 459.35 544.89 486.25 540.59 469.89 481.66 441 477.69 436.97 484.57"/><path class="cls-2" d="M429,534.4C413,513.58,445.3,468.22,501.75,430.31,440,465.25,400.52,511.19,413.09,534.06c6.92,12.6,28.26,15.6,56.48,10.19C450.43,546.36,435.81,543.32,429,534.4Z"/><path class="cls-6" d="M530.69,389.32c10.12-11.34,30.09-11.67,40.58-.68l-16.79,9.29a39.37,39.37,0,0,1,36.11,12.53,112.26,112.26,0,0,0-29.51,16.05A47.23,47.23,0,0,0,579,420.92a15.22,15.22,0,0,1,5-2.13,13.11,13.11,0,0,1,6,1c7,2.4,14.25,4.93,19.74,9.91s8.83,13.13,6,20c-1.89-3.5-4.88-6.75-8.8-7.47s-8.53,2.15-8.42,6.13l17.18,18.65c4.07,4.43,8.15,11.58,3.8,15.72-5.78-9.81-19.74-9.28-31.13-9.56a95.07,95.07,0,0,1-40.67-10.29c-4.9-2.5-9.8-5.65-12.43-10.49-2.12-3.92-2.52-8.51-2.88-12.95L528,385.17"/><ellipse class="cls-14" cx="296.91" cy="362.53" rx="18.56" ry="20.24"/><ellipse class="cls-15" cx="295.35" cy="361.5" rx="14.34" ry="16.98"/><path class="cls-16" d="M31.89,510.15l-.12.32c0-.11.11-.21.16-.32Z"/><path class="cls-16" d="M213.34,510.15c0,.11.12.21.16.32l-.11-.32Z"/><path class="cls-16" d="M122.64,527.57c-53.69,0-94.26-7.94-90.87-17.1l-20.1,54.3h.09a8.86,8.86,0,0,0-.4.82c-5.12,13.85,44.5,26,111.28,26s116.39-12.2,111.27-26a6.89,6.89,0,0,0-.4-.82h.09l-20.1-54.3C216.89,519.63,176.32,527.57,122.64,527.57Z"/><ellipse class="cls-17" cx="122.64" cy="512.56" rx="90.75" ry="16.78"/><ellipse class="cls-18" cx="122.64" cy="511.71" rx="73.76" ry="12.95"/><path d="M83.29,549.45q.17-2.72-1.38-2.82a4.06,4.06,0,0,0-.81,0,7.09,7.09,0,0,1-1.37.05,2.12,2.12,0,0,1-1.49-.68,2,2,0,0,1-.54-1.56c.09-1.48,1-2.16,2.81-2l.29,0a2.46,2.46,0,0,1,.46.08l3.6.5,1.8.28a7,7,0,0,0,1.25.1l10.92.34h3l.66,0c2.09.13,3.09,1.1,3,2.92,0,.09,0,.35-.09.77s-.14,1-.24,1.57a11.23,11.23,0,0,0-.2,1.35c-.05.47-.08.88-.1,1.22,0,.5,0,.94-.06,1.3s0,.63,0,.82c0,.45.06.84.07,1.19a8.47,8.47,0,0,1,0,.89,2.08,2.08,0,0,1-2.53,2.16c-1.6-.1-2.34-1.15-2.21-3.16l.14-2.35c.14-2.25-.16-3.56-.89-3.92h0a20.84,20.84,0,0,0-5.75-.83,27.05,27.05,0,0,0-3.63-.08,2,2,0,0,0-1.49,2l-.19,3.11a3.26,3.26,0,0,0-.08.53c0,.14,0,.25,0,.31l0,.56a2.94,2.94,0,0,0,.1,1.47,5,5,0,0,0,.94.15l1.88.12c1.34.08,2.06-.28,2.14-1.1a2,2,0,0,1,0-.56,6.75,6.75,0,0,0,0-.81v.05a10.18,10.18,0,0,1,0-1.75,2.12,2.12,0,0,1,2.54-2.24c1.6.09,2.34,1,2.24,2.68,0,.16-.05.49-.13,1s-.21,1.14-.38,1.91a27.37,27.37,0,0,0-.5,3.56c0,.28,0,.7,0,1.25s0,1.18,0,1.91l.14,1.52a11.21,11.21,0,0,1,0,1.7c-.09,1.5-.94,2.2-2.54,2.1s-2.29-1-2.19-2.68c0-.16,0-.38.07-.66s.07-.54.12-.79a4.21,4.21,0,0,1,0-.52c0-.21.06-.41.08-.58s0-.3.07-.37,0-.06,0,.07c.06-.88-.51-1.35-1.7-1.43L89,560c-.53,0-.86.06-1,.27a3.62,3.62,0,0,0-.25,1.4l-.18,2.82c0,.25,0,.53,0,.82s0,.66,0,1.07,0,.91,0,1.24,0,.57,0,.73c0,1.1.06,1.72.31,1.86a4.76,4.76,0,0,0,1.87.3l6.15.38a4.86,4.86,0,0,0,3.07-.49,3.08,3.08,0,0,0,1-2.42c0-.15,0-.34,0-.56a4.68,4.68,0,0,0,0-.75,1.6,1.6,0,0,0,0-.31c0-.11,0-.21,0-.31,0-.38,0-.76,0-1.15s0-.7.05-.92c.11-1.78,1-2.63,2.57-2.53s2.43,1.06,2.32,2.88c0,.19,0,.42,0,.71a8.73,8.73,0,0,1-.1.93c0,.1,0,.23,0,.4a4.4,4.4,0,0,0-.05.45c0,.15,0,.31,0,.46a4,4,0,0,0-.06.47c0,.35-.08.64-.1.89s0,.47,0,.66,0,.44,0,.75,0,.69,0,1.13a2.73,2.73,0,0,0,0,.31,1.62,1.62,0,0,1,0,.21c0,.26,0,.5,0,.73s0,.43,0,.59c-.11,1.85-1.11,2.71-3,2.6l-.51,0a3.8,3.8,0,0,1-.57-.09,1.77,1.77,0,0,1-.3,0l-.3,0a12.71,12.71,0,0,0-1.54-.26L96.58,575,95,575c-.57,0-1.21-.05-1.93-.09l-3-.26-2.56-.18c-2.82-.17-5.59-.25-8.33-.23a.61.61,0,0,0-.29,0l-.37,0c-1.79-.11-2.63-.91-2.54-2.42a1.88,1.88,0,0,1,2.29-1.93l.14,0a.88.88,0,0,0,.28,0l.37.05a3.75,3.75,0,0,0,.47,0,3.94,3.94,0,0,0,.47.1,3.41,3.41,0,0,0,.42,0c1,.07,1.61-.81,1.72-2.63Z"/><path d="M119.36,550.93c0-1.82-.5-2.74-1.54-2.74a3.44,3.44,0,0,0-.8.09,8.46,8.46,0,0,1-1.36.14,2.18,2.18,0,0,1-1.53-.6,2,2,0,0,1-.63-1.53c0-1.47.92-2.21,2.74-2.2h.37a1.88,1.88,0,0,1,.43,0l2.35.34c.44.06.88.11,1.34.14s.9,0,1.34,0,.87,0,1.39-.06l1.58-.16,2-.27a1.75,1.75,0,0,1,.4,0h.36c1.85,0,2.77.75,2.77,2.22a2,2,0,0,1-.67,1.53,2.16,2.16,0,0,1-1.51.58,7.22,7.22,0,0,1-1.36-.14,4,4,0,0,0-.85-.1c-1,0-1.51.91-1.52,2.73l-.06,18.12c0,1.82.49,2.73,1.49,2.74h.22l.35,0H127a9.28,9.28,0,0,1,1.37-.14c1.44,0,2.16.7,2.16,2.08s-.94,2.26-2.79,2.25h-.42a.72.72,0,0,0-.29-.05l-2.4-.38c-.4-.07-.8-.11-1.2-.15s-.77,0-1.15,0c-.63,0-1.21,0-1.74.07s-1,.09-1.55.15l-2.08.33a1.15,1.15,0,0,0-.33,0h-.47c-1.79,0-2.68-.76-2.67-2.27s.73-2.07,2.17-2.06l.14,0a.78.78,0,0,0,.24,0l.37,0a4.17,4.17,0,0,0,.52,0l.45.07a3.17,3.17,0,0,0,.44,0c1,0,1.56-.9,1.57-2.72Z"/><path d="M149.49,545.85l-.05-.05,3.17,5.65c1,1.73,1.94,3.42,2.9,5.07s1.92,3.35,2.89,5.08,2,3.61,3.17,5.64l-.95-14.84c-.15-2.32-.24-3.55-.28-3.71-.3-1.14-.81-1.74-1.53-1.79,0,0-.18.07-.44.1a4.39,4.39,0,0,0-.63.11c-.22,0-.43.08-.63.11l-.54.06a2.16,2.16,0,0,1-1.59-.53,1.93,1.93,0,0,1-.75-1.4q-.15-2.25,2.67-2.43a1.24,1.24,0,0,0,.35,0,.74.74,0,0,1,.36,0l2,.16,1.3.06c.43,0,.81,0,1.16,0a22.65,22.65,0,0,0,3-.47l1.59-.34a1,1,0,0,0,.32-.07l.38,0c1.81-.12,2.77.56,2.86,2s-.72,2.22-2.44,2.33a2,2,0,0,0-.35,0,.35.35,0,0,1-.27-.05l-.32,0c-.6,0-1,.22-1.13.54a6.11,6.11,0,0,0-.22,2.09c0,.44,0,.87,0,1.3s0,.85,0,1.29l.2,4.61.76,12a10.08,10.08,0,0,1-.53,4.92,3.24,3.24,0,0,1-2.92,1.57q-2.67.18-4.64-3.24l-11.76-20.85,1.13,17.66c.12,1.82.69,2.7,1.73,2.63l.37,0a5.48,5.48,0,0,1,.61-.06l.77-.14c.32-.06.46-.08.39-.08a1.92,1.92,0,0,1,2.35,2c.09,1.47-.8,2.26-2.68,2.38l-.33,0a.49.49,0,0,0-.21,0h-.17l-1.85-.16h.05l-1.51-.06a11.46,11.46,0,0,0-1.32,0c-.32,0-.73.07-1.25.15l-1.65.27-2.19.42a1,1,0,0,0-.33.07l-.47,0c-1.78.11-2.72-.56-2.82-2s.61-2.06,2.08-2.16l.14,0h.24l.89-.06a2.7,2.7,0,0,0,.9.08c1-.06,1.45-1,1.33-2.82l-.2-3.15-.2-4-.25-3.85-.5-7.14c-.12-1.85-.7-2.74-1.73-2.67a2.54,2.54,0,0,0-.47.07l-.16,0a.41.41,0,0,1-.16,0,5.06,5.06,0,0,1-.75.17l-.61.06a1.92,1.92,0,0,1-2.34-2c-.09-1.48.75-2.27,2.54-2.38l.37,0a2.43,2.43,0,0,1,.47,0l2,0c.59,0,1.07,0,1.44,0s1-.11,1.92-.27a19.46,19.46,0,0,1,2.1-.27,3.21,3.21,0,0,1,1.6.23,2.57,2.57,0,0,1,1,.92Z"/></svg>