<svg id="law_sheet" data-name="law sheet" xmlns="http://www.w3.org/2000/svg" viewBox="0 0 342 342"><path d="M299.26,76.75V307a34,34,0,0,1-34,34H76.75a34,34,0,0,1-34-34V76.75a34,34,0,0,1,34-34H110.9a64.14,64.14,0,0,1,120.2,0h34.15A34,34,0,0,1,299.26,76.75ZM194.41,65.13A23.41,23.41,0,1,0,171,88.54,23.41,23.41,0,0,0,194.41,65.13ZM124.68,181.18a17.31,17.31,0,1,0-17.3,17.31A17.31,17.31,0,0,0,124.68,181.18Zm0,64.13a17.31,17.31,0,1,0-17.3,17.31A17.3,17.3,0,0,0,124.68,245.31ZM242,165.91H165.13a15,15,0,0,0-15,15v.54a15,15,0,0,0,15,15H242a15,15,0,0,0,15-15v-.54A15,15,0,0,0,242,165.91ZM242,230H165.13a15,15,0,0,0-15,15v.54a15,15,0,0,0,15,15H242a15,15,0,0,0,15-15V245A15,15,0,0,0,242,230Z"/></svg>