<?xml version="1.0" encoding="UTF-8"?>
<svg id="Layer_12" data-name="Layer 12" xmlns="http://www.w3.org/2000/svg" viewBox="0 0 440 440.46">
  <defs>
    <style>
      .cls-1 {
        fill: #0d6efd;
      }
    </style>
  </defs>
  <path class="cls-1" d="M220,11.56C104.76,11.56,11.32,105.02,11.32,220.23s93.44,208.68,208.68,208.68,208.68-93.4,208.68-208.68S335.24,11.56,220,11.56ZM220,104.11c19.52,0,35.34,15.82,35.34,35.34s-15.82,35.34-35.34,35.34-35.34-15.82-35.34-35.34,15.82-35.34,35.34-35.34ZM267.12,317.84c0,5.58-4.52,10.1-10.1,10.1h-74.05c-5.58,0-10.1-4.52-10.1-10.1v-20.19c0-5.58,4.52-10.1,10.1-10.1h10.1v-53.85h-10.1c-5.58,0-10.1-4.52-10.1-10.1v-20.19c0-5.58,4.52-10.1,10.1-10.1h53.85c5.58,0,10.1,4.52,10.1,10.1v84.14h10.1c5.58,0,10.1,4.52,10.1,10.1v20.19Z"/>
</svg>