<?xml version="1.0" encoding="UTF-8"?>
<svg id="Layer_1_copy_6" data-name="Layer 1 copy 6" xmlns="http://www.w3.org/2000/svg" viewBox="0 0 440 440.46">
  <defs>
    <style>
      .cls-1 {
        fill: #4caf50;
      }

      .cls-2 {
        fill: #ccc;
      }
    </style>
  </defs>
  <path class="cls-2" d="M171.36,32.29c37.44,37.44,47.88,186.69,47.88,186.69,0,0-149.25-10.45-186.69-47.88C-4.88,133.65-4.15,72.23,34.17,33.9c38.33-38.33,99.75-39.05,137.19-1.62Z"/>
  <path class="cls-2" d="M407.6,171.09c-37.44,37.44-186.69,47.88-186.69,47.88,0,0,10.45-149.25,47.88-186.69,37.44-37.44,98.86-36.71,137.19,1.62,38.33,38.33,39.05,99.75,1.62,137.19Z"/>
  <path class="cls-1" d="M268.79,407.84c-37.44-37.44-47.88-186.69-47.88-186.69,0,0,149.25,10.45,186.69,47.88,37.44,37.44,36.71,98.86-1.62,137.19-38.33,38.33-99.75,39.05-137.19,1.62Z"/>
  <path class="cls-1" d="M32.56,269.03c37.44-37.44,186.69-47.88,186.69-47.88,0,0-10.45,149.25-47.88,186.69-37.44,37.44-98.86,36.71-137.19-1.62-38.33-38.33-39.05-99.75-1.62-137.19Z"/>
</svg>