<?xml version="1.0" encoding="UTF-8"?>
<svg id="Layer_1_copy_4" data-name="Layer 1 copy 4" xmlns="http://www.w3.org/2000/svg" viewBox="0 0 440 440.46">
  <defs>
    <style>
      .cls-1 {
        fill: #bdbdbd;
      }
    </style>
  </defs>
  <polygon class="cls-1" points="196.48 38.55 196.08 38.95 117.58 6.44 38.98 38.99 6.43 117.59 38.98 196.18 39.06 196.1 219.35 218.95 196.48 38.55"/>
  <polygon class="cls-1" points="38.95 243.97 39.35 244.38 6.83 322.88 39.39 401.47 117.98 434.03 196.58 401.47 196.5 401.39 219.35 221.11 38.95 243.97"/>
  <polygon class="cls-1" points="243.52 401.91 243.92 401.51 322.42 434.03 401.02 401.47 433.57 322.88 401.02 244.28 400.94 244.36 220.65 221.51 243.52 401.91"/>
  <polygon class="cls-1" points="401.05 196.49 400.65 196.09 433.17 117.59 400.61 38.99 322.02 6.44 243.42 38.99 243.5 39.07 220.65 219.36 401.05 196.49"/>
</svg>