<svg id="keyboard" xmlns="http://www.w3.org/2000/svg" viewBox="0 0 342 342"><path d="M312.84,284.47H29.16A28.37,28.37,0,0,1,.8,256.1V85.9A28.37,28.37,0,0,1,29.16,57.53H312.84A28.37,28.37,0,0,1,341.2,85.9V256.1A28.37,28.37,0,0,1,312.84,284.47ZM76.44,126.09V102.45a7.09,7.09,0,0,0-7.09-7.1H45.71a7.1,7.1,0,0,0-7.09,7.1v23.64a7.1,7.1,0,0,0,7.09,7.09H69.35A7.09,7.09,0,0,0,76.44,126.09Zm56.74,0V102.45a7.1,7.1,0,0,0-7.09-7.1H102.45a7.1,7.1,0,0,0-7.1,7.1v23.64a7.1,7.1,0,0,0,7.1,7.09h23.64A7.1,7.1,0,0,0,133.18,126.09Zm56.73,0V102.45a7.09,7.09,0,0,0-7.09-7.1H159.18a7.09,7.09,0,0,0-7.09,7.1v23.64a7.09,7.09,0,0,0,7.09,7.09h23.64A7.09,7.09,0,0,0,189.91,126.09Zm0,56.91V159.36a7.09,7.09,0,0,0-7.09-7.1H159.18a7.09,7.09,0,0,0-7.09,7.1V183a7.09,7.09,0,0,0,7.09,7.09h23.64A7.09,7.09,0,0,0,189.91,183Zm56.74-56.91V102.45a7.1,7.1,0,0,0-7.1-7.1H215.91a7.1,7.1,0,0,0-7.09,7.1v23.64a7.1,7.1,0,0,0,7.09,7.09h23.64A7.1,7.1,0,0,0,246.65,126.09Zm56.73,0V102.45a7.1,7.1,0,0,0-7.09-7.1H272.65a7.09,7.09,0,0,0-7.09,7.1v23.64a7.09,7.09,0,0,0,7.09,7.09h23.64A7.1,7.1,0,0,0,303.38,126.09ZM76.44,182.82V159.18a7.08,7.08,0,0,0-7.09-7.09H45.71a7.09,7.09,0,0,0-7.09,7.09v23.64a7.09,7.09,0,0,0,7.09,7.09H69.35A7.08,7.08,0,0,0,76.44,182.82Zm56.74,0V159.18a7.09,7.09,0,0,0-7.09-7.09H102.45a7.09,7.09,0,0,0-7.1,7.09v23.64a7.09,7.09,0,0,0,7.1,7.09h23.64A7.09,7.09,0,0,0,133.18,182.82Zm113.47,0V159.18a7.09,7.09,0,0,0-7.1-7.09H215.91a7.09,7.09,0,0,0-7.09,7.09v23.64a7.09,7.09,0,0,0,7.09,7.09h23.64A7.09,7.09,0,0,0,246.65,182.82Zm56.73,0V159.18a7.09,7.09,0,0,0-7.09-7.09H272.65a7.08,7.08,0,0,0-7.09,7.09v23.64a7.08,7.08,0,0,0,7.09,7.09h23.64A7.09,7.09,0,0,0,303.38,182.82ZM76.44,239.55V215.91a7.09,7.09,0,0,0-7.09-7.09H45.71a7.1,7.1,0,0,0-7.09,7.09v23.64a7.1,7.1,0,0,0,7.09,7.1H69.35A7.09,7.09,0,0,0,76.44,239.55Zm170.21,0V215.91a7.1,7.1,0,0,0-7.1-7.09H102.45a7.1,7.1,0,0,0-7.1,7.09v23.64a7.1,7.1,0,0,0,7.1,7.1h137.1A7.1,7.1,0,0,0,246.65,239.55Zm56.73,0V215.91a7.1,7.1,0,0,0-7.09-7.09H272.65a7.09,7.09,0,0,0-7.09,7.09v23.64a7.09,7.09,0,0,0,7.09,7.1h23.64A7.1,7.1,0,0,0,303.38,239.55Z"/></svg>