<?xml version="1.0" encoding="utf-8"?>
<!-- Generator: Adobe Illustrator 26.0.2, SVG Export Plug-In . SVG Version: 6.00 Build 0)  -->
<svg version="1.1" id="Layer_1" xmlns="http://www.w3.org/2000/svg" xmlns:xlink="http://www.w3.org/1999/xlink" x="0px" y="0px"
	 viewBox="0 0 512 512" style="enable-background:new 0 0 512 512;" xml:space="preserve">
<path d="M2.2,56.6c0-30,24.3-54.4,54.4-54.4h108.8c30,0,54.4,24.3,54.4,54.4v108.8c0,30-24.3,54.4-54.4,54.4H56.6
	c-30,0-54.4-24.3-54.4-54.4V56.6z M56.6,38.5c-10,0-18.1,8.1-18.1,18.1v108.8c0,10,8.1,18.1,18.1,18.1h108.8
	c10,0,18.1-8.1,18.1-18.1V56.6c0-10-8.1-18.1-18.1-18.1H56.6z M292.2,56.6c0-30,24.3-54.4,54.4-54.4h108.8c30,0,54.4,24.3,54.4,54.4
	v108.8c0,30-24.3,54.4-54.4,54.4H346.6c-30,0-54.4-24.3-54.4-54.4V56.6z M346.6,38.5c-10,0-18.1,8.1-18.1,18.1v108.8
	c0,10,8.1,18.1,18.1,18.1h108.8c10,0,18.1-8.1,18.1-18.1V56.6c0-10-8.1-18.1-18.1-18.1H346.6z M2.2,346.6c0-30,24.3-54.4,54.4-54.4
	h108.8c30,0,54.4,24.3,54.4,54.4v108.8c0,30-24.3,54.4-54.4,54.4H56.6c-30,0-54.4-24.3-54.4-54.4V346.6z M56.6,328.5
	c-10,0-18.1,8.1-18.1,18.1v108.8c0,10,8.1,18.1,18.1,18.1h108.8c10,0,18.1-8.1,18.1-18.1V346.6c0-10-8.1-18.1-18.1-18.1H56.6z
	 M292.2,346.6c0-30,24.3-54.4,54.4-54.4h108.8c30,0,54.4,24.3,54.4,54.4v108.8c0,30-24.3,54.4-54.4,54.4H346.6
	c-30,0-54.4-24.3-54.4-54.4V346.6z M346.6,328.5c-10,0-18.1,8.1-18.1,18.1v108.8c0,10,8.1,18.1,18.1,18.1h108.8
	c10,0,18.1-8.1,18.1-18.1V346.6c0-10-8.1-18.1-18.1-18.1H346.6z"/>
</svg>
