<?xml version="1.0" encoding="UTF-8"?>
<svg xmlns="http://www.w3.org/2000/svg" viewBox="0 0 440 440.46">
  <defs>
    <style>
      .cls-1 {
        fill: #4caf50;
      }

      .cls-2 {
        fill: #fff;
      }

      .cls-3 {
        fill: #999;
      }
    </style>
  </defs>
  <g id="Layer_1_copy_8" data-name="Layer 1 copy 8">
    <path class="cls-1" d="M171.36,32.29c37.44,37.44,47.88,186.69,47.88,186.69,0,0-149.25-10.45-186.69-47.88C-4.88,133.65-4.15,72.23,34.17,33.9c38.33-38.33,99.75-39.05,137.19-1.62Z"/>
    <path class="cls-1" d="M407.6,171.09c-37.44,37.44-186.69,47.88-186.69,47.88,0,0,10.45-149.25,47.88-186.69,37.44-37.44,98.86-36.71,137.19,1.62,38.33,38.33,39.05,99.75,1.62,137.19Z"/>
    <path class="cls-1" d="M268.79,407.84c-37.44-37.44-47.88-186.69-47.88-186.69,0,0,149.25,10.45,186.69,47.88,37.44,37.44,36.71,98.86-1.62,137.19-38.33,38.33-99.75,39.05-137.19,1.62Z"/>
    <path class="cls-1" d="M32.56,269.03c37.44-37.44,186.69-47.88,186.69-47.88,0,0-10.45,149.25-47.88,186.69-37.44,37.44-98.86,36.71-137.19-1.62-38.33-38.33-39.05-99.75-1.62-137.19Z"/>
  </g>
  <g id="_0" data-name="0">
    <g>
      <path class="cls-2" d="M208.27,208c-14.19-1.33-39.62-4.09-66.78-8.81-52.06-9.05-88.23-21.54-101.86-35.17-16.19-16.19-24.95-37.87-24.68-61.07.27-23.28,9.61-45.29,26.29-61.97s39.33-26.3,63.01-26.3,44.12,8.77,60.04,24.68c13.63,13.63,26.12,49.8,35.17,101.86,4.72,27.17,7.48,52.6,8.81,66.78Z"/>
      <path class="cls-3" d="M104.26,24.68c20.13,0,38.93,7.73,52.96,21.75,3.53,3.53,10.6,13,18.35,36.85,5.23,16.09,9.94,36.11,14.01,59.49,3.54,20.36,5.97,39.75,7.51,54.05-14.31-1.54-33.69-3.97-54.05-7.51-69.92-12.17-90.67-26.69-96.34-32.36-14.27-14.27-21.99-33.4-21.75-53.88.24-20.66,8.54-40.2,23.36-55.02,15.07-15.07,34.93-23.37,55.94-23.37h0M104.25,4.68c-25.2,0-50.62,9.77-70.08,29.23-38.33,38.33-39.05,99.75-1.62,137.19,37.44,37.44,186.69,47.88,186.69,47.88,0,0-10.45-149.25-47.88-186.69-18.43-18.43-42.67-27.61-67.11-27.61h0Z"/>
    </g>
    <g>
      <path class="cls-2" d="M231.88,208c1.33-14.19,4.09-39.62,8.81-66.78,9.05-52.06,21.54-88.23,35.17-101.86,15.92-15.92,37.24-24.68,60.04-24.68s46.05,9.34,63.01,26.3c16.68,16.68,26.02,38.69,26.29,61.97.27,23.2-8.49,44.88-24.68,61.07-13.63,13.63-49.8,26.12-101.86,35.17-27.17,4.72-52.6,7.48-66.78,8.81Z"/>
      <path class="cls-3" d="M335.9,24.68c21,0,40.86,8.3,55.93,23.37,30.47,30.47,31.2,79.32,1.62,108.9-3.53,3.53-13,10.6-36.85,18.35-16.09,5.23-36.11,9.94-59.49,14.01-20.36,3.54-39.75,5.97-54.05,7.51,1.54-14.31,3.97-33.69,7.51-54.05,12.17-69.92,26.69-90.67,32.36-96.34,14.03-14.03,32.84-21.75,52.97-21.75h0M335.9,4.68c-24.44,0-48.68,9.18-67.11,27.61-37.44,37.44-47.88,186.69-47.88,186.69,0,0,149.25-10.45,186.69-47.88,37.44-37.44,36.71-98.86-1.62-137.19-19.46-19.46-44.87-29.23-70.08-29.23h0Z"/>
    </g>
    <g>
      <path class="cls-2" d="M335.9,425.45c-22.8,0-44.12-8.76-60.04-24.68-13.63-13.63-26.12-49.8-35.17-101.86-4.72-27.17-7.48-52.6-8.81-66.78,14.19,1.33,39.62,4.09,66.78,8.81,52.06,9.05,88.23,21.54,101.86,35.17,16.19,16.19,24.95,37.87,24.68,61.07-.27,23.29-9.61,45.29-26.29,61.97-16.96,16.96-39.33,26.3-63.01,26.3Z"/>
      <path class="cls-3" d="M243.06,243.3c14.31,1.54,33.69,3.97,54.05,7.51,69.92,12.17,90.67,26.69,96.34,32.36,14.27,14.27,21.99,33.4,21.75,53.88-.24,20.66-8.54,40.2-23.36,55.02-15.07,15.07-34.94,23.37-55.94,23.37s-38.94-7.73-52.97-21.75c-3.53-3.53-10.6-13-18.35-36.85-5.23-16.09-9.94-36.11-14.01-59.49-3.54-20.36-5.97-39.75-7.51-54.05M220.91,221.15s10.45,149.25,47.88,186.69c18.43,18.43,42.67,27.61,67.11,27.61s50.62-9.77,70.08-29.23c38.33-38.33,39.05-99.75,1.62-137.19-37.44-37.44-186.69-47.88-186.69-47.88h0Z"/>
    </g>
    <g>
      <path class="cls-2" d="M104.25,425.45c-23.67,0-46.05-9.34-63.01-26.3-16.68-16.68-26.02-38.69-26.29-61.97-.27-23.2,8.49-44.88,24.68-61.07,13.63-13.63,49.8-26.12,101.86-35.17,27.17-4.72,52.6-7.48,66.78-8.81-1.33,14.19-4.09,39.61-8.81,66.78-9.05,52.06-21.54,88.23-35.17,101.86-15.92,15.92-37.24,24.68-60.04,24.68Z"/>
      <path class="cls-3" d="M197.1,243.3c-1.54,14.31-3.97,33.69-7.51,54.05-12.17,69.92-26.69,90.67-32.36,96.34-14.03,14.03-32.84,21.75-52.97,21.75s-40.87-8.3-55.94-23.37c-30.47-30.47-31.2-79.32-1.62-108.9,3.53-3.53,13-10.6,36.85-18.35,16.09-5.23,36.11-9.94,59.49-14.01,20.36-3.54,39.75-5.97,54.05-7.51M219.25,221.15s-149.25,10.45-186.69,47.88c-37.44,37.44-36.71,98.86,1.62,137.19,19.46,19.46,44.87,29.23,70.08,29.23s48.68-9.18,67.11-27.61c37.44-37.44,47.88-186.69,47.88-186.69h0Z"/>
    </g>
  </g>
</svg>