<?xml version="1.0" encoding="utf-8"?>
<!-- Generator: Adobe Illustrator 26.0.2, SVG Export Plug-In . SVG Version: 6.00 Build 0)  -->
<svg version="1.1" id="Layer_1" xmlns="http://www.w3.org/2000/svg" xmlns:xlink="http://www.w3.org/1999/xlink" x="0px" y="0px"
	 viewBox="0 0 512 512" style="enable-background:new 0 0 512 512;" xml:space="preserve">
<style type="text/css">
	.st0{stroke:#000000;stroke-width:20;stroke-miterlimit:10;}
</style>
<path class="st0" d="M486,256c0,127-103,230-230,230c-59.3,0-113.3-22.4-154.1-59.3c-4.7-4.3-5-11.6-0.4-16.2l36.8-36.8
	c4.1-4.1,10.8-4.4,15.2-0.5c28.4,24.9,64.5,38.5,102.6,38.5c87,0,155.1-70.5,155.8-154.5c0.7-88.5-71.5-157.9-157.2-157.1
	c-39.3,0.3-76.4,15.2-105,42l38.7,38.7c14,14,4.1,38-15.7,38H48.3c-12.3,0-22.3-10-22.3-22.3V72.3c0-19.8,24-29.8,38-15.7l33.1,33.1
	c41.2-39.4,97-63.6,158.5-63.7C382.5,25.8,486,129.1,486,256z"/>
</svg>
