<svg xmlns="http://www.w3.org/2000/svg" viewBox="0 0 190 190"><g id="Layer_1_copy_2" data-name="Layer 1 copy 2"><path d="M75.7,144.38q-2.25-4.92-2.74-6.16l-3.8-8.77q-1.74-4-3-6.6l-2.3-4.67Q57.22,105,48.13,99.58q10.65-9,19-9a10.26,10.26,0,0,1,8.71,4.26q3.18,4.26,5.41,14.78Q97.42,79,106.43,67.29q8.1-10.52,13.85-13.94t15.27-3.42a41.55,41.55,0,0,1,12.94,2.3q-16.23,10.64-35.43,35T75.7,144.38Z"/></g><g id="Layer_4" data-name="Layer 4"><path d="M95,14A81,81,0,1,1,14,95,81.1,81.1,0,0,1,95,14M95,2a93,93,0,1,0,93,93A93,93,0,0,0,95,2Z"/></g></svg>