<svg id="Layer_1" data-name="Layer 1" xmlns="http://www.w3.org/2000/svg" viewBox="0 0 726.67 138.67"><defs><style>.cls-1,.cls-2{fill:#231f20;}.cls-2{fill-rule:evenodd;}</style></defs><path class="cls-1" d="M114.13,60.94c-6-5.41-7.52-12.5-7.52-18.4a24.81,24.81,0,0,1,7-17c3.73-3.73,9.39-6.66,19-6.66a53.14,53.14,0,0,1,9,.75,54.63,54.63,0,0,0,6.35.94c.68.06.8.3.8.68s-.18,1.24-.31,3.48c-.12,2-.12,5.47-.18,6.4s-.19,1.31-.56,1.31-.5-.44-.5-1.31a8.64,8.64,0,0,0-2.61-6.34c-2.18-1.87-7-3.54-12.43-3.54-8.27,0-12.13,2.42-14.3,4.54-4.54,4.35-5.6,9.88-5.6,16.22,0,11.87,9.14,22.75,22.44,22.75,4.67,0,8.33-.56,10.82-3.1a11.85,11.85,0,0,0,2.3-5.23c.13-.68.25-.93.62-.93s.44.43.44.93a65,65,0,0,1-1.37,8c-.37,1.18-.5,1.31-1.62,1.8-2.48,1-7.21,1.43-11.19,1.43C125.32,67.65,119,65.35,114.13,60.94Z"/><path class="cls-1" d="M175.72,26.06c12.31,0,21.64,7.53,21.64,19.83,0,11.82-8.77,21.57-22,21.57-15,0-21.38-11.25-21.38-20.76C154,38.19,160.62,26.06,175.72,26.06ZM177,65.29c4.91,0,14.79-2.61,14.79-17.9,0-12.68-7.71-19.34-16.35-19.34-9.14,0-15.73,5.72-15.73,17.22C159.68,57.58,167.08,65.29,177,65.29Z"/><path class="cls-1" d="M212.18,51.55c0,7.77.12,10.94,1.12,11.87s3,1.25,7.27,1.25c2.86,0,5.28-.06,6.59-1.62a6.46,6.46,0,0,0,1.3-3c.07-.37.25-.68.56-.68s.38.24.38.8a34.17,34.17,0,0,1-.81,5.29c-.37,1.24-.56,1.43-3.48,1.43-3.92,0-7-.07-9.51-.19s-4.35-.13-6-.13c-.25,0-1.18,0-2.24.07s-2.3.12-3.17.12c-.56,0-.87-.12-.87-.43a.42.42,0,0,1,.43-.44,7.42,7.42,0,0,0,1.68-.25c1.06-.25,1.18-1.24,1.43-2.8a107.91,107.91,0,0,0,.31-11.43V42.1c0-8.2,0-9.7-.12-11.37s-.44-2.68-2.24-2.92a15.66,15.66,0,0,0-1.86-.13.53.53,0,0,1-.44-.44c0-.31.25-.43.87-.43,2.49,0,5.91.12,6.22.12s4.35-.12,6-.12c.56,0,.87.12.87.43a.47.47,0,0,1-.44.38c-.37,0-1.18.06-1.8.12-1.62.31-1.93,1.12-2,3-.06,1.67-.06,3.17-.06,11.37Z"/><path class="cls-1" d="M234.91,42.1c0-8.2,0-9.7-.12-11.37s-.44-2.68-2.24-2.92a15.84,15.84,0,0,0-1.87-.13.53.53,0,0,1-.43-.44c0-.31.25-.43.87-.43,2.49,0,5.78.12,6.28.12s3.91-.12,5.53-.12c.62,0,.93.12.93.43a.54.54,0,0,1-.5.44,6.05,6.05,0,0,0-1.36.13c-1.43.24-1.74,1.18-1.87,2.92S240,33.9,240,42.1v7.4c0,7.65,1.68,10.82,4,12.93,2.67,2.42,5,2.86,8.14,2.86a11.23,11.23,0,0,0,8.46-3.73c2.54-3,3.1-7.4,3.1-12.81V42.1c0-8.2-.06-9.7-.12-11.37s-.37-2.68-2.18-2.92a15.51,15.51,0,0,0-1.86-.13.47.47,0,0,1-.44-.44c0-.31.25-.43.87-.43,2.43,0,5.6.12,5.91.12s3-.12,4.6-.12c.62,0,.87.12.87.43a.47.47,0,0,1-.43.44,6.09,6.09,0,0,0-1.37.13c-1.49.3-1.81,1.18-1.93,2.92s-.06,3.17-.06,11.37v5.66c0,5.72-.75,12.12-5.1,15.85a16.54,16.54,0,0,1-11.44,3.85c-1.8,0-7.52-.12-11.37-3.72-2.68-2.49-4.79-6.16-4.79-13.87Z"/><path class="cls-1" d="M321.27,59.94c.19,1.87.56,4.73,2.8,5.47a11.51,11.51,0,0,0,3.54.5c.25,0,.44.12.44.37s-.5.5-1.12.5c-1.24,0-7.33-.12-9.32-.31-1.31-.12-1.56-.31-1.56-.56a.46.46,0,0,1,.38-.43c.31-.07.37-.87.24-1.87l-2.61-26.73h-.12l-13.18,27c-1.12,2.3-1.43,2.8-1.93,2.8s-.8-.5-1.86-2.43c-1.43-2.61-5-9.38-6.4-12.25-1.62-3.35-6-12.24-7-14.42h-.24l-2.12,23.88c-.06.8-.06,1.8-.06,2.67a1.48,1.48,0,0,0,1.31,1.49,8.71,8.71,0,0,0,2.11.31.46.46,0,0,1,.43.37c0,.38-.37.5-1,.5-2.05,0-4.66-.19-5.1-.19s-3.11.19-4.6.19c-.56,0-.93-.12-.93-.5,0-.18.25-.37.56-.37a10.86,10.86,0,0,0,1.61-.18c1.81-.32,1.87-2.24,2.12-4.23l4-34.5c.06-.56.31-.94.62-.94a1.26,1.26,0,0,1,1.12.81L300,59.7l15.92-32.77c.25-.49.49-.87.87-.87s.68.44.8,1.44Z"/><path class="cls-1" d="M337,42.1c0-8.2,0-9.7-.13-11.37s-.44-2.8-2.24-3.05a18.17,18.17,0,0,0-1.86-.12c-.19,0-.44-.13-.44-.32s.25-.43.87-.43c2.49,0,6,.12,6.34.12,1.31,0,3.86-.12,6.41-.12,9.13,0,11.5,5.28,11.5,8.08,0,4.17-2.74,6.78-5.54,9.26,4.17,1.25,9.64,5,9.64,11s-4.41,11.75-13.74,11.75c-1,0-3-.07-4.72-.19l-3.55-.13c-.12,0-1.12.07-2.23.07s-2.43.12-3.3.12c-.56,0-.87-.12-.87-.43s.12-.32.44-.32a16,16,0,0,0,1.67-.24c1.06-.19,1.18-1.37,1.43-2.93A104.55,104.55,0,0,0,337,51.43Zm4.72,1.12c0,.37.12.5.37.56a17.1,17.1,0,0,0,3.36.25c3,0,4.23-.12,5.35-1.37A8.1,8.1,0,0,0,353,37c0-4-2.24-8.52-7.71-8.52a15.72,15.72,0,0,0-2.8.25c-.49.12-.68.25-.68.56Zm0,5.85c0,4.1,0,10.44.06,11.25.19,2.54.19,3.17,1.87,4a12.92,12.92,0,0,0,4.78.75c3.61,0,8-1.36,8-8.14a11.57,11.57,0,0,0-5.22-9.64c-1.87-1.18-3.6-1.12-4.91-1.37-.68-.12-3.42-.12-4.29-.12-.19,0-.31.12-.31.37Z"/><path class="cls-1" d="M376.45,51.43c0,5.1,0,9.26.25,11.43.18,1.56.37,2.55,2,2.8a21,21,0,0,0,2.49.25.43.43,0,0,1,.44.44c0,.24-.25.43-.87.43-3.05,0-6.59-.19-6.84-.19s-3.73.19-5.41.19c-.56,0-.87-.12-.87-.43a.42.42,0,0,1,.44-.44,7.42,7.42,0,0,0,1.67-.25c1.06-.25,1.25-1.24,1.43-2.8.25-2.17.32-6.33.32-11.43V42.1c0-8.2,0-9.7-.13-11.37s-.56-2.62-1.74-2.86a9.32,9.32,0,0,0-1.68-.19.46.46,0,0,1-.43-.44c0-.31.24-.43.87-.43,1.8,0,5.22.12,5.53.12s3.79-.12,5.47-.12c.62,0,.87.12.87.43a.53.53,0,0,1-.44.44,5.79,5.79,0,0,0-1.36.13c-1.49.3-1.81,1.05-1.93,2.92-.06,1.67-.06,3.17-.06,11.37Z"/><path class="cls-1" d="M404.74,27.87c.68-1.74.93-2.05,1.31-2.05.55,0,.74.74,1.3,1.92,1,2.24,9.76,24.06,13.12,32.08,2,4.72,3.48,5.41,4.66,5.78a7.57,7.57,0,0,0,2.17.31c.31,0,.69.12.69.44s-.62.43-1.24.43c-.81,0-4.85,0-8.65-.12-1.05-.07-1.92-.07-1.92-.38s.12-.25.37-.37a1,1,0,0,0,.5-1.43l-4.91-12.12c-.13-.25-.19-.31-.5-.31H399a.57.57,0,0,0-.56.43l-3.11,8.46a10.83,10.83,0,0,0-.81,3.54c0,1.06.94,1.43,1.87,1.43h.5c.43,0,.56.19.56.44s-.32.43-.81.43c-1.31,0-4.29-.19-4.91-.19s-3.3.19-5.54.19c-.68,0-1-.12-1-.43a.48.48,0,0,1,.49-.44,15.67,15.67,0,0,0,1.62-.12c2.49-.31,3.54-2.18,4.6-4.85Zm6.09,22c.25,0,.25-.12.19-.37L405.61,35q-.47-1.22-.93,0l-5.1,14.48c-.06.25,0,.37.19.37Z"/><path class="cls-1" d="M442.34,77.64V15.48h3.35V77.64Z"/><path class="cls-1" d="M471.72,60.94c-6-5.41-7.52-12.5-7.52-18.4a24.81,24.81,0,0,1,7-17c3.73-3.73,9.39-6.66,19-6.66a53.33,53.33,0,0,1,9,.75,54.18,54.18,0,0,0,6.34.94c.68.06.8.3.8.68s-.18,1.24-.31,3.48c-.12,2-.12,5.47-.18,6.4s-.19,1.31-.56,1.31-.5-.44-.5-1.31a8.6,8.6,0,0,0-2.61-6.34c-2.18-1.87-7-3.54-12.44-3.54-8.26,0-12.12,2.42-14.29,4.54-4.54,4.35-5.6,9.88-5.6,16.22,0,11.87,9.14,22.75,22.45,22.75,4.66,0,8.33-.56,10.81-3.1a11.85,11.85,0,0,0,2.3-5.23c.13-.68.25-.93.62-.93s.44.43.44.93a65,65,0,0,1-1.37,8c-.37,1.18-.5,1.31-1.62,1.8-2.48,1-7.2,1.43-11.18,1.43C482.91,67.65,476.63,65.35,471.72,60.94Z"/><path class="cls-1" d="M534.28,48.75c0,6,0,10.88.31,13.49.18,1.81.56,3.17,2.42,3.42a25.68,25.68,0,0,0,2.8.25c.37,0,.5.19.5.37s-.31.5-1,.5c-3.42,0-7.33-.19-7.65-.19s-4.22.19-6.09.19c-.68,0-1-.12-1-.5,0-.18.12-.37.5-.37a9.14,9.14,0,0,0,1.86-.25c1.25-.25,1.55-1.61,1.8-3.42.32-2.61.32-7.52.32-13.49V22.46l-9.2.12c-3.86.06-5.35.5-6.34,2a10.13,10.13,0,0,0-1.06,1.93c-.19.5-.38.62-.63.62s-.3-.19-.3-.56c0-.62,1.24-6,1.36-6.46s.38-1.19.63-1.19a11.12,11.12,0,0,0,2.73.75c1.8.19,4.17.31,4.91.31h23.31a24.65,24.65,0,0,0,4.42-.31c.93-.12,1.49-.31,1.74-.31s.31.37.31.75c0,1.86-.19,6.15-.19,6.83s-.19.81-.43.81-.44-.18-.5-1l-.06-.69c-.19-1.86-1.68-3.29-7.65-3.42l-7.83-.12Z"/><path class="cls-1" d="M568,48.88c0,9.14.25,13.12,1.37,14.23s2.61,1.43,7.46,1.43c3.3,0,6-.06,7.52-1.86A8.67,8.67,0,0,0,586,59c.06-.5.19-.81.56-.81s.37.25.37.93a39.19,39.19,0,0,1-.93,6.22c-.44,1.43-.62,1.68-3.92,1.68-4.47,0-7.71-.13-10.31-.19s-4.54-.19-6.34-.19c-.26,0-1.31.07-2.55.07s-2.61.12-3.55.12c-.68,0-1-.12-1-.5,0-.18.12-.37.49-.37a9.23,9.23,0,0,0,1.87-.25c1.24-.25,1.56-1.61,1.8-3.42.31-2.61.31-7.52.31-13.49V37.81c0-9.7,0-11.43-.12-13.42S562,21.28,560,20.84a11.93,11.93,0,0,0-2.11-.18c-.25,0-.5-.13-.5-.38s.32-.5,1-.5c2.8,0,6.71.19,7,.19s4.84-.19,6.71-.19c.68,0,1,.13,1,.5s-.25.38-.49.38a15,15,0,0,0-2.05.18c-1.81.31-2.31,1.37-2.43,3.55-.13,2-.13,3.72-.13,13.42Z"/><path class="cls-1" d="M110.66,95.35a20.32,20.32,0,0,1,12.74-4,36.67,36.67,0,0,1,8.36,1.13,3.31,3.31,0,0,0,1.32.19c0,1.09.28,4.06.66,6.94a1,1,0,0,1-1.28.1c-.7-3.21-2.83-6.89-9.67-6.89-7.22,0-13.36,4.57-13.36,14.35s6.28,15.38,14,15.38a10,10,0,0,0,9.86-6.75,1,1,0,0,1,1.23.19,17.9,17.9,0,0,1-2.26,6.47,9.05,9.05,0,0,0-1.66.47,27.56,27.56,0,0,1-7.45,1.09,20.65,20.65,0,0,1-11.76-3.17,15.2,15.2,0,0,1-6.7-13A15.68,15.68,0,0,1,110.66,95.35Z"/><path class="cls-1" d="M142.12,111.17c-1.22,0-1.27.09-1.27,1.27,0,4.77,2.78,8.83,7.84,8.83A5.09,5.09,0,0,0,153,119a.63.63,0,0,1,.85.56,8.26,8.26,0,0,1-7.41,4.39,8.48,8.48,0,0,1-6.85-3.11,10.06,10.06,0,0,1-2-6.14c0-5.8,3.82-10.67,9.49-10.67,4.06,0,6.7,2.79,6.7,5.62a2.84,2.84,0,0,1-.19,1.23c-.14.28-.8.33-2.78.33Zm2.93-1.42c3.49,0,4.53-.19,4.91-.47.14-.09.28-.28.28-.9,0-1.32-.89-3-3.63-3s-5.19,2.55-5.24,4.1c0,.1,0,.24.33.24Z"/><path class="cls-1" d="M158.9,109.7c0-1.84,0-2.07-1.27-2.92l-.43-.29a.65.65,0,0,1,.05-.84,25.52,25.52,0,0,0,4.72-2.32.56.56,0,0,1,.52.33c-.09,1.09-.09,1.8-.09,2.22a.5.5,0,0,0,.52.52c2-1.23,4.2-2.41,6.6-2.41,3.92,0,5.53,2.69,5.53,5.86V118c0,3.39.09,3.87,1.79,4.1l1,.14a.83.83,0,0,1-.09,1.18c-1.42-.09-2.79-.14-4.44-.14s-3.12,0-4.39.14a.83.83,0,0,1-.1-1.18l.9-.14c1.75-.28,1.8-.71,1.8-4.1v-7c0-2.69-1.23-4.67-4.44-4.67a5.12,5.12,0,0,0-4,1.65,3.94,3.94,0,0,0-.71,2.83V118c0,3.39.09,3.82,1.79,4.1l.85.14a.83.83,0,0,1-.09,1.18c-1.28-.09-2.65-.14-4.3-.14s-3.12,0-4.44.14a.83.83,0,0,1-.09-1.18l1-.14c1.75-.23,1.79-.71,1.79-4.1Z"/><path class="cls-1" d="M186.27,106.64c-.8,0-.85.14-.85,1.13v8.83c0,2.73.33,5.24,3.45,5.24a3.63,3.63,0,0,0,1.27-.24c.42-.14,1-.66,1.18-.66.38,0,.57.52.47.8a6.54,6.54,0,0,1-4.95,2.17c-4.06,0-4.91-2.26-4.91-5.09V108c0-1.27-.05-1.36-1-1.36h-1.33a.79.79,0,0,1-.14-1,9.31,9.31,0,0,0,3-1.47,11.66,11.66,0,0,0,2-2.78c.23-.1.8-.1,1,.23v2.13c0,.85,0,.89.85.89h5.24a1.52,1.52,0,0,1,0,2Z"/><path class="cls-1" d="M198,111.17c-1.22,0-1.27.09-1.27,1.27,0,4.77,2.78,8.83,7.83,8.83a5.1,5.1,0,0,0,4.35-2.31.63.63,0,0,1,.85.56,8.26,8.26,0,0,1-7.41,4.39,8.48,8.48,0,0,1-6.85-3.11,10,10,0,0,1-2-6.14c0-5.8,3.82-10.67,9.49-10.67,4.06,0,6.7,2.79,6.7,5.62a2.84,2.84,0,0,1-.19,1.23c-.14.28-.8.33-2.78.33Zm2.93-1.42c3.49,0,4.53-.19,4.91-.47.14-.09.28-.28.28-.9,0-1.32-.89-3-3.63-3s-5.2,2.55-5.24,4.1c0,.1,0,.24.33.24Z"/><path class="cls-1" d="M214.71,109.7c0-1.84,0-2.07-1.28-2.92l-.42-.29a.64.64,0,0,1,0-.84,36.45,36.45,0,0,0,4.77-2.32c.24,0,.38.14.38.33v2.74c0,.24.05.38.14.43,1.65-1.37,3.45-2.84,5.19-2.84a2,2,0,0,1,2.13,1.89,2.09,2.09,0,0,1-2,2.17,1.81,1.81,0,0,1-1-.33,3.89,3.89,0,0,0-2.08-.75,2.1,2.1,0,0,0-1.7.94,7.22,7.22,0,0,0-.61,3.64V118c0,3.39.09,4,1.89,4.1l1.7.14a.83.83,0,0,1-.1,1.18c-2.22-.09-3.58-.14-5.24-.14s-3.11,0-4.34.14a.83.83,0,0,1-.09-1.18l.89-.14c1.75-.28,1.8-.71,1.8-4.1Z"/><path class="cls-1" d="M246.34,106.64c-.8,0-.8.09-.8,1.36v10c0,3.39.09,4,1.79,4.1l1.7.14a.82.82,0,0,1-.1,1.18c-2.12-.09-3.49-.14-5.14-.14s-3.12,0-4.53.14a.83.83,0,0,1-.1-1.18l1.09-.14c1.75-.23,1.79-.71,1.79-4.1V108c0-1.27,0-1.36-.94-1.36h-1.65a.66.66,0,0,1-.14-.9l2-1a1.07,1.07,0,0,0,.71-1,21.1,21.1,0,0,1,1.47-8.31c1.18-2.68,3.82-6,8.49-6,2.51,0,4.63,1.13,4.63,2.83a1.8,1.8,0,0,1-1.79,1.7,1.35,1.35,0,0,1-1.14-.57,5.28,5.28,0,0,0-3.77-2.07,3.65,3.65,0,0,0-3.36,2.6,25.27,25.27,0,0,0-1,8v1.37c0,1.28,0,1.32.8,1.32h5.38a1.46,1.46,0,0,1-.33,2Z"/><path class="cls-1" d="M272.18,113.77c0,5.9-4.06,10.14-10,10.14a9.33,9.33,0,0,1-9.68-9.72A9.93,9.93,0,0,1,262.6,104,9.44,9.44,0,0,1,272.18,113.77ZM262,105.41c-3.11,0-5.43,3-5.43,8.17,0,4.29,1.94,8.92,6.09,8.92s5.43-4.35,5.43-8C268.12,110.51,266.52,105.41,262,105.41Z"/><path class="cls-1" d="M277.54,109.7c0-1.84,0-2.07-1.27-2.92l-.43-.29a.63.63,0,0,1,.05-.84,36.45,36.45,0,0,0,4.77-2.32c.23,0,.38.14.38.33v2.74c0,.24,0,.38.14.43,1.65-1.37,3.44-2.84,5.19-2.84a2,2,0,0,1,2.12,1.89,2.09,2.09,0,0,1-2,2.17,1.78,1.78,0,0,1-1-.33,3.89,3.89,0,0,0-2.08-.75,2.09,2.09,0,0,0-1.7.94,7.22,7.22,0,0,0-.61,3.64V118c0,3.39.09,4,1.88,4.1l1.7.14a.83.83,0,0,1-.09,1.18c-2.22-.09-3.59-.14-5.24-.14s-3.12,0-4.34.14a.83.83,0,0,1-.1-1.18l.9-.14c1.75-.28,1.79-.71,1.79-4.1Z"/><path class="cls-1" d="M317.77,116.17c0,5,.09,5.67,2.83,5.9l1.51.14c.28.19.19,1-.1,1.18-2.69-.09-4.29-.14-6.18-.14s-3.54,0-6.56.14a.82.82,0,0,1,0-1.18l1.7-.14c2.69-.23,2.93-.94,2.93-5.9V95.07c0-1.46,0-1.51-1.42-1.51h-2.6c-2,0-4.62.09-5.8,1.18A8.58,8.58,0,0,0,302,98a.93.93,0,0,1-1.23-.33,49.29,49.29,0,0,0,1.8-7,1.22,1.22,0,0,1,.9,0c.28,1.51,1.84,1.47,4,1.47h19.12c2.55,0,3-.1,3.68-1.33.23-.09.75,0,.85.15a28.54,28.54,0,0,0-.71,7.17.89.89,0,0,1-1.23.1c-.14-1.18-.47-2.93-1.18-3.45-1.08-.8-2.88-1.18-5.47-1.18h-3.35c-1.42,0-1.37,0-1.37,1.6Z"/><path class="cls-1" d="M332.9,111.17c-1.22,0-1.27.09-1.27,1.27,0,4.77,2.79,8.83,7.84,8.83a5.08,5.08,0,0,0,4.34-2.31.63.63,0,0,1,.85.56,8.26,8.26,0,0,1-7.41,4.39,8.48,8.48,0,0,1-6.85-3.11,10.06,10.06,0,0,1-2-6.14c0-5.8,3.82-10.67,9.49-10.67,4.06,0,6.7,2.79,6.7,5.62a2.84,2.84,0,0,1-.19,1.23c-.14.28-.8.33-2.78.33Zm2.93-1.42c3.49,0,4.53-.19,4.91-.47.14-.09.29-.28.29-.9,0-1.32-.9-3-3.64-3s-5.19,2.55-5.24,4.1c0,.1,0,.24.33.24Z"/><path class="cls-1" d="M356.94,113.48c.71-.23.8-.66.8-1.37l.05-2.17c0-1.75-.52-4.1-3.45-4.1-1.32,0-2.92.65-3,2.12,0,.75-.09,1.32-.47,1.6a5.05,5.05,0,0,1-2.69.9.6.6,0,0,1-.66-.66c0-2.46,5.33-5.81,8.78-5.81s5.05,2,4.91,5.52l-.28,8.22c-.1,2.17.33,4.11,2.17,4.11a2.63,2.63,0,0,0,1.18-.29c.23-.14.47-.33.61-.33s.33.29.33.62a5,5,0,0,1-4,2.07,3.75,3.75,0,0,1-3.07-1.46c-.19-.28-.47-.66-.76-.66a7.1,7.1,0,0,0-1.84.94,7,7,0,0,1-3.4,1.18,4.86,4.86,0,0,1-3.3-1.08,4.41,4.41,0,0,1-1.46-3.31c0-1.84.89-2.92,3.91-4ZM354,121.79a5.33,5.33,0,0,0,2.88-1.18c.57-.57.57-1.23.62-2.22l.09-2.78c0-.52-.19-.62-.47-.62a9.14,9.14,0,0,0-1.94.47c-2.78,1-4.15,1.66-4.15,3.5A2.85,2.85,0,0,0,354,121.79Z"/><path class="cls-1" d="M382.06,104.79a2.74,2.74,0,0,1,.71,1.89c0,.85-.48,1.75-1,1.75a.79.79,0,0,1-.66-.33,6.46,6.46,0,0,0-4.72-2.5c-3.31,0-6.52,2.59-6.52,7.6,0,3.68,2.55,8.07,7.6,8.07a5.77,5.77,0,0,0,5.24-2.83.74.74,0,0,1,.85.66,8.6,8.6,0,0,1-7.88,4.81,9.17,9.17,0,0,1-6.47-2.4,9.42,9.42,0,0,1-2.74-7c0-5.1,3.59-10.53,11.43-10.53A12,12,0,0,1,382.06,104.79Z"/><path class="cls-1" d="M387.91,96.63c0-2.79,0-3.07-1.46-3.92l-.47-.28a.72.72,0,0,1,0-1,32.4,32.4,0,0,0,5.1-2,.53.53,0,0,1,.47.28c-.05,1.42-.14,3.78-.14,5.86v9.91c0,.43,0,.8.19.9A10.73,10.73,0,0,1,398,104c4.48,0,6.09,2.79,6.09,6.09V118c0,3.39.09,3.91,1.79,4.1l1.28.14a.83.83,0,0,1-.1,1.18c-1.7-.09-3.07-.14-4.72-.14s-3.11,0-4.39.14a.83.83,0,0,1-.09-1.18l.94-.14c1.75-.28,1.8-.71,1.8-4.1v-6.76c0-3-1.47-5-4.49-5a5.65,5.65,0,0,0-3.68,1.28c-.85.71-1,.94-1,2.59V118c0,3.39.09,3.87,1.79,4.1l1,.14c.33.19.24,1-.09,1.18-1.42-.09-2.79-.14-4.44-.14s-3.12,0-4.63.14a.83.83,0,0,1-.09-1.18l1.18-.14c1.75-.19,1.79-.71,1.79-4.1Z"/><path class="cls-1" d="M413.07,109.7c0-1.84,0-2.07-1.28-2.92l-.43-.29a.65.65,0,0,1,.05-.84,32,32,0,0,0,4.86-2.32.45.45,0,0,1,.48.29c-.1,1.65-.19,3.91-.19,5.85V118c0,3.39.09,3.87,1.79,4.1l1,.14a.83.83,0,0,1-.09,1.18c-1.42-.09-2.79-.14-4.44-.14s-3.12,0-4.44.14a.83.83,0,0,1-.09-1.18l1-.14c1.75-.23,1.8-.71,1.8-4.1ZM417,96.25a2.46,2.46,0,0,1-4.91.1,2.46,2.46,0,0,1,2.55-2.55A2.35,2.35,0,0,1,417,96.25Z"/><path class="cls-1" d="M425.39,109.7c0-1.84,0-2.07-1.27-2.92l-.43-.29a.63.63,0,0,1,.05-.84,25.83,25.83,0,0,0,4.72-2.32.56.56,0,0,1,.52.33c-.09,1.09-.09,1.8-.09,2.22a.49.49,0,0,0,.51.52c2-1.23,4.21-2.41,6.61-2.41,3.92,0,5.53,2.69,5.53,5.86V118c0,3.39.09,3.87,1.79,4.1l1,.14a.82.82,0,0,1-.1,1.18c-1.41-.09-2.78-.14-4.43-.14s-3.12,0-4.39.14a.83.83,0,0,1-.1-1.18l.9-.14c1.75-.28,1.79-.71,1.79-4.1v-7c0-2.69-1.22-4.67-4.43-4.67a5.16,5.16,0,0,0-4,1.65,4,4,0,0,0-.7,2.83V118c0,3.39.09,3.82,1.79,4.1l.85.14a.82.82,0,0,1-.1,1.18c-1.27-.09-2.64-.14-4.29-.14s-3.12,0-4.44.14a.83.83,0,0,1-.09-1.18l1-.14c1.75-.23,1.79-.71,1.79-4.1Z"/><path class="cls-1" d="M466.56,105.69c.52.24.42,1.84-.29,1.94h-3.4a19.27,19.27,0,0,1,.1,2.4c0,3.26-1.94,7.51-7.93,7.51-.85,0-1.51-.09-2.08-.14-.57.33-2.08,1.23-2.08,2.6,0,1.08,1.09,2,3.31,2,1.6,0,3.54-.14,5.61-.14,2.65,0,6.61.47,6.61,5.19,0,5.14-5.61,8.92-11.75,8.92-5.81,0-7.84-3.11-7.84-5.48a2.66,2.66,0,0,1,.52-1.74c.8-.85,2.13-2.08,3.21-3.17.43-.42.8-.84.38-1.13-1.84-.47-3.45-2.08-3.45-3.73,0-.23.19-.42.71-.8a14.3,14.3,0,0,0,2.5-2.17,1.81,1.81,0,0,0,.48-.9,6.4,6.4,0,0,1-3.54-5.71c0-4.06,3.49-7.13,7.69-7.13a11.61,11.61,0,0,1,4.53,1,5.64,5.64,0,0,0,2.88.75Zm-9.87,19.07c-1.51,0-3.4.1-4.06.52a4.83,4.83,0,0,0-2.27,4c0,2.54,2,4.67,6.33,4.67s7-2.36,7-5c0-2.88-2-4.11-5.39-4.11Zm2.93-13.5c0-3.21-1.33-5.9-4.21-5.9-2.26,0-4,2.08-4,5.29s2,5.52,4.3,5.52C458.29,116.17,459.62,114.14,459.62,111.26Z"/><path class="cls-1" d="M489.55,113.48c.71-.23.8-.66.8-1.37l0-2.17c0-1.75-.52-4.1-3.45-4.1-1.32,0-2.92.65-3,2.12,0,.75-.09,1.32-.47,1.6a5.05,5.05,0,0,1-2.69.9.6.6,0,0,1-.66-.66c0-2.46,5.33-5.81,8.78-5.81s5.05,2,4.91,5.52l-.29,8.22c-.09,2.17.33,4.11,2.17,4.11a2.56,2.56,0,0,0,1.18-.29c.24-.14.48-.33.62-.33s.33.29.33.62a5,5,0,0,1-4,2.07,3.78,3.78,0,0,1-3.07-1.46c-.19-.28-.47-.66-.75-.66a7.1,7.1,0,0,0-1.84.94,7,7,0,0,1-3.4,1.18,4.86,4.86,0,0,1-3.3-1.08,4.42,4.42,0,0,1-1.47-3.31c0-1.84.9-2.92,3.92-4Zm-2.93,8.31a5.36,5.36,0,0,0,2.88-1.18c.57-.57.57-1.23.61-2.22l.1-2.78c0-.52-.19-.62-.47-.62a9,9,0,0,0-1.94.47c-2.78,1-4.15,1.66-4.15,3.5A2.84,2.84,0,0,0,486.62,121.79Z"/><path class="cls-1" d="M503,109.7c0-1.84,0-2.07-1.27-2.92l-.43-.29a.63.63,0,0,1,.05-.84,25.52,25.52,0,0,0,4.72-2.32.56.56,0,0,1,.52.33c-.09,1.09-.09,1.8-.09,2.22a.5.5,0,0,0,.52.52c2-1.23,4.2-2.41,6.61-2.41,3.91,0,5.52,2.69,5.52,5.86V118c0,3.39.09,3.87,1.79,4.1l1,.14a.83.83,0,0,1-.09,1.18c-1.42-.09-2.79-.14-4.44-.14s-3.12,0-4.39.14a.83.83,0,0,1-.1-1.18l.9-.14c1.74-.28,1.79-.71,1.79-4.1v-7c0-2.69-1.22-4.67-4.43-4.67a5.14,5.14,0,0,0-4,1.65,4,4,0,0,0-.7,2.83V118c0,3.39.09,3.82,1.79,4.1l.85.14a.83.83,0,0,1-.09,1.18c-1.28-.09-2.65-.14-4.3-.14s-3.12,0-4.44.14a.83.83,0,0,1-.09-1.18l1-.14c1.74-.23,1.79-.71,1.79-4.1Z"/><path class="cls-1" d="M542.34,116.36c0,3.73,0,5.48,1.37,5.48a7.62,7.62,0,0,0,2-.48c.33.1.38,1.28,0,1.51a36,36,0,0,0-6.23,1.52c-.29,0-.52-.15-.52-.38v-.8a5,5,0,0,0-.1-1.47h-.18a9.81,9.81,0,0,1-5.95,2.17c-5.24,0-8.73-4.1-8.73-9.06,0-6.61,5-10.86,11.42-10.86a9.56,9.56,0,0,1,3.16.43c.24,0,.28-.28.28-.66V96.63c0-2.79,0-3.07-1.46-3.92l-.47-.28a.74.74,0,0,1,0-1,32.4,32.4,0,0,0,5.1-2,.55.55,0,0,1,.47.28c-.05,1.42-.14,3.78-.14,5.86Zm-3.5-7.08a2.77,2.77,0,0,0-.51-1.84,4.94,4.94,0,0,0-4-2c-4.29,0-6.51,3.73-6.51,7.83,0,4.3,2.41,8.36,7,8.36a5.79,5.79,0,0,0,3.63-1.32,2.85,2.85,0,0,0,.33-1.75Z"/><path class="cls-1" d="M564.2,99.18c0-5-.09-5.72-3.07-6l-1.18-.1c-.28-.18-.18-1,.1-1.18,2.64.1,4.25.15,6.13.15s3.45,0,5.81-.15c.28.15.38,1,.09,1.18l-1.13.1c-2.78.23-2.88,1-2.88,6v16.43c0,3,.14,4.2,1,5.09.52.52,1.42,1.09,5.15,1.09,4,0,5-.19,5.76-.61.94-.57,2.17-2.27,3.11-4.68.29-.23,1.18,0,1.18.29a37.69,37.69,0,0,1-2,6.6c-2.41-.09-6.89-.14-11.75-.14h-4.35c-2,0-3.49,0-6.13.14a.92.92,0,0,1-.1-1.18l1.42-.14c2.74-.28,2.83-.94,2.83-5.9Z"/><path class="cls-1" d="M591.33,111.17c-1.23,0-1.27.09-1.27,1.27,0,4.77,2.78,8.83,7.83,8.83a5.08,5.08,0,0,0,4.34-2.31.62.62,0,0,1,.85.56,8.23,8.23,0,0,1-7.41,4.39,8.46,8.46,0,0,1-6.84-3.11,10,10,0,0,1-2-6.14c0-5.8,3.83-10.67,9.49-10.67,4.06,0,6.71,2.79,6.71,5.62a2.84,2.84,0,0,1-.19,1.23c-.14.28-.81.33-2.79.33Zm2.93-1.42c3.49,0,4.53-.19,4.91-.47.14-.09.28-.28.28-.9,0-1.32-.9-3-3.64-3s-5.19,2.55-5.24,4.1c0,.1,0,.24.33.24Z"/><path class="cls-1" d="M615.37,113.48c.7-.23.8-.66.8-1.37l.05-2.17c0-1.75-.52-4.1-3.45-4.1-1.32,0-2.93.65-3,2.12,0,.75-.1,1.32-.47,1.6a5.08,5.08,0,0,1-2.7.9.6.6,0,0,1-.66-.66c0-2.46,5.34-5.81,8.78-5.81s5.06,2,4.91,5.52l-.28,8.22c-.1,2.17.33,4.11,2.17,4.11a2.56,2.56,0,0,0,1.18-.29c.24-.14.48-.33.62-.33s.33.29.33.62a5,5,0,0,1-4,2.07,3.78,3.78,0,0,1-3.07-1.46c-.19-.28-.47-.66-.75-.66a7.1,7.1,0,0,0-1.84.94,7,7,0,0,1-3.4,1.18,4.88,4.88,0,0,1-3.31-1.08,4.45,4.45,0,0,1-1.46-3.31c0-1.84.9-2.92,3.92-4Zm-2.93,8.31a5.36,5.36,0,0,0,2.88-1.18c.57-.57.57-1.23.61-2.22l.09-2.78c0-.52-.18-.62-.46-.62a9,9,0,0,0-1.94.47c-2.79,1-4.16,1.66-4.16,3.5A2.85,2.85,0,0,0,612.44,121.79Z"/><path class="cls-1" d="M628.74,109.7c0-1.84,0-2.07-1.27-2.92l-.43-.29a.63.63,0,0,1,.05-.84,36.45,36.45,0,0,0,4.77-2.32c.23,0,.38.14.38.33v2.74c0,.24,0,.38.14.43,1.65-1.37,3.44-2.84,5.19-2.84a2,2,0,0,1,2.12,1.89,2.09,2.09,0,0,1-2,2.17,1.84,1.84,0,0,1-1-.33,3.84,3.84,0,0,0-2.07-.75,2.07,2.07,0,0,0-1.7.94,7.22,7.22,0,0,0-.61,3.64V118c0,3.39.09,4,1.89,4.1l1.69.14a.83.83,0,0,1-.09,1.18c-2.22-.09-3.59-.14-5.24-.14s-3.12,0-4.34.14a.83.83,0,0,1-.1-1.18l.9-.14c1.74-.28,1.79-.71,1.79-4.1Z"/><path class="cls-1" d="M644.49,109.7c0-1.84,0-2.07-1.28-2.92l-.42-.29a.64.64,0,0,1,0-.84,25.52,25.52,0,0,0,4.72-2.32.58.58,0,0,1,.53.33c-.1,1.09-.1,1.8-.1,2.22a.5.5,0,0,0,.52.52c2-1.23,4.2-2.41,6.61-2.41,3.92,0,5.52,2.69,5.52,5.86V118c0,3.39.1,3.87,1.8,4.1l1,.14a.83.83,0,0,1-.09,1.18c-1.42-.09-2.79-.14-4.44-.14s-3.11,0-4.39.14a.83.83,0,0,1-.09-1.18l.89-.14c1.75-.28,1.8-.71,1.8-4.1v-7c0-2.69-1.23-4.67-4.44-4.67a5.14,5.14,0,0,0-4,1.65,4,4,0,0,0-.71,2.83V118c0,3.39.1,3.82,1.79,4.1l.85.14a.83.83,0,0,1-.09,1.18c-1.28-.09-2.64-.14-4.3-.14s-3.11,0-4.43.14a.83.83,0,0,1-.1-1.18l1-.14c1.75-.23,1.8-.71,1.8-4.1Z"/><path class="cls-1" d="M669.51,109.7c0-1.84,0-2.07-1.27-2.92l-.43-.29a.65.65,0,0,1,.05-.84,32,32,0,0,0,4.86-2.32.45.45,0,0,1,.48.29c-.1,1.65-.19,3.91-.19,5.85V118c0,3.39.09,3.87,1.79,4.1l1,.14a.83.83,0,0,1-.09,1.18c-1.42-.09-2.79-.14-4.44-.14s-3.12,0-4.44.14a.83.83,0,0,1-.09-1.18l1-.14c1.75-.23,1.79-.71,1.79-4.1Zm3.92-13.45a2.46,2.46,0,0,1-4.91.1,2.45,2.45,0,0,1,2.55-2.55A2.35,2.35,0,0,1,673.43,96.25Z"/><path class="cls-1" d="M681.84,109.7c0-1.84,0-2.07-1.27-2.92l-.43-.29a.63.63,0,0,1,.05-.84,25.52,25.52,0,0,0,4.72-2.32.56.56,0,0,1,.52.33c-.09,1.09-.09,1.8-.09,2.22a.5.5,0,0,0,.51.52c2-1.23,4.21-2.41,6.61-2.41,3.92,0,5.53,2.69,5.53,5.86V118c0,3.39.09,3.87,1.79,4.1l1,.14a.83.83,0,0,1-.1,1.18c-1.41-.09-2.78-.14-4.43-.14s-3.12,0-4.39.14a.83.83,0,0,1-.1-1.18l.9-.14c1.74-.28,1.79-.71,1.79-4.1v-7c0-2.69-1.22-4.67-4.43-4.67a5.14,5.14,0,0,0-4,1.65,4,4,0,0,0-.7,2.83V118c0,3.39.09,3.82,1.79,4.1l.85.14a.83.83,0,0,1-.1,1.18c-1.27-.09-2.64-.14-4.29-.14s-3.12,0-4.44.14a.83.83,0,0,1-.09-1.18l1-.14c1.74-.23,1.79-.71,1.79-4.1Z"/><path class="cls-1" d="M723,105.69c.52.24.43,1.84-.28,1.94h-3.4a19.27,19.27,0,0,1,.1,2.4c0,3.26-1.94,7.51-7.93,7.51-.85,0-1.51-.09-2.08-.14-.57.33-2.08,1.23-2.08,2.6,0,1.08,1.09,2,3.31,2,1.6,0,3.54-.14,5.61-.14,2.65,0,6.61.47,6.61,5.19,0,5.14-5.61,8.92-11.75,8.92-5.81,0-7.84-3.11-7.84-5.48a2.66,2.66,0,0,1,.52-1.74c.81-.85,2.13-2.08,3.21-3.17.43-.42.81-.84.38-1.13-1.84-.47-3.45-2.08-3.45-3.73,0-.23.19-.42.71-.8a14.67,14.67,0,0,0,2.5-2.17,1.81,1.81,0,0,0,.48-.9,6.4,6.4,0,0,1-3.55-5.71c0-4.06,3.5-7.13,7.7-7.13a11.65,11.65,0,0,1,4.53,1,5.64,5.64,0,0,0,2.88.75Zm-9.86,19.07c-1.51,0-3.4.1-4.06.52a4.85,4.85,0,0,0-2.27,4c0,2.54,2,4.67,6.33,4.67s7-2.36,7-5c0-2.88-2-4.11-5.38-4.11Zm2.93-13.5c0-3.21-1.33-5.9-4.21-5.9-2.26,0-4,2.08-4,5.29s2,5.52,4.29,5.52C714.74,116.17,716.07,114.14,716.07,111.26Z"/><rect class="cls-1" x="13.75" y="62.49" width="59.51" height="4.9"/><path class="cls-2" d="M80.65,22.07c-6.36-6.24-17.55-2.34-30.23,1.72a2.25,2.25,0,0,1-2.1-.49,11,11,0,0,0-1.71-1.19,6.09,6.09,0,0,0-2.16-11.26L46.69,8a.9.9,0,0,0,0-1L43.91,3.33a.48.48,0,0,0-.81,0L40.32,6.92a.9.9,0,0,0,0,1l2.24,2.89A6.09,6.09,0,0,0,40.4,22.11a11.05,11.05,0,0,0-1.72,1.19,2.24,2.24,0,0,1-2.1.49c-12.67-4.06-23.86-8-30.22-1.72-7.62,7.47,1.25,19.56,4,24.53,1.95,3.49,3.34,7.55,3.34,10.78H73.27c0-3.23,1.38-7.29,3.34-10.78C79.4,41.63,88.27,29.54,80.65,22.07ZM34.44,53.25c-2.31.16-4.21-2-4.94-4.89l1.89-4.42a1.1,1.1,0,0,0-.25-1.26l-6-6c-.34-.34-.65-.36-.82,0l-2.82,6a1.12,1.12,0,0,0,.32,1.25l4.46,4.51c.94,3.55-1.47,4.84-2.83,4.84-4.74,0-8.52-6.44-12.4-13.12S5.93,28.8,8.8,25.18c4.79-6,17.36-1.26,27.13,3.2A10.51,10.51,0,0,0,37,33.33C42.19,44.82,38.72,53,34.44,53.25ZM75.93,40.16c-3.87,6.68-7.66,13.12-12.4,13.12-1.35,0-3.76-1.29-2.83-4.84l4.47-4.51a1.14,1.14,0,0,0,.32-1.25l-2.83-6c-.16-.36-.47-.34-.81,0l-6,6a1.1,1.1,0,0,0-.25,1.26l1.88,4.42c-.72,2.91-2.63,5-4.93,4.89C48.29,53,44.81,44.82,50,33.33a10.61,10.61,0,0,0,1.1-4.95c9.77-4.46,22.35-9.24,27.14-3.2C81.08,28.8,79.74,33.6,75.93,40.16Z"/></svg>