<svg id="Layer_1" data-name="Layer 1" xmlns="http://www.w3.org/2000/svg" viewBox="0 0 5505.96 671.92"><defs><style>.cls-1{fill:#231f20;}</style></defs><path class="cls-1" d="M883.45,343.68c3.75-12.75,8.25-45.38,8.25-48,0-3-.75-5.62-2.62-5.62-2.25,0-3,1.5-3.75,5.62-1.13,6.75-6,23.25-13.88,31.5-15,15.38-37.13,18.76-65.25,18.76-80.26,0-135.38-65.63-135.38-137.26,0-38.26,6.37-71.63,33.75-97.88C717.69,98,740.94,83.41,790.82,83.41c33,0,61.88,10.13,75,21.38,9.75,8.25,15.75,23.62,15.75,38.25,0,5.25.37,7.87,3,7.87,2.25,0,3-2.25,3.37-7.87s.38-26.25,1.13-38.63c.75-13.49,1.87-18,1.87-21,0-2.25-.75-3.74-4.87-4.12-12-.76-24-3-38.26-5.63-18.37-3.37-39.37-4.5-54.37-4.5-57.76,0-91.88,17.63-114.38,40.12-33.38,33.39-42,77.27-42,102.39,0,35.63,9,78.38,45.37,111,29.63,26.62,67.5,40.51,123.76,40.51,24,0,52.5-2.63,67.5-8.63C880.45,351.55,881.2,350.8,883.45,343.68Zm309.34-111.76c0-74.26-56.25-119.63-130.51-119.63-91.13,0-130.88,73.12-130.88,124.5,0,57.38,38.63,125.26,129,125.26C1139.91,362.05,1192.79,303.17,1192.79,231.92Zm-227.26-3.75c0-69.38,39.75-103.88,94.88-103.88,52.13,0,98.63,40.13,98.63,116.63,0,92.25-59.63,108-89.26,108C1010.16,348.92,965.53,302.42,965.53,228.17Zm310.84,128.64c9.75,0,21,.37,36,.74,15.37.74,33.75,1.13,57.37,1.13,17.63,0,18.75-1.13,21-8.62,2.62-9.39,4.87-28.51,4.87-31.89s-.75-4.87-2.25-4.87c-1.88,0-3,1.88-3.37,4.13-1.13,6.37-3.76,13.12-7.88,18-7.88,9.38-22.5,9.75-39.75,9.75-25.88,0-38.63-2.25-43.88-7.49-6-5.64-6.75-24.76-6.75-71.63V209c0-49.5,0-58.5.38-68.62.75-11.26,2.62-16.13,12.37-18,3.75-.37,8.62-.75,10.87-.75,1.13,0,2.63-1.12,2.63-2.24,0-1.88-1.87-2.63-5.25-2.63-10.12,0-34.87.75-36.37.75-1.88,0-22.51-.75-37.51-.75-3.75,0-5.25.75-5.25,2.63a3.19,3.19,0,0,0,2.63,2.62,105,105,0,0,1,11.25.75c10.87,1.5,12.75,6.75,13.5,17.63.75,10.12.75,19.12.75,68.62V265.3c0,30.75,0,55.87-1.87,69-1.51,9.38-2.26,15.37-8.63,16.87a46.63,46.63,0,0,1-10.13,1.5,2.55,2.55,0,0,0-2.62,2.63c0,1.88,1.88,2.62,5.25,2.62,5.25,0,12.37-.37,19.12-.74C1269.24,356.81,1274.86,356.81,1276.37,356.81Zm387.35-237.39c0-1.88-1.5-2.63-5.25-2.63-9.75,0-25.5.75-27.75.75-1.88,0-21-.75-35.63-.75-3.75,0-5.25.75-5.25,2.63a2.82,2.82,0,0,0,2.63,2.62,105.15,105.15,0,0,1,11.25.75c10.87,1.5,12.75,7.5,13.12,17.63s.75,19.12.75,68.62v40.12c0,32.63-3.38,58.88-18.75,77.26-11.25,13.5-30.75,22.5-51,22.5-18.75,0-33-2.62-49.13-17.25-14.25-12.75-24.38-31.87-24.38-78V209c0-49.5,0-58.5.76-68.62.74-10.51,2.62-16.13,11.25-17.63a38.51,38.51,0,0,1,8.25-.75,3.22,3.22,0,0,0,3-2.62c0-1.88-1.88-2.63-5.63-2.63-9.75,0-30.38.75-33.37.75s-22.88-.75-37.88-.75c-3.76,0-5.25.75-5.25,2.63a3.17,3.17,0,0,0,2.62,2.62,105.16,105.16,0,0,1,11.26.75c10.87,1.5,12.74,7.5,13.49,17.63s.76,19.12.76,68.62v46.88c0,46.5,12.74,68.63,28.87,83.63,23.25,21.75,57.75,22.5,68.63,22.5,19.5,0,45-2.63,69-23.26,26.26-22.5,30.75-61.12,30.75-95.61V209c0-49.5-.37-58.5.38-68.62.75-10.51,2.62-15.76,11.63-17.63a38.43,38.43,0,0,1,8.24-.75A2.81,2.81,0,0,0,1663.72,119.42Zm346.83,238.5c3.76,0,6.76-1.11,6.76-3,0-1.5-1.13-2.26-2.63-2.26a69.59,69.59,0,0,1-21.38-3c-13.49-4.5-15.75-21.74-16.87-33l-22.51-195.75c-.75-6-2.62-8.63-4.87-8.63s-3.75,2.25-5.25,5.25l-96,197.64-99.76-198c-1.87-3.76-4.5-4.88-6.75-4.88-1.87,0-3.37,2.25-3.74,5.62l-24,208.14c-1.5,12-1.87,23.62-12.75,25.5a63.64,63.64,0,0,1-9.75,1.12c-1.88,0-3.38,1.12-3.38,2.26,0,2.25,2.26,3,5.63,3,9,0,24.75-1.11,27.76-1.11,2.62,0,18.37,1.11,30.74,1.11,3.75,0,6-.74,6-3,0-1.14-1.49-2.26-2.62-2.26a53.45,53.45,0,0,1-12.75-1.87c-4.87-1.13-7.88-4.13-7.88-9,0-5.26,0-11.25.38-16.13l12.75-144h1.5c5.63,13.13,32.25,66.76,42,87,8.25,17.25,30,58.13,38.63,73.88,6.37,11.63,8.25,14.63,11.25,14.63s4.87-3,11.62-16.88l79.51-162.75h.75l15.75,161.24c.75,6,.37,10.88-1.5,11.27a2.72,2.72,0,0,0-2.25,2.61c0,1.51,1.5,2.63,9.37,3.38C1966.31,357.18,2003.06,357.92,2010.55,357.92Zm213.33-70.12c0-36-33-58.88-58.13-66.38,16.88-15,33.38-30.75,33.38-55.88,0-16.88-14.26-48.75-69.38-48.75-15.38,0-30.75.75-38.63.75-1.87,0-23.25-.75-38.25-.75-3.75,0-5.25.75-5.25,2.63,0,1.12,1.5,1.87,2.62,1.87a104.62,104.62,0,0,1,11.25.75c10.88,1.5,12.75,7.5,13.51,18.38.74,10.12.74,19.12.74,68.62V265.3c0,30.75,0,55.87-1.87,69-1.5,9.38-2.25,16.5-8.63,17.63-3,.37-7.12,1.5-10.12,1.5-1.87,0-2.63.75-2.63,1.87,0,1.88,1.88,2.62,5.25,2.62,5.26,0,13.13-.37,19.88-.74,6.75,0,12.75-.37,13.5-.37,1.5,0,10.87.37,21.38.74,10.5.74,22.5,1.13,28.5,1.13C2197.25,358.68,2223.88,323.42,2223.88,287.8Zm-119.63-156c0-1.88,1.12-2.63,4.12-3.38a98,98,0,0,1,16.88-1.5c33,0,46.5,27,46.5,51.38,0,15.38-5.62,26.25-12.75,34.13-6.76,7.5-13.88,8.25-32.25,8.25-12.38,0-18.38-1.12-20.26-1.5-1.49-.38-2.24-1.13-2.24-3.38Zm40.5,215.63c-6,0-19.88-.37-28.88-4.5-10.12-4.87-10.12-8.62-11.25-24-.37-4.87-.37-43.12-.37-67.88V233.42c0-1.5.75-2.25,1.87-2.25,5.25,0,21.75,0,25.88.75,7.87,1.5,18.37,1.12,29.63,8.25,25.87,16.5,31.49,43.87,31.49,58.13C2193.12,339.18,2166.5,347.42,2144.75,347.42ZM2273.34,122a58,58,0,0,1,10.12,1.13c7.13,1.49,9.75,6.37,10.5,17.25.75,10.12.75,19.12.75,68.62V265.3c0,30.75-.38,55.87-1.87,69-1.12,9.38-2.25,15.37-8.62,16.87a46.81,46.81,0,0,1-10.13,1.5,2.55,2.55,0,0,0-2.63,2.63c0,1.88,1.88,2.62,5.26,2.62,10.12,0,30.75-1.11,32.62-1.11,1.5,0,22.88,1.11,41.24,1.11,3.76,0,5.26-1.11,5.26-2.62a2.55,2.55,0,0,0-2.63-2.63,132.17,132.17,0,0,1-15-1.5c-9.75-1.5-10.87-7.49-12-16.87-1.49-13.13-1.49-38.25-1.49-69V209c0-49.5,0-58.5.37-68.62.75-11.26,2.63-15.76,11.62-17.63A36.89,36.89,0,0,1,2345,122a3.19,3.19,0,0,0,2.63-2.62c0-1.88-1.5-2.63-5.25-2.63-10.12,0-31.5.75-33,.75-1.87,0-22.5-.75-33.37-.75-3.76,0-5.26.75-5.26,2.63A2.82,2.82,0,0,0,2273.34,122ZM2631.07,355.3c0-1.87-2.25-2.63-4.13-2.63a45.84,45.84,0,0,1-13.12-1.87c-7.12-2.25-16.12-6.38-28.13-34.88-20.24-48.37-73.12-180-79.12-193.51-3.38-7.12-4.51-11.62-7.88-11.62-2.25,0-3.75,1.88-7.88,12.38l-77.62,199.5c-6.38,16.12-12.75,27.39-27.75,29.26a93.66,93.66,0,0,1-9.75.74,2.9,2.9,0,0,0-3,2.63c0,1.88,2.26,2.62,6.38,2.62,13.5,0,30-1.11,33.37-1.11,3.76,0,21.76,1.11,29.64,1.11,3,0,4.87-.74,4.87-2.62,0-1.51-.75-2.63-3.38-2.63h-3c-5.63,0-11.26-2.24-11.26-8.62,0-5.63,1.88-13.5,4.88-21.38l18.75-51c.75-1.87,1.87-2.62,3.38-2.62h76.12c1.87,0,2.25.37,3,1.87l29.63,73.13c2.24,5.24-1.12,7.88-3,8.62-1.5.76-2.25.76-2.25,2.26,0,1.88,5.25,1.88,11.62,2.25,22.88.74,47.25.74,52.14.74C2627.32,357.92,2631.07,357.18,2631.07,355.3Zm-103.5-99.38h-66.76c-1.12,0-1.5-.75-1.12-2.25l30.75-87.39q2.82-7.31,5.62,0l32.63,87.39C2529.07,255.17,2529.07,255.92,2527.57,255.92Zm527.92,93.37c1.88-7.86,4.89-33.37,4.89-36.37,0-2.62,0-5.62-2.26-5.62-1.87,0-2.63,1.5-3.38,5.62-2.61,15.38-7.12,22.88-16.87,27s-26.25,4.13-36,4.13c-36.75,0-42.37-4.87-43.5-30.75-.37-7.87,0-51.38,0-64.14v-33a2.37,2.37,0,0,1,2.62-2.63c6.37,0,43.5.75,53.64,1.88,14.62,1.5,18,7.88,19.49,13.12a38.33,38.33,0,0,1,1.5,12.38c0,1.87.76,3.37,2.62,3.37,2.63,0,2.63-4.12,2.63-7.12,0-2.62.75-16.5,1.5-24,1.13-12.38,3-18.75,3-21s-.75-3-1.88-3c-1.5,0-3,1.88-5.63,4.87-3.37,3.75-8.62,4.5-17.62,5.26-8.63.74-54.75.74-59.63.74-1.88,0-2.25-1.13-2.25-3.75V92.79c0-2.63.75-3.75,2.25-3.75,4.13,0,45,.37,51.38,1.12,20.25,2.26,24,6.76,26.62,12.75,1.88,4.5,2.25,10.88,2.25,13.51,0,3,.75,4.87,3,4.87,1.51,0,2.26-2.24,2.63-4.12.74-4.5,1.5-21,1.87-24.75,1.13-10.51,3-15,3-17.63,0-1.88-.38-3.38-1.51-3.38-1.87,0-3.37,1.5-5.24,1.88a100.78,100.78,0,0,1-16.13,1.88c-8.64.37-83.26.37-85.88.37l-15.37-.75c-8.26-.38-18.38-.38-27-.38-4.14,0-6,.76-6,3,0,1.49,1.5,2.25,3,2.25A70.29,70.29,0,0,1,2910,80.79c12.37,2.62,15.37,8.62,16.12,21.37.74,12,.74,22.5.74,81v66c0,36,0,65.63-1.88,81.39-1.49,10.88-3.36,19.12-10.86,20.62a57.23,57.23,0,0,1-11.26,1.5c-2.24,0-3,1.12-3,2.26,0,2.25,1.87,3,6,3,5.62,0,14.24-.74,21.74-.74,7.88-.37,14.26-.37,15-.37,5.63,0,14.63.37,29.25,1.11,14.62.37,35.25,1.13,63.38,1.13C3049.87,359.05,3052.88,359.05,3055.49,349.29Zm298.1,10.88c2.25,0,2.62-1.88,2.62-22.87l.75-186.76c0-19.13.75-25.5,11.62-27.75a37.44,37.44,0,0,1,7.88-.75c2.25,0,3.75-1.88,3.75-3,0-1.88-2.62-2.26-6-2.26-13.5,0-24.37.75-28.12.75s-19.5-.75-34.5-.75c-3.76,0-6.38.38-6.38,2.26,0,1.11.38,3,2.62,3a105,105,0,0,1,16.13,1.5c10.13,1.88,12,9,12.38,29.62l3.37,159.76c-10.12-10.5-45.38-48.38-78-82.12-51-52.51-99-103.5-104.25-108.76-3.37-3.37-9-9.75-12.75-9.75-2.62,0-4.5,3.37-4.5,16.12V311.05c0,28.87-1.13,37.5-9.38,39.75a51.83,51.83,0,0,1-13.5,1.87,2.56,2.56,0,0,0-2.61,2.63c0,2.25,1.86,2.62,5.24,2.62,15,0,28.87-1.11,31.88-1.11s16.12,1.11,34.88,1.11c3.74,0,6-.74,6-2.62a2.56,2.56,0,0,0-2.61-2.63,78.16,78.16,0,0,1-16.5-1.87c-9-2.25-12-10.13-12.76-36.38L3157.09,164c10.11,11.26,47.25,50.25,85.49,90.38,34.88,36.37,82.51,83.26,85.88,86.25C3346.83,357.55,3350.21,360.17,3353.59,360.17Zm102.32-32.24c36.76,31.12,83.63,34.12,108.76,34.12,19.12,0,49.12-3.37,70.12-14.25,4.13-2.25,4.51-2.63,4.51-17.25V294.92c0-13.5,0-22.87.37-33,.75-11.25,3.38-16.12,12.37-17.63a37.38,37.38,0,0,1,8.25-.74,3.19,3.19,0,0,0,2.63-2.63c0-2.25-1.5-2.63-5.25-2.63-10.12,0-30.75.76-32.26.76-1.86,0-24-.76-39-.76-3.74,0-5.24.38-5.24,2.63a3.19,3.19,0,0,0,2.62,2.63,107.7,107.7,0,0,1,11.25.74c13.51,2.62,14.26,6.38,14.26,32.26v55.12c0,6-2.63,7.51-6.76,9.76-8.63,4.87-24,6-35.62,6-30.38,0-58.14-9-84.38-33.37-11.63-10.88-34.88-43.13-34.88-88.12,0-37.14,13.5-65.63,32.63-80.27,25.12-19.12,49.12-20.62,69-20.62,42.75,0,67.88,12.75,76.12,24.75,5.26,7.5,7.14,16.88,7.51,21,0,3,.38,4.88,2.25,4.88,2.25,0,3.75-1.5,3.75-6.75,0-31.88,1.87-40.51,1.87-45,0-1.51-.74-3-4.12-3-8.25,0-19.87-1.87-26.63-3.38-6.37-1.5-29.62-5.25-50.62-5.25-25.14,0-58.13,2.25-87.76,20.25-29.25,17.62-55.12,53.63-55.12,104.63C3416.54,276.92,3435.66,311.05,3455.91,327.93Zm338.58,30c3.75,0,5.25-1.11,5.25-2.62a2.55,2.55,0,0,0-2.62-2.63,131.73,131.73,0,0,1-15-1.5c-9.76-1.5-10.88-7.49-12-16.87-1.49-13.13-1.49-38.25-1.49-69V209c0-49.5,0-58.5.38-68.62.75-11.26,2.61-15.76,11.62-17.63a36.76,36.76,0,0,1,8.25-.75,3.19,3.19,0,0,0,2.62-2.62c0-1.88-1.5-2.63-5.24-2.63-10.13,0-31.51.75-33,.75-1.88,0-22.51-.75-33.39-.75-3.75,0-5.25.75-5.25,2.63a2.82,2.82,0,0,0,2.63,2.62,58.32,58.32,0,0,1,10.13,1.13c7.12,1.49,9.74,6.37,10.49,17.25.75,10.12.75,19.12.75,68.62V265.3c0,30.75-.37,55.87-1.86,69-1.13,9.38-2.26,15.37-8.63,16.87a46.72,46.72,0,0,1-10.14,1.5,2.55,2.55,0,0,0-2.62,2.63c0,1.88,1.88,2.62,5.25,2.62,10.13,0,30.76-1.11,32.64-1.11C3754.74,356.81,3776.12,357.92,3794.49,357.92Zm125.61-5.25a78.22,78.22,0,0,1-16.5-1.87c-9-2.25-12-10.13-12.75-36.38L3887.1,164c10.13,11.26,47.25,50.25,85.5,90.38,34.88,36.37,82.51,83.26,85.88,86.25,18.38,16.88,21.75,19.5,25.12,19.5,2.26,0,2.63-1.88,2.63-22.87l.75-186.76c0-19.13.74-25.5,11.62-27.75a37.52,37.52,0,0,1,7.89-.75c2.24,0,3.74-1.88,3.74-3,0-1.88-2.62-2.26-6-2.26-13.51,0-24.38.75-28.14.75s-19.5-.75-34.5-.75c-3.74,0-6.37.38-6.37,2.26,0,1.11.37,3,2.63,3a105.08,105.08,0,0,1,16.12,1.5c10.13,1.88,12,9,12.37,29.62l3.38,159.76c-10.13-10.5-45.38-48.38-78-82.12-51-52.51-99-103.5-104.25-108.76-3.38-3.37-9-9.75-12.75-9.75-2.62,0-4.5,3.37-4.5,16.12V311.05c0,28.87-1.13,37.5-9.38,39.75a51.77,51.77,0,0,1-13.49,1.87,2.56,2.56,0,0,0-2.63,2.63c0,2.25,1.88,2.62,5.26,2.62,15,0,28.87-1.11,31.87-1.11s16.13,1.11,34.88,1.11c3.74,0,6-.74,6-2.62A2.57,2.57,0,0,0,3920.1,352.67Zm380.21-2.24c1.88-6.75,4.5-28.51,4.5-30.76s-.37-4.88-2.24-4.88-2.63,1.13-3.38,4.88c-1.88,12.76-6.38,18.38-15,22.13-8.63,3.37-24.38,3.37-33,3.37-32.63,0-38.64-4.12-39.38-25.5-.38-6.37,0-43.5,0-54.37V238.67a2,2,0,0,1,2.24-2.25c5.64,0,40.88.37,49.89,1.5,12.75,1.5,15.75,5.26,16.87,9.75a28.32,28.32,0,0,1,1.5,10.51c0,1.86.75,3,2.25,3,2.26,0,3-3.38,3-6,0-2.25.75-14.25,1.5-20.62.75-10.5,2.63-15.76,2.63-17.63s-.75-2.63-1.88-2.63-2.62,1.88-4.87,4.13c-3.38,3.37-8.25,3.75-16.13,4.5-7.5.75-51,.75-55.13.75-1.87,0-1.87-1.13-1.87-3.38V133.66c0-2.25.37-3.37,1.87-3.37,3.75,0,42,.38,47.63,1.12,18,2.25,21.38,4.51,23.63,9.76a35.2,35.2,0,0,1,1.88,11.24c0,2.63.74,4.13,2.61,4.13,1.51,0,2.63-1.88,3-3.38.75-3.74,1.5-18,1.88-21,.75-9,2.61-12.75,2.61-15,0-1.51-.37-3-1.5-3-1.49,0-3,1.12-4.49,1.49-2.63.38-8.63,1.51-15,1.88-7.5.37-76.51,0-78.76,0-1.87,0-23.25-.75-38.25-.75-3.76,0-5.25.75-5.25,2.63a3.17,3.17,0,0,0,2.62,2.62,104.81,104.81,0,0,1,11.26.75c10.87,1.5,12.75,6.75,13.5,17.63.74,10.12.74,19.12.74,68.62V265.3c0,30.75,0,55.87-1.86,69-1.51,9.38-2.26,15.76-8.63,16.87-3,.38-7.12,1.5-10.13,1.5a2.55,2.55,0,0,0-2.62,2.63c0,1.88,1.87,2.62,5.25,2.62,5.25,0,12.75-.37,19.12-.74,7.12-.37,13.51-.37,14.25-.37,4.88,0,13.5,0,27.38.74,13.51.37,32.62,1.13,57.37,1.13C4294.69,358.68,4298.06,358.68,4300.31,350.43Zm208.85-35.64c-1.88,0-2.63,1.13-3.38,4.88-1.88,12.76-6.37,18.38-15,22.13-8.63,3.37-24.38,3.37-33,3.37-32.63,0-38.64-4.12-39.38-25.5-.38-6.37,0-43.5,0-54.37V238.67a2,2,0,0,1,2.25-2.25c5.63,0,40.87.37,49.88,1.5,12.75,1.5,15.74,5.26,16.87,9.75a28.32,28.32,0,0,1,1.5,10.51c0,1.86.75,3,2.24,3,2.27,0,3-3.38,3-6,0-2.25.75-14.25,1.5-20.62.75-10.5,2.63-15.76,2.63-17.63s-.75-2.63-1.88-2.63-2.63,1.88-4.87,4.13c-3.38,3.37-8.25,3.75-16.12,4.5-7.5.75-51,.75-55.14.75-1.87,0-1.87-1.13-1.87-3.38V133.66c0-2.25.37-3.37,1.87-3.37,3.76,0,42,.38,47.64,1.12,18,2.25,21.37,4.51,23.62,9.76a35.2,35.2,0,0,1,1.88,11.24c0,2.63.74,4.13,2.62,4.13,1.5,0,2.62-1.88,3-3.38.74-3.74,1.49-18,1.87-21,.75-9,2.63-12.75,2.63-15,0-1.51-.38-3-1.51-3-1.5,0-3,1.12-4.49,1.49-2.63.38-8.63,1.51-15,1.88-7.5.37-76.51,0-78.76,0-1.87,0-23.25-.75-38.25-.75-3.75,0-5.25.75-5.25,2.63a3.19,3.19,0,0,0,2.62,2.62,105,105,0,0,1,11.26.75c10.87,1.5,12.74,6.75,13.5,17.63.75,10.12.75,19.12.75,68.62V265.3c0,30.75,0,55.87-1.88,69-1.5,9.38-2.25,15.76-8.62,16.87-3,.38-7.13,1.5-10.13,1.5a2.55,2.55,0,0,0-2.62,2.63c0,1.88,1.87,2.62,5.24,2.62,5.26,0,12.75-.37,19.13-.74,7.12-.37,13.5-.37,14.25-.37,4.88,0,13.51,0,27.38.74,13.5.37,32.63,1.13,57.38,1.13,12.74,0,16.12,0,18.38-8.25,1.87-6.75,4.49-28.51,4.49-30.76S4511,314.79,4509.16,314.79Zm198.72-10.12c18.75,24,30.75,39.38,45,46.88,8.25,4.5,16.5,6.37,35.26,6.37h20.62c6,0,7.88-.74,7.88-2.62a2.91,2.91,0,0,0-3-2.63,61,61,0,0,1-11.63-1.12c-8.25-1.12-19.13-4.13-36.75-22.13-19.13-19.87-42-48.75-69-82.51,30.75-26.24,40.51-49.12,40.51-72.74,0-22.13-14.63-37.51-22.88-43.5-17.25-12-40.5-13.88-61.5-13.88-10.12,0-37.88.75-41.25.75-1.87,0-24-.75-39-.75-3.74,0-5.24.75-5.24,2.63a3.19,3.19,0,0,0,2.63,2.62,105,105,0,0,1,11.24.75c10.88,1.5,12.76,6.75,13.51,17.63.74,10.12.74,19.12.74,68.62V265.3c0,30.75,0,55.87-1.87,69-1.5,9.38-2.25,15.37-8.62,16.87a46.81,46.81,0,0,1-10.13,1.5,2.55,2.55,0,0,0-2.63,2.63c0,1.88,1.88,2.62,5.26,2.62,10.12,0,32.25-1.11,32.62-1.11,1.5,0,22.5,1.11,40.5,1.11,3.75,0,5.25-1.11,5.25-2.62a2.35,2.35,0,0,0-2.63-2.63,119,119,0,0,1-14.62-1.5c-10.12-1.5-12-7.49-13.12-16.87-1.51-13.13-1.51-37.88-1.51-68.63v-7.49c0-1.88.76-2.63,2.26-2.63l42,.75a5,5,0,0,1,4.5,1.88C4679.37,266.79,4694,287.42,4707.88,304.67Zm-45.76-59.62c-14.63,0-31.5-2.26-36.37-4.88a4.71,4.71,0,0,1-2.26-4.13V133.66a4.1,4.1,0,0,1,2.63-3.75c3.37-.75,13.88-1.87,23.63-1.87,35.25,0,57,22.87,57,62.63,0,24.38-8.63,41.25-19.88,48.75C4679,244.67,4670,245.05,4662.12,245.05Zm243.33,107.62a131.66,131.66,0,0,1-15-1.5c-9.77-1.5-10.88-7.49-12-16.87-1.51-13.13-1.51-38.25-1.51-69V209c0-49.5,0-58.5.39-68.62.75-11.26,2.62-15.76,11.62-17.63a36.8,36.8,0,0,1,8.25-.75,3.19,3.19,0,0,0,2.62-2.62c0-1.88-1.5-2.63-5.25-2.63-10.12,0-31.5.75-33,.75-1.88,0-22.51-.75-33.38-.75-3.76,0-5.25.75-5.25,2.63a2.81,2.81,0,0,0,2.62,2.62,57.92,57.92,0,0,1,10.12,1.13c7.13,1.49,9.76,6.37,10.5,17.25.76,10.12.76,19.12.76,68.62V265.3c0,30.75-.38,55.87-1.88,69-1.12,9.38-2.25,15.37-8.62,16.87a46.72,46.72,0,0,1-10.13,1.5,2.55,2.55,0,0,0-2.63,2.63c0,1.88,1.88,2.62,5.26,2.62,10.12,0,30.75-1.11,32.63-1.11,1.49,0,22.87,1.11,41.25,1.11,3.74,0,5.24-1.11,5.24-2.62A2.55,2.55,0,0,0,4905.45,352.67Zm289.13-15.37.74-186.76c0-19.13.75-25.5,11.63-27.75a37.39,37.39,0,0,1,7.88-.75c2.25,0,3.75-1.88,3.75-3,0-1.88-2.64-2.26-6-2.26-13.49,0-24.37.75-28.11.75s-19.51-.75-34.51-.75c-3.75,0-6.38.38-6.38,2.26,0,1.11.37,3,2.63,3a104.77,104.77,0,0,1,16.12,1.5c10.12,1.88,12,9,12.37,29.62l3.38,159.76c-10.13-10.5-45.37-48.38-78-82.12-51-52.51-99-103.5-104.25-108.76-3.37-3.37-9-9.75-12.74-9.75-2.63,0-4.5,3.37-4.5,16.12V311.05c0,28.87-1.13,37.5-9.37,39.75a52,52,0,0,1-13.51,1.87,2.55,2.55,0,0,0-2.62,2.63c0,2.25,1.88,2.62,5.25,2.62,15,0,28.88-1.11,31.87-1.11s16.13,1.11,34.88,1.11c3.75,0,6-.74,6-2.62a2.57,2.57,0,0,0-2.63-2.63A78.21,78.21,0,0,1,5012,350.8c-9-2.25-12-10.13-12.76-36.38L4995.44,164c10.12,11.26,47.26,50.25,85.5,90.38,34.87,36.37,82.51,83.26,85.89,86.25,18.36,16.88,21.74,19.5,25.11,19.5C5194.2,360.17,5194.58,358.29,5194.58,337.3Zm99.69-9.37c36.75,31.12,83.62,34.12,108.75,34.12,19.13,0,49.13-3.37,70.12-14.25,4.13-2.25,4.51-2.63,4.51-17.25V294.92c0-13.5,0-22.87.37-33,.76-11.25,3.38-16.12,12.38-17.63a37.25,37.25,0,0,1,8.24-.74,3.19,3.19,0,0,0,2.63-2.63c0-2.25-1.5-2.63-5.24-2.63-10.13,0-30.75.76-32.25.76-1.88,0-24-.76-39-.76-3.75,0-5.25.38-5.25,2.63a3.19,3.19,0,0,0,2.63,2.63,107.32,107.32,0,0,1,11.24.74c13.5,2.62,14.26,6.38,14.26,32.26v55.12c0,6-2.63,7.51-6.75,9.76-8.63,4.87-24,6-35.63,6-30.38,0-58.12-9-84.38-33.37-11.63-10.88-34.88-43.13-34.88-88.12,0-37.14,13.51-65.63,32.64-80.27,25.11-19.12,49.11-20.62,69-20.62,42.75,0,67.86,12.75,76.13,24.75,5.25,7.5,7.11,16.88,7.5,21,0,3,.37,4.88,2.25,4.88,2.25,0,3.74-1.5,3.74-6.75,0-31.88,1.88-40.51,1.88-45,0-1.51-.75-3-4.13-3-8.24,0-19.88-1.87-26.62-3.38-6.38-1.5-29.62-5.25-50.63-5.25-25.13,0-58.14,2.25-87.75,20.25-29.26,17.62-55.13,53.63-55.13,104.63C5254.89,276.92,5274,311.05,5294.27,327.93ZM762,485.45c-3,5.15-4.75,5.54-15.44,5.54H666.4c-9.11,0-15.64.2-16.83-6.13-.59-.6-3.17-.4-3.76,0a209,209,0,0,1-7.52,29.49c.79,1.59,3.56,2.57,5.14,1.38,2.18-4.94,4.16-9.3,8.91-13.65,4.95-4.55,15.84-4.95,24.35-4.95h10.89c5.94,0,5.94.19,5.94,6.33V592c0,20.78-1,23.76-12.27,24.75l-7.13.59c-1.58,1-1.19,4.35,0,5,12.67-.4,19.6-.6,27.52-.6s14.64.2,25.93.6c1.18-.6,1.58-4.16.39-5l-6.33-.59c-11.48-1.2-11.88-4-11.88-24.75V503.86c0-6.54-.2-6.73,5.74-6.73h14.06c10.88,0,18.41,1.58,23,4.95,3,2.17,4.35,9.5,5,14.45,1,1.18,4.36,1.18,5.15-.4-.6-5.94.79-22,3-30.09C765.18,485.25,763,485.05,762,485.45ZM865.54,617.29l-5.35-.59c-7.12-.8-7.52-3-7.52-17.23V566.41c0-13.86-6.73-25.53-25.53-25.53-10.1,0-19.6,4.74-26.73,10.29-.59-.39-.79-2-.79-3.76V505.84c0-8.71.39-18.61.59-24.55a2.17,2.17,0,0,0-2-1.19c-7.12,3.76-16.43,6.73-21.38,8.32-1,.59-1,3.37,0,3.95l2,1.19c5.94,3.57,6.14,4.76,6.14,16.43v89.48c0,14.26-.2,16.43-7.52,17.23l-5,.59c-1.39,1-1,4.35.39,5,6.34-.4,12.28-.6,19.41-.6,6.92,0,12.66.2,18.6.6,1.39-.6,1.78-4.16.4-5l-4.16-.59c-7.13-1-7.52-3-7.52-17.23V566.22c0-6.93.59-7.93,4.16-10.89A23.69,23.69,0,0,1,819.22,550c12.67,0,18.8,8.52,18.8,21.19v28.3c0,14.26-.19,16-7.52,17.23l-4,.59c-1.38,1-1,4.35.4,5,5.34-.4,11.28-.6,18.41-.6,6.93,0,12.67.2,19.79.6C866.53,621.64,866.93,618.28,865.54,617.29ZM941,603.63c-6.14,7.72-11.68,9.7-18.21,9.7-21.18,0-32.86-17-32.86-37,0-4.95.19-5.35,5.34-5.35h36.62c8.32,0,11.09-.19,11.68-1.38a12.14,12.14,0,0,0,.8-5.15c0-11.88-11.09-23.55-28.12-23.55-23.75,0-39.79,20.39-39.79,44.74a42,42,0,0,0,8.32,25.73c5.74,7.52,15.84,13.07,28.7,13.07,10.3,0,24.55-4.95,31.08-18.42A2.61,2.61,0,0,0,941,603.63ZM914,546.81c11.48,0,15.24,6.93,15.24,12.48,0,2.57-.59,3.36-1.19,3.76-1.58,1.19-5.94,2-20.59,2h-14c-1.39,0-1.39-.6-1.39-1C892.26,557.5,902.36,546.81,914,546.81ZM1067.45,491H1031c-7.92,0-14.65-.2-23-.6-1.19.6-1.58,4.16-.39,4.95l3.17.4c11.47,1.39,11.87,4.16,11.87,24.94V592c0,20.78-.4,23.36-11.87,24.75l-5,.59c-1.18,1.19-.79,4.35.4,5,9.3-.4,16-.6,24.75-.6,7.92,0,14.64.2,26.32.6,1.19-.6,1.59-4.16.4-5l-6.73-.59c-11.68-1-12.07-4-12.07-24.75V564.43c0-5.14.59-5.34,6.53-5.34h13.46c7.52,0,12.47.2,15.24,1,3.76,1.19,5.54,3.95,6.34,7.52l2,7.72c1.39,1.19,4.36,1.19,5.15,0,0-4.55-.79-12.08-.79-19.2,0-7.33.79-15.24.79-20-.79-1.18-4.16-1.18-5.15,0l-1.78,7.92c-1.18,5.15-2.77,6.14-5,6.93-2.37.79-8.7,1.19-16.82,1.19h-13.46c-5.94,0-6.53,0-6.53-5.35V505c0-7.51,0-7.91,5.93-7.91H1057c8.31,0,14.85.19,19.2,1.19,9.9,2.76,12.27,9.89,13.86,18.8,1.38,1.19,4.15.59,4.75-.59-.4-7.52-.6-17-.6-26.14C1091.6,491,1080.12,491,1067.45,491ZM1189.8,614.32c-5.54,0-6.14-5.94-6.14-21.58V559.48c0-7.32.2-13.46.6-17.22-.2-.79-.79-1.19-1.79-1.38-4.35,2-15.24,3.36-23.16,3.56a2.69,2.69,0,0,0-.19,4.35l2.57,1c5.94,2.37,7.32,2.76,7.32,15.64v32.46c0,6.14-1.38,9.1-4,11.48a25.89,25.89,0,0,1-16,5.94c-15,0-18.41-9.11-18.41-22.77V559.48c0-9.69.2-13.86.59-17.22-.2-.79-.79-1.19-2-1.38a70.2,70.2,0,0,1-21.18,3.56c-1.39.59-1.58,3.37-.39,4.35l2.37,1c5.94,2.57,5.94,4.35,5.94,16.82v33.06c0,16,6.53,24.75,24,24.75,11.68,0,21.38-6.54,27.32-10.3,1.19,0,1.78,1,1.78,2.78V625a2.75,2.75,0,0,0,2.38,1.4c6.73-3.77,18.21-5.74,25.93-7.33,1.59-.79,1.39-4.75.2-5.74A37.81,37.81,0,0,1,1189.8,614.32ZM1320.05,491h-36.42c-7.92,0-14.65-.2-23-.6-1.18.6-1.58,4.16-.39,4.95l3.17.4c11.48,1.39,11.87,4.16,11.87,24.94V592c0,20.78-.39,23.36-11.87,24.75l-5,.59c-1.19,1.19-.79,4.35.39,5,9.31-.4,16-.6,24.75-.6,7.92,0,14.65.2,26.33.6,1.19-.6,1.58-4.16.39-5l-6.73-.59c-11.68-1-12.07-4-12.07-24.75V564.43c0-5.14.59-5.34,6.53-5.34h13.46c7.52,0,12.47.2,15.25,1,3.76,1.19,5.54,3.95,6.33,7.52l2,7.72c1.39,1.19,4.35,1.19,5.14,0,0-4.55-.79-12.08-.79-19.2,0-7.33.79-15.24.79-20-.79-1.18-4.15-1.18-5.14,0l-1.78,7.92c-1.19,5.15-2.77,6.14-5,6.93-2.38.79-8.71,1.19-16.83,1.19h-13.46c-5.94,0-6.53,0-6.53-5.35V505c0-7.51,0-7.91,5.94-7.91h12.07c8.32,0,14.85.19,19.2,1.19,9.9,2.76,12.27,9.89,13.86,18.8,1.39,1.19,4.16.59,4.75-.59-.4-7.52-.59-17-.59-26.14C1344.2,491,1332.72,491,1320.05,491Zm78.41,49.89c-23.36,0-42.16,17.81-42.16,42.75,0,24.75,17.81,40.79,40.58,40.79,24.74,0,41.77-17.82,41.77-42.56C1438.65,557.5,1420.63,540.88,1398.46,540.88Zm.4,77.6c-17.42,0-25.54-19.4-25.54-37.42,0-21.77,9.7-34.25,22.76-34.25,18.81,0,25.54,21.38,25.54,38.21C1421.62,600.27,1416.28,618.48,1398.86,618.48Zm137.38-4.16c-5.54,0-6.14-5.94-6.14-21.58V559.48c0-7.32.2-13.46.6-17.22-.2-.79-.79-1.19-1.78-1.38-4.36,2-15.25,3.36-23.17,3.56a2.69,2.69,0,0,0-.19,4.35l2.57,1c5.94,2.37,7.32,2.76,7.32,15.64v32.46c0,6.14-1.38,9.1-4,11.48a25.92,25.92,0,0,1-16,5.94c-15,0-18.41-9.11-18.41-22.77V559.48c0-9.69.2-13.86.59-17.22-.2-.79-.79-1.19-2-1.38a70.2,70.2,0,0,1-21.18,3.56c-1.39.59-1.58,3.37-.39,4.35l2.37,1c5.94,2.57,5.94,4.35,5.94,16.82v33.06c0,16,6.53,24.75,23.95,24.75,11.68,0,21.38-6.54,27.32-10.3,1.19,0,1.78,1,1.78,2.78V625a2.75,2.75,0,0,0,2.38,1.4c6.73-3.77,18.21-5.74,25.93-7.33,1.59-.79,1.39-4.75.2-5.74A37.81,37.81,0,0,1,1536.24,614.32Zm109.66,3-4.35-.59c-7.13-1-7.52-3-7.52-17.23v-34c0-13.27-6.74-24.55-23.17-24.55-10.09,0-19.4,5-27.71,10.09a2.08,2.08,0,0,1-2.18-2.18c0-1.77,0-4.75.4-9.3a2.31,2.31,0,0,0-2.18-1.38c-4,3-15.24,8.11-19.79,9.7-1,.59-1,2.77-.2,3.56l1.78,1.18c5.34,3.57,5.34,4.56,5.34,12.28v34.64c0,14.26-.19,16.24-7.52,17.23l-4.15.59c-1.39,1-1,4.35.39,5,5.54-.4,11.48-.6,18.61-.6,6.93,0,12.67.2,18,.6,1.39-.6,1.78-4,.4-5l-3.56-.59c-7.13-1.2-7.53-3-7.53-17.23V569.19c0-5.74.4-8.52,3-11.88,2.77-3.76,9.31-6.93,16.83-6.93,13.46,0,18.61,8.31,18.61,19.6v29.49c0,14.26-.2,16-7.53,17.23l-3.76.59c-1.38,1-1,4.35.4,5,5.34-.4,11.28-.6,18.41-.6,6.93,0,12.67.2,18.61.6C1646.89,621.64,1647.29,618.28,1645.9,617.29ZM1749,613.73c-3,1-6.34,2-8.52,2-5.54,0-5.74-7.33-5.74-23v-86.9c0-8.71.4-18.61.6-24.55a2.19,2.19,0,0,0-2-1.19c-7.13,3.76-16.43,6.73-21.38,8.32-1,.59-1,3.37,0,3.95l2,1.19c5.94,3.57,6.13,4.76,6.13,16.43v29.89c0,1.59-.19,2.78-1.19,2.78-2.17-.8-6.53-1.78-13.26-1.78-26.92,0-47.9,17.81-47.9,45.53,0,20.79,14.65,38,36.62,38,9.5,0,16.23-3.17,24.94-9.11h.79c.4.79.4,3.17.4,6.14v3.36c0,1,1,1.59,2.18,1.59,5.54-2.19,17.81-5.15,26.13-6.34C1750.62,619.07,1750.42,614.12,1749,613.73ZM1720.13,602c0,3.17-.19,6.14-1.38,7.33-3.17,3.17-9.9,5.55-15.24,5.55-19.41,0-29.5-17-29.5-35,0-17.22,9.3-32.85,27.32-32.85a20.66,20.66,0,0,1,16.63,8.31c1.38,2,2.17,3.76,2.17,7.72Zm111.65,11.09c-.59,0-1.58.79-2.57,1.39a11.48,11.48,0,0,1-5,1.19c-7.72,0-9.5-8.12-9.11-17.23l1.19-34.45c.59-14.84-6.34-23.15-20.59-23.15-14.45,0-36.82,14-36.82,24.34a2.51,2.51,0,0,0,2.77,2.78c3,0,8.32-1.39,11.29-3.76,1.58-1.19,1.78-3.57,2-6.74.4-6.13,7.13-8.91,12.67-8.91,12.28,0,14.65,9.91,14.46,17.23l-.21,9.11c-.19,3-.39,4.74-3.36,5.73L1775,589.18c-12.66,4.55-16.43,9.11-16.43,16.82a18.55,18.55,0,0,0,6.14,13.87c3.37,3,8.11,4.55,13.86,4.55,5.54,0,9.89-2.58,14.25-4.95,4-2.18,6.34-4,7.72-4,1.19,0,2.37,1.59,3.17,2.78a15.81,15.81,0,0,0,12.87,6.14c9.69,0,16.62-7.72,16.62-8.71C1833.16,614.32,1832.57,613.13,1831.78,613.13Zm-30.88-11.88c0,4.16-.2,6.93-2.57,9.31-2,2-8.13,4.94-12.08,4.94-10.1,0-12.47-8.51-12.47-11.87,0-7.72,5.74-10.69,17.42-14.65a37.13,37.13,0,0,1,8.11-2c1.19,0,2,.4,2,2.58ZM1867.21,552h22.37c1.78-1.18,2.18-6.53-.2-8.31h-22c-3.37,0-3.57-.2-3.57-3.77V531c-.79-1.39-3.16-1.39-4.16-1a49.18,49.18,0,0,1-8.31,11.68c-2,1.78-6.93,4.35-12.66,6.14-.8,1.19-.6,3.36.59,4.15h5.54c4,0,4.16.4,4.16,5.74V603c0,11.88,3.56,21.38,20.59,21.38a27.39,27.39,0,0,0,20.78-9.11c.4-1.19-.4-3.37-2-3.37-.59,0-3.17,2.18-5,2.77a14.93,14.93,0,0,1-5.34,1c-13.07,0-14.45-10.5-14.45-22v-37C1863.65,552.55,1863.84,552,1867.21,552ZM1928,500.69c0-5.54-3.76-10.09-9.7-10.09-5.74,0-10.69,3.95-10.69,10.48,0,5.35,4,9.71,10.1,9.71C1923,510.79,1928,507.62,1928,500.69Zm10.1,116.6-4.16-.59c-7.13-1-7.52-3-7.52-17.23V563.84c0-8.12.39-17.62.79-24.55-.2-.79-1-1.18-2-1.18-4.55,3-15.84,8.11-20.39,9.7-1,.59-1,2.77-.2,3.56l1.78,1.18c5.35,3.57,5.35,4.56,5.35,12.28v34.64c0,14.26-.2,16.24-7.53,17.23l-4.15.59c-1.39,1-1,4.35.39,5,5.55-.4,11.49-.6,18.61-.6,6.93,0,12.67.2,18.61.6C1939.07,621.64,1939.46,618.28,1938.08,617.29Zm54.23-76.41c-23.36,0-42.16,17.81-42.16,42.75,0,24.75,17.82,40.79,40.58,40.79,24.75,0,41.77-17.82,41.77-42.56C2032.5,557.5,2014.48,540.88,1992.31,540.88Zm.4,77.6c-17.42,0-25.54-19.4-25.54-37.42,0-21.77,9.71-34.25,22.77-34.25,18.8,0,25.54,21.38,25.54,38.21C2015.48,600.27,2010.13,618.48,1992.71,618.48Zm145.69-1.19-4.35-.59c-7.13-1-7.52-3-7.52-17.23v-34c0-13.27-6.74-24.55-23.17-24.55-10.1,0-19.4,5-27.71,10.09a2.08,2.08,0,0,1-2.18-2.18c0-1.77,0-4.75.4-9.3a2.31,2.31,0,0,0-2.18-1.38c-4,3-15.25,8.11-19.8,9.7-1,.59-1,2.77-.19,3.56l1.78,1.18c5.34,3.57,5.34,4.56,5.34,12.28v34.64c0,14.26-.2,16.24-7.52,17.23l-4.16.59c-1.38,1-1,4.35.4,5,5.54-.4,11.48-.6,18.61-.6,6.93,0,12.67.2,18,.6,1.38-.6,1.78-4,.4-5l-3.57-.59c-7.12-1.2-7.52-3-7.52-17.23V569.19c0-5.74.4-8.52,3-11.88,2.77-3.76,9.31-6.93,16.82-6.93,13.47,0,18.62,8.31,18.62,19.6v29.49c0,14.26-.21,16-7.53,17.23l-3.76.59c-1.38,1-1,4.35.4,5,5.34-.4,11.28-.6,18.41-.6,6.92,0,12.67.2,18.61.6C2139.39,621.64,2139.79,618.28,2138.4,617.29Zm116.2-67.11-15.84-9.9c-7.32-4.75-16.83-12.86-16.83-24.34,0-9.11,4.16-22,23.56-22,19,0,24.35,12.87,26.93,22.37,1,1.19,4.16.59,4.95-.6,0-8.31-1.79-19.39-3.57-24.15a38.46,38.46,0,0,1-6.93-1.19,67.88,67.88,0,0,0-18.41-2.57c-25.73,0-40.38,15.24-40.38,34.05,0,16.24,11.48,27.52,21.38,34l18.81,12.27c14.44,9.31,16.22,19,16.22,27.72,0,11.88-8.11,22.76-24.74,22.76-23,0-31.07-19.4-34.05-29.49-.78-1.19-3.76-.79-4.75.59.4,9.31,3,23.36,5.35,27.72,3.76,2.17,14.25,7.32,30.88,7.32,25.74,0,42.17-14.84,42.17-36.62C2279.35,569.38,2267.07,557.9,2254.6,550.18Zm110.25,51.28c-4.54,6.72-10.49,11.87-22,11.87-21.18,0-31.87-18.41-31.87-33.85,0-21,13.46-31.87,27.32-31.87,8.12,0,15.45,5.15,19.8,10.49a3.44,3.44,0,0,0,2.77,1.38c2.38,0,4.35-3.76,4.35-7.32,0-3.37-1.38-6.54-3-7.92-5.35-2.38-13.07-3.36-17.62-3.36-32.87,0-47.91,22.76-47.91,44.14,0,12.87,4.56,22.57,11.48,29.3s16.63,10.1,27.12,10.1c11.48,0,26.33-5.55,33.06-20.2A3.11,3.11,0,0,0,2364.85,601.46Zm102,15.83-5.34-.59c-7.12-.8-7.52-3-7.52-17.23V566.41c0-13.86-6.74-25.53-25.54-25.53-10.09,0-19.6,4.74-26.73,10.29-.59-.39-.79-2-.79-3.76V505.84c0-8.71.39-18.61.6-24.55a2.19,2.19,0,0,0-2-1.19c-7.13,3.76-16.43,6.73-21.38,8.32-1,.59-1,3.37,0,3.95l2,1.19c5.94,3.57,6.13,4.76,6.13,16.43v89.48c0,14.26-.19,16.43-7.52,17.23l-4.95.59c-1.38,1-1,4.35.4,5,6.33-.4,12.27-.6,19.4-.6,6.93,0,12.67.2,18.61.6,1.38-.6,1.77-4.16.4-5l-4.16-.59c-7.14-1-7.53-3-7.53-17.23V566.22c0-6.93.6-7.93,4.16-10.89a23.69,23.69,0,0,1,15.44-5.35c12.67,0,18.8,8.52,18.8,21.19v28.3c0,14.26-.19,16-7.51,17.23l-4,.59c-1.39,1-1,4.35.39,5,5.35-.4,11.29-.6,18.41-.6,6.93,0,12.67.2,19.8.6C2467.79,621.64,2468.19,618.28,2466.8,617.29Zm53-76.41c-23.35,0-42.16,17.81-42.16,42.75,0,24.75,17.82,40.79,40.58,40.79,24.75,0,41.77-17.82,41.77-42.56C2560,557.5,2542,540.88,2519.85,540.88Zm.4,77.6c-17.42,0-25.54-19.4-25.54-37.42,0-21.77,9.7-34.25,22.77-34.25,18.8,0,25.54,21.38,25.54,38.21C2543,600.27,2537.67,618.48,2520.25,618.48Zm95.81-77.6c-23.36,0-42.17,17.81-42.17,42.75,0,24.75,17.82,40.79,40.59,40.79,24.74,0,41.77-17.82,41.77-42.56C2656.25,557.5,2638.23,540.88,2616.06,540.88Zm.39,77.6c-17.42,0-25.54-19.4-25.54-37.42,0-21.77,9.71-34.25,22.77-34.25,18.81,0,25.54,21.38,25.54,38.21C2639.22,600.27,2633.87,618.48,2616.45,618.48Zm91.06-1.19-4.75-.59c-7.13-1-7.52-3-7.52-17.23V505.84c0-8.71.39-18.61.6-24.55a2.19,2.19,0,0,0-2-1.19c-7.13,3.76-16.43,6.73-21.38,8.32-1,.59-1,3.37,0,3.95l2,1.19c5.94,3.57,6.14,4.76,6.14,16.43v89.48c0,14.26-.2,16.24-7.52,17.23l-4.56.59c-1.38,1-1,4.35.4,5,5.93-.4,11.88-.6,19-.6,6.93,0,12.67.2,19.2.6C2708.5,621.64,2708.9,618.28,2707.51,617.29Zm103.13-76.41c-23.36,0-42.16,17.81-42.16,42.75,0,24.75,17.82,40.79,40.58,40.79,24.75,0,41.77-17.82,41.77-42.56C2850.83,557.5,2832.82,540.88,2810.64,540.88Zm.4,77.6c-17.42,0-25.54-19.4-25.54-37.42,0-21.77,9.71-34.25,22.77-34.25,18.81,0,25.54,21.38,25.54,38.21C2833.81,600.27,2828.46,618.48,2811,618.48ZM2918.33,480.1c-19.6,0-30.68,13.86-35.63,25.15-4.76,11.08-6.14,23.36-6.14,34.84,0,2-1.39,3.16-3,3.95l-8.51,4.16a2.76,2.76,0,0,0,.59,3.76h6.93c4,0,4,.4,4,5.74v41.77c0,14.26-.2,16.24-7.52,17.23l-4.56.59c-1.38,1-1,4.35.4,5,5.94-.4,11.88-.6,19-.6,6.94,0,12.67.2,21.58.6,1.39-.6,1.78-4,.4-5l-7.13-.59c-7.12-.6-7.52-3-7.52-17.23V557.7c0-5.34,0-5.74,3.36-5.74h21.19c2.17-.79,3.56-6.34,1.38-8.31h-22.57c-3.36,0-3.36-.2-3.36-5.54v-5.75c0-9.89.79-24.35,4.35-33.45,3-7.12,7.93-10.89,14.06-10.89,6.53,0,12.07,4.35,15.83,8.71a5.65,5.65,0,0,0,4.76,2.38c3.75,0,7.52-3.17,7.52-7.13C2937.73,484.86,2928.82,480.1,2918.33,480.1Zm172.2,110.26c-5.15,10.3-10.49,17.22-14.06,19.21-4.35,2.17-10.09,3-25.33,3-17.42,0-21.58-2.17-24-4.55-3.16-3.36-3.76-10.1-3.76-20.58V559.48c0-5.15.6-5.35,6.53-5.35h11.49c7.72,0,12.47.2,15.24,1,4,1,5.34,4,6.13,7.52l1.79,7.71c1,1.2,4.35,1.2,5.14-.19,0-4.35-.79-11.87-.79-19,0-7.51.79-15.24.79-20-.79-1.38-4.15-1.38-5.14-.19l-1.59,8.11c-1,4.95-2.37,6.14-4.75,6.93s-8.51,1.18-16.82,1.18H3030c-5.93,0-6.53,0-6.53-5.54V502.07c0-7.52,0-7.92,5.94-7.92h14.25c8.72,0,15,.2,19.2,1.19,10.3,2.57,12.08,9.5,15.05,18.81,1,1.19,4.16.79,4.95-.4-.79-8.71-2-23-3.17-26.33-2.37.6-14,.6-26.72.6H3015.7c-8.11,0-14.85-.21-23.36-.6-1.18.6-1.58,4.16-.4,4.95l3.17.4c11.68,1.38,12.08,4.35,12.08,24.94V589c0,20.78-1,23.75-12.27,24.74l-6.54.59c-1.19,1.19-.79,4.36.4,5,11.68-.39,18.41-.59,26.92-.59h17.82c17.62,0,35.24.2,53.05.59,2.57-5.34,7.53-20.59,8.91-27.52A3.65,3.65,0,0,0,3090.53,590.36Zm104.74,23.95-4.35-.59c-7.12-1-7.52-3-7.52-17.22v-34c0-13.27-6.73-24.55-23.16-24.55-10.1,0-19.4,5-27.72,10.1a2.07,2.07,0,0,1-2.17-2.18c0-1.78,0-4.75.39-9.3a2.29,2.29,0,0,0-2.18-1.39c-3.95,3-15.24,8.12-19.79,9.7-1,.59-1,2.77-.2,3.56l1.78,1.19c5.35,3.57,5.35,4.55,5.35,12.27V596.5c0,14.25-.2,16.23-7.53,17.22l-4.15.59c-1.39,1-1,4.36.39,5,5.54-.39,11.48-.59,18.61-.59,6.93,0,12.67.2,18,.59,1.38-.59,1.78-4,.39-5l-3.56-.59c-7.13-1.19-7.52-3-7.52-17.22V566.21c0-5.74.39-8.52,3-11.88,2.77-3.76,9.31-6.93,16.83-6.93,13.46,0,18.61,8.32,18.61,19.6v29.5c0,14.25-.2,16-7.52,17.22l-3.76.59c-1.39,1-1,4.36.39,5,5.35-.39,11.28-.59,18.41-.59,6.93,0,12.67.2,18.61.59C3196.26,618.67,3196.66,615.31,3195.27,614.31ZM3288.51,545h-16c-4.36,0-5.74-.39-12.08-3.16a49.37,49.37,0,0,0-19-4c-17.62,0-32.27,12.87-32.27,29.9,0,12.67,8.11,20.39,14.85,23.94,0,1-1,2.59-2,3.77a61.85,61.85,0,0,1-10.5,9.11c-2.17,1.58-3,2.37-3,3.36,0,6.93,6.73,13.66,14.45,15.64,1.78,1.19.19,3-1.59,4.75-4.55,4.55-10.09,9.71-13.46,13.26-1.38,1.58-2.18,4.16-2.18,7.33,0,9.89,8.52,23,32.87,23,25.73,0,49.29-15.83,49.29-37.41,0-19.8-16.63-21.78-27.72-21.78-8.71,0-16.82.59-23.55.59-9.31,0-13.86-3.75-13.86-8.31,0-5.74,6.33-9.5,8.71-10.89a86.62,86.62,0,0,0,8.71.6c25.14,0,33.26-17.82,33.26-31.48a85.11,85.11,0,0,0-.4-10.09h14.25C3290.29,552.75,3290.69,546,3288.51,545Zm-58.4,82.16c2.77-1.78,10.69-2.17,17-2.17h6.73c14.25,0,22.56,5.14,22.56,17.22,0,11.28-11.67,21.18-29.29,21.18-18,0-26.53-8.91-26.53-19.6C3220.61,636.29,3225.36,630.15,3230.11,627.18Zm13.06-38.2c-9.5,0-18-9.11-18-23.16,0-13.47,7.13-22.17,16.63-22.17,12.08,0,17.62,11.27,17.62,24.74C3259.41,580.47,3253.87,589,3243.17,589Zm91.07,25.33-4.16-.59c-7.13-1-7.52-3-7.52-17.22V560.86c0-8.11.39-17.61.79-24.54-.2-.8-1-1.19-2-1.19-4.55,3-15.84,8.12-20.39,9.7-1,.59-1,2.77-.2,3.56l1.78,1.19c5.35,3.57,5.35,4.55,5.35,12.27V596.5c0,14.25-.2,16.23-7.52,17.22l-4.16.59c-1.39,1-1,4.36.39,5,5.55-.39,11.48-.59,18.61-.59,6.93,0,12.67.2,18.61.59C3335.23,618.67,3335.62,615.31,3334.24,614.31Zm-30.49-116.19c0,5.34,4,9.69,10.1,9.69,5.34,0,10.29-3.16,10.29-10.09,0-5.55-3.76-10.1-9.7-10.1C3308.7,487.62,3303.75,491.58,3303.75,498.12Zm134.61,116.19-4.36-.59c-7.12-1-7.52-3-7.52-17.22v-34c0-13.27-6.73-24.55-23.16-24.55-10.1,0-19.4,5-27.71,10.1a2.08,2.08,0,0,1-2.18-2.18c0-1.78,0-4.75.39-9.3a2.29,2.29,0,0,0-2.17-1.39c-4,3-15.25,8.12-19.8,9.7-1,.59-1,2.77-.2,3.56l1.78,1.19c5.35,3.57,5.35,4.55,5.35,12.27V596.5c0,14.25-.2,16.23-7.52,17.22l-4.16.59c-1.39,1-1,4.36.39,5,5.55-.39,11.49-.59,18.61-.59,6.93,0,12.67.2,18,.59,1.38-.59,1.78-4,.39-5l-3.56-.59c-7.13-1.19-7.52-3-7.52-17.22V566.21c0-5.74.39-8.52,3-11.88,2.77-3.76,9.3-6.93,16.82-6.93,13.46,0,18.61,8.32,18.61,19.6v29.5c0,14.25-.19,16-7.52,17.22l-3.76.59c-1.39,1-1,4.36.4,5,5.34-.39,11.28-.59,18.4-.59,6.94,0,12.67.2,18.61.59C3439.35,618.67,3439.75,615.31,3438.36,614.31Zm76.4-13.65c-6.13,7.71-11.67,9.7-18.2,9.7-21.19,0-32.87-17-32.87-37,0-5,.2-5.35,5.35-5.35h36.62c8.32,0,11.09-.19,11.68-1.39a12.1,12.1,0,0,0,.79-5.14c0-11.88-11.08-23.56-28.11-23.56-23.75,0-39.79,20.4-39.79,44.74a42,42,0,0,0,8.32,25.73c5.74,7.53,15.83,13.07,28.7,13.07,10.3,0,24.55-5,31.08-18.41A2.62,2.62,0,0,0,3514.76,600.66Zm-26.92-56.82c11.49,0,15.25,6.93,15.25,12.48,0,2.57-.6,3.36-1.19,3.75-1.58,1.19-5.94,2-20.59,2h-14c-1.39,0-1.39-.6-1.39-1C3466.07,554.53,3476.16,543.84,3487.84,543.84Zm105.32,56.82c-6.14,7.71-11.69,9.7-18.22,9.7-21.18,0-32.86-17-32.86-37,0-5,.2-5.35,5.35-5.35h36.62c8.31,0,11.09-.19,11.68-1.39a12.26,12.26,0,0,0,.79-5.14c0-11.88-11.09-23.56-28.11-23.56-23.75,0-39.79,20.4-39.79,44.74a42,42,0,0,0,8.31,25.73c5.74,7.53,15.84,13.07,28.71,13.07,10.29,0,24.55-5,31.08-18.41A2.61,2.61,0,0,0,3593.16,600.66Zm-26.93-56.82c11.48,0,15.24,6.93,15.24,12.48,0,2.57-.59,3.36-1.18,3.75-1.59,1.19-5.94,2-20.59,2h-14.06c-1.38,0-1.38-.6-1.38-1C3544.46,554.53,3554.55,543.84,3566.23,543.84Zm90.27-5.94c-7.32,0-14.84,6.14-21.77,11.88-.4-.2-.6-.79-.6-1.78V536.52c0-.79-.59-1.19-1.58-1.39a153.75,153.75,0,0,1-20,9.7c-1,.59-1,2.77-.19,3.56l1.78,1.19c5.34,3.57,5.34,4.55,5.34,12.27V596.5c0,14.25-.2,16-7.52,17.22l-3.76.59c-1.39,1-1,4.36.39,5,5.15-.39,11.09-.59,18.22-.59,6.93,0,12.67.2,22,.59,1.39-.59,1.78-4,.4-5l-7.13-.59c-7.52-.59-7.92-3-7.92-17.22V569.57c0-6.72.6-12.47,2.57-15.24a8.82,8.82,0,0,1,7.13-4c2.77,0,5.74,1.19,8.71,3.17a7.64,7.64,0,0,0,4.36,1.38,8.77,8.77,0,0,0,8.51-9.1C3665.41,541.07,3661.45,537.9,3656.5,537.9Zm55,76.41-4.16-.59c-7.13-1-7.52-3-7.52-17.22V560.86c0-8.11.39-17.61.79-24.54-.2-.8-1-1.19-2-1.19-4.55,3-15.84,8.12-20.39,9.7-1,.59-1,2.77-.2,3.56l1.78,1.19c5.35,3.57,5.35,4.55,5.35,12.27V596.5c0,14.25-.2,16.23-7.53,17.22l-4.15.59c-1.39,1-1,4.36.39,5,5.55-.39,11.49-.59,18.61-.59,6.93,0,12.67.2,18.61.59C3712.51,618.67,3712.91,615.31,3711.53,614.31Zm-20.39-106.5c5.34,0,10.29-3.16,10.29-10.09,0-5.55-3.76-10.1-9.7-10.1-5.74,0-10.69,4-10.69,10.5C3681,503.46,3685,507.81,3691.14,507.81Zm124.51,106.5-4.35-.59c-7.13-1-7.53-3-7.53-17.22v-34c0-13.27-6.73-24.55-23.16-24.55-10.09,0-19.4,5-27.71,10.1a2.08,2.08,0,0,1-2.18-2.18c0-1.78,0-4.75.39-9.3a2.29,2.29,0,0,0-2.17-1.39c-4,3-15.25,8.12-19.8,9.7-1,.59-1,2.77-.2,3.56l1.79,1.19c5.34,3.57,5.34,4.55,5.34,12.27V596.5c0,14.25-.2,16.23-7.52,17.22l-4.16.59c-1.39,1-1,4.36.4,5,5.54-.39,11.48-.59,18.61-.59,6.92,0,12.66.2,18,.59,1.38-.59,1.78-4,.39-5l-3.56-.59c-7.13-1.19-7.52-3-7.52-17.22V566.21c0-5.74.39-8.52,3-11.88,2.77-3.76,9.3-6.93,16.83-6.93,13.46,0,18.6,8.32,18.6,19.6v29.5c0,14.25-.19,16-7.52,17.22l-3.76.59c-1.39,1-1,4.36.4,5,5.34-.39,11.28-.59,18.41-.59,6.93,0,12.67.2,18.61.59C3816.64,618.67,3817,615.31,3815.65,614.31ZM3908.89,545h-16c-4.35,0-5.74-.39-12.07-3.16a49.47,49.47,0,0,0-19-4c-17.61,0-32.26,12.87-32.26,29.9,0,12.67,8.11,20.39,14.84,23.94,0,1-1,2.59-2,3.77a61.42,61.42,0,0,1-10.49,9.11c-2.18,1.58-3,2.37-3,3.36,0,6.93,6.73,13.66,14.45,15.64,1.78,1.19.2,3-1.58,4.75-4.56,4.55-10.1,9.71-13.46,13.26-1.39,1.58-2.18,4.16-2.18,7.33,0,9.89,8.51,23,32.86,23,25.73,0,49.29-15.83,49.29-37.41,0-19.8-16.62-21.78-27.71-21.78-8.71,0-16.83.59-23.56.59-9.3,0-13.85-3.75-13.85-8.31,0-5.74,6.33-9.5,8.7-10.89a86.62,86.62,0,0,0,8.72.6c25.13,0,33.25-17.82,33.25-31.48a87.28,87.28,0,0,0-.39-10.09h14.25C3910.67,552.75,3911.06,546,3908.89,545Zm-58.4,82.16c2.77-1.78,10.69-2.17,17-2.17h6.73c14.26,0,22.57,5.14,22.57,17.22,0,11.28-11.68,21.18-29.3,21.18-18,0-26.52-8.91-26.52-19.6C3841,636.29,3845.74,630.15,3850.49,627.18Zm13.06-38.2c-9.5,0-18-9.11-18-23.16,0-13.47,7.13-22.17,16.63-22.17,12.07,0,17.62,11.27,17.62,24.74C3879.79,580.47,3874.24,589,3863.55,589Zm175,21.18c-.6,0-1.59.79-2.58,1.38a11.3,11.3,0,0,1-4.95,1.19c-7.72,0-9.5-8.11-9.11-17.22l1.2-34.45c.59-14.84-6.34-23.16-20.59-23.16-14.45,0-36.82,14.06-36.82,24.35a2.5,2.5,0,0,0,2.77,2.77c3,0,8.31-1.38,11.28-3.76,1.59-1.19,1.78-3.57,2-6.73.4-6.14,7.13-8.9,12.67-8.9,12.28,0,14.65,9.89,14.45,17.22l-.2,9.1c-.19,3-.39,4.75-3.36,5.74l-23.56,8.51c-12.67,4.56-16.43,9.11-16.43,16.83a18.53,18.53,0,0,0,6.14,13.86c3.36,3,8.11,4.55,13.86,4.55,5.54,0,9.9-2.57,14.25-5,4-2.18,6.33-4,7.72-4,1.19,0,2.37,1.59,3.17,2.78a15.79,15.79,0,0,0,12.86,6.13c9.7,0,16.63-7.72,16.63-8.71C4039.93,611.34,4039.34,610.16,4038.55,610.16Zm-30.89-11.88c0,4.16-.19,6.93-2.57,9.3-2,2-8.12,4.95-12.08,4.95-10.09,0-12.47-8.51-12.47-11.87,0-7.73,5.74-10.69,17.42-14.66a37.71,37.71,0,0,1,8.12-2c1.19,0,2,.39,2,2.57Zm129.67,16-4.36-.59c-7.13-1-7.53-3-7.53-17.22v-34c0-13.27-6.73-24.55-23.15-24.55-10.1,0-19.41,5-27.72,10.1a2.08,2.08,0,0,1-2.18-2.18c0-1.78,0-4.75.4-9.3a2.31,2.31,0,0,0-2.18-1.39c-4,3-15.24,8.12-19.79,9.7-1,.59-1,2.77-.2,3.56l1.78,1.19c5.35,3.57,5.35,4.55,5.35,12.27V596.5c0,14.25-.21,16.23-7.53,17.22l-4.16.59c-1.38,1-1,4.36.4,5,5.54-.39,11.48-.59,18.61-.59,6.93,0,12.67.2,18,.59,1.38-.59,1.78-4,.39-5l-3.56-.59c-7.13-1.19-7.53-3-7.53-17.22V566.21c0-5.74.4-8.52,3-11.88,2.77-3.76,9.31-6.93,16.83-6.93,13.46,0,18.61,8.32,18.61,19.6v29.5c0,14.25-.2,16-7.52,17.22l-3.77.59c-1.38,1-1,4.36.4,5,5.34-.39,11.28-.59,18.41-.59,6.93,0,12.67.2,18.61.59C4138.31,618.67,4138.71,615.31,4137.33,614.31Zm103.13-3.56c-3,1-6.34,2-8.51,2-5.55,0-5.75-7.32-5.75-23V502.86c0-8.71.4-18.6.6-24.55a2.18,2.18,0,0,0-2-1.18c-7.13,3.76-16.44,6.73-21.38,8.31-1,.6-1,3.37,0,4l2,1.19c5.94,3.56,6.13,4.75,6.13,16.43v29.89c0,1.58-.19,2.77-1.18,2.77-2.18-.79-6.54-1.78-13.27-1.78-26.92,0-47.9,17.82-47.9,45.53,0,20.79,14.64,38,36.62,38,9.5,0,16.23-3.17,24.94-9.1h.79c.4.79.4,3.16.4,6.14v3.36c0,1,1,1.58,2.18,1.58,5.54-2.18,17.82-5.15,26.13-6.34C4242,616.1,4241.84,611.15,4240.46,610.75Zm-28.91-11.68c0,3.17-.19,6.14-1.38,7.33-3.17,3.17-9.9,5.54-15.25,5.54-19.4,0-29.49-17-29.49-35,0-17.22,9.3-32.86,27.32-32.86a20.64,20.64,0,0,1,16.63,8.31c1.38,2,2.17,3.76,2.17,7.72Zm207.26,15.24-5.34-.59c-8.51-1-11.09-4-16.83-21l-27.12-79.58c-3-8.71-6.14-17.82-8.71-26.53a2.8,2.8,0,0,0-3-1.78c-2.18,2.57-5.55,6.13-10.29,7.52.59,3.17-.6,6.93-3.37,14.06L4324,559.88c-8.32,22.17-13.86,35-17.42,44.14-2.77,7.13-7.13,9.3-11.88,9.7l-6.53.59c-1.19,1-.79,4.17.4,5,5.34-.19,12.46-.59,19-.59,9.3.2,15.44.2,20.58.59,1.79-.78,1.79-4,.4-5l-6.53-.59c-4.75-.4-5.74-1.58-5.74-4,0-2.18,1.39-7.52,4.35-16.43l6.93-20.78c1.39-4.16,2.57-4.75,7.52-4.75H4365c5.95,0,6.74.59,8.12,4.94l8.71,26.93c1.58,4.75,2.58,8.31,2.58,10.49,0,2-2.77,3.16-6.93,3.56l-5.74.59c-1.39,1-1.19,4.17.39,5,5.75-.19,13.27-.59,22.77-.59,8.91,0,15.84.2,24,.59C4419.8,618.48,4420.2,615.31,4418.81,614.31Zm-56.42-54.43h-24.34c-5.55,0-5.75-.2-4.17-4.75l12.47-34.45a121.36,121.36,0,0,1,4.76-11.68h.39a129.44,129.44,0,0,1,4.55,12.47l10.7,32.27C4368.53,559.08,4368.13,559.88,4362.39,559.88Zm111.65-22c-12.66,0-25.14,8.12-27.71,9.3-1.38,0-1.78-1.18-1.78-2.57,0-2.57.4-5.54.79-9.11a2.24,2.24,0,0,0-2.37-1.37c-5.16,3.75-14.46,8.5-19.6,10.68-1,.59-1,2.77-.21,3.56l1.79,1.19c5.35,3.57,5.35,4.55,5.35,12.27V647c0,14.25-.21,16.23-7.53,17.22l-4.16.59c-1.38,1-1,4.36.4,5,5.55-.4,11.48-.6,18.61-.6,6.93,0,12.67.2,22.17.6,1.38-.6,1.78-4,.4-5l-7.72-1c-7.13-1-7.52-2.77-7.52-16.82V626.19c0-4.16,1-5.15,2.76-5.54a75.86,75.86,0,0,0,10.89.79c28.11,0,48.3-19.79,48.3-47.31C4506.9,554.13,4494,537.9,4474,537.9Zm-8.9,77c-4.16,0-10.3-1.39-14.26-4.36-4-3.17-5.93-5.54-5.93-11.88v-34c0-6.54.59-9.5,2.37-11.68,2.18-2.38,8.31-5.55,16.82-5.55,17.82,0,26.73,16,26.73,31.88C4490.87,599.86,4481.37,614.91,4465.14,614.91Zm109.27-77c-12.67,0-25.15,8.12-27.73,9.3-1.38,0-1.77-1.18-1.77-2.57a88.72,88.72,0,0,1,.79-9.11,2.24,2.24,0,0,0-2.37-1.37c-5.16,3.75-14.46,8.5-19.6,10.68-1,.59-1,2.77-.21,3.56l1.79,1.19c5.35,3.57,5.35,4.55,5.35,12.27V647c0,14.25-.21,16.23-7.53,17.22l-4.16.59c-1.38,1-1,4.36.4,5,5.54-.4,11.47-.6,18.61-.6,6.93,0,12.67.2,22.17.6,1.38-.6,1.78-4,.39-5l-7.71-1c-7.13-1-7.53-2.77-7.53-16.82V626.19c0-4.16,1-5.15,2.77-5.54a75.74,75.74,0,0,0,10.89.79c28.12,0,48.3-19.79,48.3-47.31C4607.26,554.13,4594.4,537.9,4574.41,537.9Zm-8.91,77c-4.16,0-10.3-1.39-14.26-4.36-4-3.17-5.94-5.54-5.94-11.88v-34c0-6.54.6-9.5,2.38-11.68,2.17-2.38,8.32-5.55,16.83-5.55,17.81,0,26.72,16,26.72,31.88C4591.23,599.86,4581.73,614.91,4565.5,614.91Zm93-.6-4.75-.59c-7.13-1-7.52-3-7.52-17.22V502.86c0-8.71.39-18.6.59-24.55a2.18,2.18,0,0,0-2-1.18c-7.12,3.76-16.43,6.73-21.38,8.31-1,.6-1,3.37,0,4l2,1.19c5.94,3.56,6.14,4.75,6.14,16.43V596.5c0,14.25-.2,16.23-7.52,17.22l-4.56.59c-1.39,1-1,4.36.39,5,5.95-.39,11.88-.59,19-.59,6.93,0,12.67.2,19.21.59C4659.52,618.67,4659.92,615.31,4658.53,614.31Zm19.79-116.19c0,5.34,4,9.69,10.1,9.69,5.34,0,10.3-3.16,10.3-10.09,0-5.55-3.77-10.1-9.71-10.1C4683.27,487.62,4678.32,491.58,4678.32,498.12Zm30.49,116.19-4.16-.59c-7.13-1-7.52-3-7.52-17.22V560.86c0-8.11.39-17.61.79-24.54-.19-.8-1-1.19-2-1.19-4.55,3-15.83,8.12-20.39,9.7-1,.59-1,2.77-.19,3.56l1.78,1.19c5.34,3.57,5.34,4.55,5.34,12.27V596.5c0,14.25-.2,16.23-7.52,17.22l-4.15.59c-1.39,1-1,4.36.39,5,5.54-.39,11.48-.59,18.61-.59,6.92,0,12.67.2,18.61.59C4709.8,618.67,4710.19,615.31,4708.81,614.31Zm76.6-13.65c-6.13,7.71-11.67,9.7-18.2,9.7-21.18,0-32.87-17-32.87-37,0-5,.2-5.35,5.35-5.35h36.62c8.31,0,11.09-.19,11.68-1.39a12.26,12.26,0,0,0,.79-5.14c0-11.88-11.09-23.56-28.11-23.56-23.75,0-39.79,20.4-39.79,44.74a42,42,0,0,0,8.32,25.73c5.74,7.53,15.83,13.07,28.7,13.07,10.3,0,24.55-5,31.08-18.41A2.62,2.62,0,0,0,4785.41,600.66Zm-26.92-56.82c11.48,0,15.25,6.93,15.25,12.48,0,2.57-.6,3.36-1.19,3.75-1.58,1.19-5.94,2-20.59,2H4737.9c-1.38,0-1.38-.6-1.38-1C4736.72,554.53,4746.81,543.84,4758.49,543.84Zm132,66.91c-3,1-6.33,2-8.52,2-5.54,0-5.74-7.32-5.74-23V502.86c0-8.71.4-18.6.6-24.55a2.18,2.18,0,0,0-2-1.18c-7.13,3.76-16.43,6.73-21.38,8.31-1,.6-1,3.37,0,4l2,1.19c5.94,3.56,6.14,4.75,6.14,16.43v29.89c0,1.58-.2,2.77-1.19,2.77-2.18-.79-6.53-1.78-13.27-1.78-26.91,0-47.9,17.82-47.9,45.53,0,20.79,14.65,38,36.63,38,9.5,0,16.22-3.17,24.94-9.1h.79c.39.79.39,3.16.39,6.14v3.36c0,1,1,1.58,2.18,1.58,5.54-2.18,17.81-5.15,26.14-6.34C4892.11,616.1,4891.92,611.15,4890.53,610.75Zm-28.9-11.68c0,3.17-.2,6.14-1.39,7.33-3.17,3.17-9.9,5.54-15.24,5.54-19.4,0-29.5-17-29.5-35,0-17.22,9.31-32.86,27.33-32.86a20.64,20.64,0,0,1,16.62,8.31c1.39,2,2.18,3.76,2.18,7.72Zm142.72-51.87-15.84-9.89c-7.32-4.75-16.82-12.87-16.82-24.35,0-9.11,4.15-22,23.55-22,19,0,24.35,12.87,26.92,22.38,1,1.19,4.16.59,4.95-.6,0-8.31-1.78-19.4-3.56-24.15a38.6,38.6,0,0,1-6.93-1.19,67.94,67.94,0,0,0-18.41-2.57c-25.73,0-40.38,15.24-40.38,34,0,16.24,11.48,27.53,21.38,34.06l18.8,12.27c14.46,9.3,16.24,19,16.24,27.71,0,11.88-8.12,22.77-24.75,22.77-23,0-31.08-19.4-34.05-29.5-.79-1.18-3.76-.79-4.75.6.4,9.3,3,23.36,5.35,27.71,3.76,2.18,14.25,7.33,30.88,7.33,25.73,0,42.16-14.85,42.16-36.63C5029.09,566.41,5016.82,554.92,5004.35,547.2Zm110.26,51.28c-4.56,6.73-10.49,11.88-22,11.88-21.18,0-31.87-18.41-31.87-33.86,0-21,13.46-31.87,27.32-31.87,8.11,0,15.43,5.15,19.79,10.5a3.47,3.47,0,0,0,2.77,1.38c2.38,0,4.36-3.76,4.36-7.33,0-3.36-1.39-6.53-3-7.92-5.35-2.37-13.07-3.36-17.62-3.36-32.86,0-47.91,22.77-47.91,44.15,0,12.86,4.55,22.57,11.48,29.29s16.64,10.1,27.12,10.1c11.48,0,26.34-5.54,33.06-20.19A3.11,3.11,0,0,0,5114.61,598.48Zm49.69,15.83-4.16-.59c-7.13-1-7.53-3-7.53-17.22V560.86c0-8.11.4-17.61.8-24.54-.2-.8-1-1.19-2-1.19-4.56,3-15.84,8.12-20.39,9.7-1,.59-1,2.77-.2,3.56l1.79,1.19c5.34,3.57,5.34,4.55,5.34,12.27V596.5c0,14.25-.21,16.23-7.53,17.22l-4.15.59c-1.38,1-1,4.36.39,5,5.55-.39,11.48-.59,18.61-.59,6.93,0,12.67.2,18.61.59C5165.28,618.67,5165.68,615.31,5164.3,614.31Zm-10.1-116.59c0-5.55-3.77-10.1-9.7-10.1-5.74,0-10.69,4-10.69,10.5,0,5.34,3.95,9.69,10.1,9.69C5149.25,507.81,5154.2,504.65,5154.2,497.72Zm86.7,102.94c-6.14,7.71-11.68,9.7-18.21,9.7-21.18,0-32.86-17-32.86-37,0-5,.19-5.35,5.34-5.35h36.62c8.32,0,11.09-.19,11.69-1.39a12.26,12.26,0,0,0,.79-5.14c0-11.88-11.09-23.56-28.11-23.56-23.75,0-39.79,20.4-39.79,44.74a42,42,0,0,0,8.31,25.73c5.74,7.53,15.84,13.07,28.7,13.07,10.3,0,24.55-5,31.08-18.41A2.61,2.61,0,0,0,5240.9,600.66ZM5214,543.84c11.48,0,15.24,6.93,15.24,12.48,0,2.57-.59,3.36-1.19,3.75-1.58,1.19-5.94,2-20.58,2h-14.06c-1.38,0-1.38-.6-1.38-1C5192.2,554.53,5202.3,543.84,5214,543.84Zm132.83,70.47-4.36-.59c-7.12-1-7.53-3-7.53-17.22v-34c0-13.27-6.72-24.55-23.15-24.55-10.1,0-19.4,5-27.72,10.1a2.07,2.07,0,0,1-2.17-2.18c0-1.78,0-4.75.39-9.3a2.29,2.29,0,0,0-2.18-1.39c-3.95,3-15.24,8.12-19.79,9.7-1,.59-1,2.77-.2,3.56l1.79,1.19c5.34,3.57,5.34,4.55,5.34,12.27V596.5c0,14.25-.2,16.23-7.52,17.22l-4.16.59c-1.39,1-1,4.36.39,5,5.55-.39,11.48-.59,18.62-.59,6.92,0,12.67.2,18,.59,1.38-.59,1.77-4,.39-5l-3.56-.59c-7.13-1.19-7.52-3-7.52-17.22V566.21c0-5.74.39-8.52,3-11.88,2.78-3.76,9.31-6.93,16.83-6.93,13.46,0,18.61,8.32,18.61,19.6v29.5c0,14.25-.2,16-7.52,17.22l-3.76.59c-1.39,1-1,4.36.39,5,5.35-.39,11.29-.59,18.41-.59,6.93,0,12.67.2,18.61.59C5347.8,618.67,5348.19,615.31,5346.81,614.31ZM5427,598.48c-4.56,6.73-10.49,11.88-22,11.88-21.18,0-31.87-18.41-31.87-33.86,0-21,13.46-31.87,27.32-31.87,8.12,0,15.44,5.15,19.79,10.5a3.5,3.5,0,0,0,2.78,1.38c2.37,0,4.35-3.76,4.35-7.33,0-3.36-1.38-6.53-3-7.92-5.34-2.37-13.06-3.36-17.62-3.36-32.86,0-47.9,22.77-47.9,44.15,0,12.86,4.55,22.57,11.48,29.29s16.63,10.1,27.12,10.1c11.48,0,26.33-5.54,33.06-20.19A3.12,3.12,0,0,0,5427,598.48Zm75.41,2.18c-6.13,7.71-11.68,9.7-18.21,9.7-21.18,0-32.86-17-32.86-37,0-5,.2-5.35,5.35-5.35h36.62c8.31,0,11.09-.19,11.68-1.39a12.26,12.26,0,0,0,.79-5.14c0-11.88-11.09-23.56-28.11-23.56-23.75,0-39.79,20.4-39.79,44.74a41.93,41.93,0,0,0,8.32,25.73c5.74,7.53,15.83,13.07,28.7,13.07,10.29,0,24.55-5,31.08-18.41A2.62,2.62,0,0,0,5502.39,600.66Zm-26.92-56.82c11.48,0,15.24,6.93,15.24,12.48,0,2.57-.59,3.36-1.18,3.75-1.58,1.19-5.94,2-20.59,2h-14.06c-1.38,0-1.38-.6-1.38-1C5453.7,554.53,5463.8,543.84,5475.47,543.84ZM2750.29,429.37h7.2V0h-7.2ZM403.74,609.31l-40.45-73.64H298.44l53.92,102.11a53.5,53.5,0,0,0,8.73,12c2.59,2.41,6.93,5.87,16.3.81l11.64-6.3,11.69-6.23c9.41-5,8.8-10.53,8.44-14.06S406.37,614.3,403.74,609.31ZM112.21,164.14l-7.75,4.16L122.26,202c23.33,5.93,46.12,14.75,69.59,21.58l-43.08-78.41C135.8,152.32,122.6,159,112.21,164.14ZM51,65.68l9-4.31c9.3-4.82,21-10.78,33-16.51A82.94,82.94,0,0,0,88,37.48c-2.3-2.62-6.38-6.17-14.07-2l-9.54,5.13-9.59,5c-7.73,4.05-7.11,9.43-6.24,12.83C48.91,60,49.9,62.72,51,65.68ZM78.65,170.49c7.36-3.7,14.51-7.52,21.12-11.06,3.67-2,7.17-3.86,10.44-5.59,9.56-4.76,21.76-10.91,33.73-17.46,15.46-8.45,30.52-17.55,39-25.15,4.46-4,10.38-11.18,2.79-26-.43-.83-4.88-9.51-9.41-18.36s-8.85-17.6-9.26-18.43c-7.47-14.87-16.77-14.32-22.61-13.07-11.8,2.51-29.31,10-46.14,18C87,58.77,75.9,64.42,67.12,69c-3.82,1.86-8,3.85-12.37,6-6.28,3-13,6.26-19.68,9.69l-35,71.77h0ZM412,168.8c-7.72-3.55-14.92-7.28-21.64-11.08-6.73-3.55-14.33-8.06-22.09-13.12l-42.75,77.81c23.35-7,46.09-15.75,69.43-21.32ZM465.21,66.86c1.32-3.24,2.52-6.36,3-8,.93-3.38,1.65-8.75-6-13-.44-.22-4.93-2.69-9.51-5.19L443.2,35.4c-7.61-4.28-11.76-.8-14.09,1.79a80.32,80.32,0,0,0-5.33,7.44c8.2,3.71,15.85,7.56,22.3,11.2C452.3,59.12,458.7,62.77,465.21,66.86ZM113,609.31c-2.64,5-5.07,11.31-5.43,14.72s-1,9.07,8.45,14.06l11.68,6.23c5.6,3,11.12,6,11.63,6.3,9.39,5.06,13.71,1.6,16.3-.81a52.88,52.88,0,0,0,8.74-12l53.91-102.11H153.48Zm221.13-504c10,9.94,24.77,21,39.09,30.29,7.72,5,15.31,9.5,21.94,13,6.7,3.78,13.91,7.51,21.67,11.08a270.17,270.17,0,0,0,47.29,16.65c5.06,1.34,13.28,1.9,20.52-11.33.82-1.52,17.67-32.31,18.48-33.83,7.23-13.23,2.31-19.84-1.53-23.39a269.19,269.19,0,0,0-40.71-31.53C454.12,72,447.47,68.13,441,64.73c-6.5-3.66-14.31-7.59-22.62-11.36-15.6-7.08-33-13.58-46.79-16.62-5.08-1.34-13.3-1.9-20.53,11.32-.83,1.52-17.65,32.32-18.49,33.83C325.39,95.12,330.3,101.75,334.16,105.3ZM449.5,206.83a155.89,155.89,0,0,0-35.39,1.37,235.63,235.63,0,0,0-25.73,5.4c-23.4,6.18-46.31,15.1-69.95,21.8-8.36,2.37-16.82,4.46-25.42,6l-1.81.34c-4.34.77-10.17-8.46-15.44-13.73,25.15-18.95,21.74-56.1-7.37-72.14-2-2.31-1.28-23.69-.13-24.64,2.37-2,20.93,1.56,23.57-.72s2.11-24.57.42-26.71-22.62.16-23.79-1.28.58-21.46-1.39-23c-1.42-1.14-7.22-1.25-10.44-1.23s-9,.09-10.45,1.23c-2,1.58-.21,21.61-1.38,23s-22.1-.84-23.8,1.28-2.2,24.41.43,26.71,21.21-1.26,23.56.72c1.16.95,1.88,22.33-.12,24.64-29.1,16-32.52,53.19-7.39,72.14-5.27,5.27-11.1,14.5-15.42,13.73-.88-.15-1.76-.33-2.64-.5-6.9-1.3-13.71-2.92-20.46-4.74-23.73-6.43-46.65-15.36-70-21.84-7.48-2.08-15-3.89-22.6-5.29a161,161,0,0,0-42.62-2.59C32.48,209.33,6.93,231.36,1.49,263-8.3,320,32.61,363.73,52.49,412.07c6.27,15.25,11.77,35.76,10.79,53.4H450c-1-17.64,4.52-38.15,10.8-53.4,19.86-48.34,60.77-92.12,51-149.07C506.33,231.36,480.78,209.33,449.5,206.83Zm-216,182.27c-.08.46-.18.91-.26,1.36a92.65,92.65,0,0,1-3.91,14.34c-4.68,12.85-11.67,22.32-18.94,27.26a20.13,20.13,0,0,1-11,3.87c-8.67,0-15.62-3.24-21.94-8.77-8.7-7.62-15.8-20.15-13.52-27.56,1.92-2.49,25.37,1.09,27-1.24s-2.86-20.59-5.51-22.95-23.81.8-26.65-1.53-5.46-24.94-8.36-26.34c0,0-2.81-.42-6.5-.82-6.75-.72-16.47-1.39-17.51.68-1.64,3.21,7.56,22.08,6,25.3s-31.21-2.81-31.74.52,1.71,20,4.55,22.42,30.52,2.63,30.52,2.63c5.74,4.39,7.26,13.31,7.28,22.44.05,11.58-9,17.57-23.33,13.55-26.79-7.5-60-65.61-79.72-105.85-14.47-29.58-23.21-78,14.81-92.47,23.18-8.83,47.5-3.84,72.44,3.58,2.85.84,5.8,1.72,8.81,2.63s5.84,1.77,8.83,2.7c22.55,7,47.29,15.61,63.27,25.53,5,3.09-5.93.62,12.09,40.57C228.62,329.53,237,369.11,233.51,389.1Zm239.75-60.69c-19.7,40.24-52.9,98.35-79.7,105.85-12.56,3.51-21-.62-22.93-9.44a18.6,18.6,0,0,1-.41-4.11c0-5.61.61-11.14,2.38-15.59a15.79,15.79,0,0,1,4.91-6.85s27.66-.16,30.52-2.63,5.06-19.08,4.53-22.42-30.16,2.71-31.73-.52,7.63-22.09,6-25.3c-.61-1.2-4.13-1.48-8.29-1.36a157.42,157.42,0,0,0-15.73,1.5c-2.89,1.4-5.53,24-8.35,26.34s-24-.83-26.65,1.53-7.18,20.63-5.52,22.95,25.12-1.25,27.06,1.24c2.27,7.41-4.83,19.94-13.53,27.56-6.32,5.53-13.28,8.79-21.94,8.77a17.06,17.06,0,0,1-6.05-1.23c-8.21-3.18-16.64-12.42-22.41-26.09a90.19,90.19,0,0,1-5.66-19.51,56,56,0,0,1-.71-6.79c-1.06-21.17,6.47-54.7,14-71.36,18-39.95,7.11-37.48,12.1-40.57,17-10.54,43.82-19.6,67.44-26.82,4.65-1.42,9.18-2.77,13.48-4q1.63-.5,3.27-1c23.78-6.87,47-11.06,69.15-2.62C496.5,250.44,487.75,298.83,473.26,328.41ZM58.93,525.5H454.32V491.93H58.93Z"/></svg>