<svg xmlns="http://www.w3.org/2000/svg" viewBox="0 0 1819.8 296"><defs><style>.cls-1{fill:#231f20;}</style></defs><g id="Layer_4_copy_2" data-name="Layer 4 copy 2"><path class="cls-1" d="M237.37,123.6h104.2v9.57H237.37ZM347.44,92.53c-3.43,6.82-5.85,14.76-5.85,21.07H237.28c0-6.31-2.44-14.25-5.85-21.07-4.82-9.72-20.35-33.35-7-48,11.13-12.28,30.73-4.57,52.91,3.37A3.64,3.64,0,0,0,281,47a20.21,20.21,0,0,1,3-2.33,12,12,0,0,1-5.22-8.58c-.85-6.51,3.18-12.56,9-13.51l-3.93-5.65a2,2,0,0,1,0-2l4.87-7a.87.87,0,0,1,.26-.28.79.79,0,0,1,1.16.28l4.87,7.18a1.94,1.94,0,0,1,0,1.95l-3.93,5.58a10.73,10.73,0,0,1,7.54,5.7c3,5.66,1.32,13-3.75,16.31a19.55,19.55,0,0,1,3,2.33,3.69,3.69,0,0,0,3.68,1c22.2-7.94,41.8-15.57,52.93-3.37C367.86,59.18,352.33,82.81,347.44,92.53ZM278.08,66.59a22.48,22.48,0,0,1-1.87-9.68c-17.11-8.72-39.12-18-47.51-6.26-5,7.08-2.86,16.23,3.94,29.29s13.41,25.65,21.71,25.65c2.38,0,6.6-2.52,5-9.46l-7.81-8.82a2.35,2.35,0,0,1-.56-2.44l4.94-11.73c.29-.71.84-.67,1.43,0l10.51,11.73a2.34,2.34,0,0,1,.44,2.46L265,96c1.27,5.65,4.6,9.87,8.65,9.56C281.09,105,287.17,89.05,278.08,66.59Zm72.21-15.94c-8.38-11.81-30.41-2.46-47.52,6.26a22.68,22.68,0,0,1-1.93,9.68c-9.09,22.46-3,38.45,4.47,38.94,4,.22,7.37-3.87,8.63-9.56l-3.29-8.64a2.32,2.32,0,0,1,.44-2.46l10.5-11.73c.6-.67,1.14-.71,1.42,0l5,11.73a2.41,2.41,0,0,1-.56,2.44l-7.83,8.82c-1.63,6.94,2.59,9.46,5,9.46,8.3,0,14.93-12.59,21.71-25.65C352.92,67.11,355.27,57.73,350.29,50.65ZM81.28,9.47q-32.93,0-53.67,24.46-16.86,20-16.85,45.46,0,28.42,20.13,48.57,20.24,20,48.83,20a72.72,72.72,0,0,0,36.3-9.76V113.87a101.49,101.49,0,0,1-9.37,7.09,52.12,52.12,0,0,1-8.6,4.66q-7.44,3.47-18.07,3.46-20.57,0-34.74-14.43T31.07,79.21q0-21.25,14.17-35.95A46,46,0,0,1,79.9,28.48q18.66,0,36.12,14.61V19.23A68.13,68.13,0,0,0,81.28,9.47Zm95.14,0q-17.11,0-28.61,10.2a32.14,32.14,0,0,0-11.49,25.15q0,22.29,27.39,33.88l12.88,5.35a58.38,58.38,0,0,1,8.64,4.54,27.06,27.06,0,0,1,5.92,5.1,18.07,18.07,0,0,1,3.37,6,22.45,22.45,0,0,1,1.08,7.13q0,9.69-6.22,16a21,21,0,0,1-15.64,6.31q-11.93,0-18.15-8.64-3.47-4.5-4.84-16.25l-20.4,4.5q2.78,18.66,13.92,28.95,11.31,10.29,28.69,10.28,18.31,0,30.68-12.1t12.27-30.42q0-13.74-7.52-23.2t-23.76-16l-13.31-5.44Q156.8,54.75,156.8,45a14.72,14.72,0,0,1,5.53-11.75,20.58,20.58,0,0,1,13.91-4.76q6.82,0,11.15,2.77,4.16,2.41,8.73,10.37l16.34-9.68Q199.49,9.47,176.42,9.47Zm50.33,169.22a60.05,60.05,0,0,0-41.4-16.08c-35.49,0-63.95,28.1-63.95,63.58,0,34.38,27.35,63.39,64.32,63.39a61.92,61.92,0,0,0,41-15.34V263.52a57.33,57.33,0,0,1-41.4,18.67c-24.95,0-55.45-19-55.45-55.63,0-31.23,23.66-56.55,55.26-56.55a54.59,54.59,0,0,1,41.59,19.4Zm22-14.41v77.07c0,13.49.74,22.36,7,31.6,9.24,13.49,23.84,16.63,34.93,16.63s25.69-3.14,34.93-16.63c6.28-9.24,7-18.11,7-31.6V164.28h-8.13v77.07c0,11.64-.56,19.22-5.18,26.61-7.21,11.64-20.7,14.23-28.64,14.23S269.26,279.6,262.05,268c-4.62-7.39-5.17-15-5.17-26.61V164.28ZM75.19,199.87l-1,7.5a22.21,22.21,0,0,0-18.3-8.78,26.88,26.88,0,0,0-20.53,8.78q-8.16,8.58-8.17,21.88,0,12.36,7.3,20.33a24.25,24.25,0,0,0,18.57,8q10.19,0,18.5-8.51,3.11,8.18,11.75,8.17,10.8,0,18.84-11.14t8-26.4q0-19.92-14.65-33.16T59,173.2q-23.7,0-39.84,15.53T3,227.16a56.79,56.79,0,0,0,5.81,24.71,51.51,51.51,0,0,0,16.34,19Q39.4,281,60.54,281a83.54,83.54,0,0,0,36.73-8.5l.81-.41-3.51-9.72-1,.54q-17.3,8-33.09,8-16.89,0-28.09-8.1a41.72,41.72,0,0,1-13-15.47A48.39,48.39,0,0,1,14.75,227q0-18.84,12.76-31.6t31.61-12.83q18,0,29.51,10.73t11.61,27.22a36.56,36.56,0,0,1-4.72,18.64q-4.8,8.3-10.67,8.3c-2.8,0-4.19-1.69-4.19-5.06,0-1,0-2.15.1-3.35s.19-2.44.37-3.74l4.26-35.46Zm-9,40q-5.41,6-12.5,6a10.93,10.93,0,0,1-9-4.53q-3.53-4.52-3.52-11.54,0-8.12,4.39-13.31a13.76,13.76,0,0,1,11.15-5.26,14.91,14.91,0,0,1,10.67,4.18,14.1,14.1,0,0,1,4.25,10.47A20.28,20.28,0,0,1,66.21,239.92Zm429.68-25.8c8.73,0,19.09-1,24.54-3.14,2.46-1.09,2.73-1.36,3.55-3.95a142.35,142.35,0,0,0,3-17.45c0-1.09-.28-2.05-1-2.05s-1.09.55-1.36,2.05c-.41,2.45-2.18,8.45-5,11.45-5.46,5.59-13.5,6.82-23.73,6.82-29.17,0-49.22-23.86-49.22-49.9,0-13.91,2.32-26,12.28-35.59,4.77-4.63,13.22-10,31.35-10,12,0,22.5,3.68,27.27,7.77,3.55,3,5.73,8.59,5.73,13.91,0,1.91.13,2.86,1.09,2.86s1.09-.82,1.22-2.86.14-9.55.41-14c.28-4.91.69-6.55.69-7.64,0-.82-.28-1.36-1.78-1.5a118.64,118.64,0,0,1-13.9-2,116.62,116.62,0,0,0-19.77-1.64c-21,0-33.41,6.41-41.59,14.59C437.54,134,434.4,149.9,434.4,159c0,13,3.28,28.49,16.5,40.35C461.67,209.07,475.44,214.12,495.89,214.12Zm45.55-46c0,20.86,14,45.54,46.89,45.54,28.91,0,48.13-21.41,48.13-47.31,0-27-20.45-43.49-47.44-43.49C555.89,122.91,541.44,149.5,541.44,168.17Zm12.4-3.13c0-25.23,14.45-37.77,34.49-37.77,19,0,35.86,14.59,35.86,42.4,0,33.54-21.68,39.27-32.45,39.27C570.07,208.94,553.84,192,553.84,165Zm191.83-39c-.27-2.18-.95-3.13-1.77-3.13s-1.36.82-1.91,1.91l-34.9,71.85-36.26-72a2.75,2.75,0,0,0-2.46-1.77c-.68,0-1.23.82-1.36,2l-8.73,75.67c-.54,4.36-.68,8.59-4.63,9.27a22.43,22.43,0,0,1-3.55.41c-.68,0-1.22.41-1.22.82,0,.82.81,1.09,2,1.09,3.27,0,9-.41,10.09-.41s6.68.41,11.18.41c1.36,0,2.18-.27,2.18-1.09,0-.41-.55-.82-1-.82a19.25,19.25,0,0,1-4.64-.68,3.24,3.24,0,0,1-2.86-3.27c0-1.91,0-4.09.13-5.87l4.64-52.35h.54c2,4.77,11.73,24.27,15.27,31.63,3,6.27,10.91,21.13,14,26.86,2.31,4.23,3,5.32,4.09,5.32s1.77-1.09,4.22-6.14l28.91-59.17H738l5.73,58.9c.27,2.18.13,3.95-.55,4.09a1,1,0,0,0-.82.95c0,.55.55,1,3.41,1.23,4.36.41,17.72.55,20.45.55,1.36,0,2.45-.41,2.45-1.09s-.4-.82-1-.82a25.3,25.3,0,0,1-7.77-1.09c-4.91-1.64-5.73-7.91-6.14-12ZM790,178.53c0,11.18,0,20.32-.68,25.09-.55,3.41-.82,5.59-3.14,6.14a17.31,17.31,0,0,1-3.68.54.93.93,0,0,0-1,1c0,.68.68,1,1.91,1,3.68,0,11.45-.41,11.86-.41s8.45.41,15,.41c1.37,0,1.91-.41,1.91-1a.93.93,0,0,0-1-1,44.48,44.48,0,0,1-5.32-.54c-3.68-.55-4.36-2.73-4.77-6.14-.55-4.77-.55-13.91-.55-25.09V131.36c0-1.23.28-2,1-2.18a40.8,40.8,0,0,1,6.68-.82c2.73,0,10-.68,16.22,5.59s6.82,13.77,6.82,17.59c0,10.5-9.27,18.68-22.22,18.68-2.46,0-3.14.27-3.14,1.23a1.31,1.31,0,0,0,1.23,1.09,29.82,29.82,0,0,0,3.41.13c18.4,0,30.95-11,30.95-27.67a19.55,19.55,0,0,0-6-13.91c-2-1.77-7.5-6.55-22.91-6.55-5.45,0-14.45.28-17,.28-1,0-8.45-.28-13.91-.28-1.36,0-1.91.28-1.91,1a1.16,1.16,0,0,0,1,1,37.72,37.72,0,0,1,4.09.28c4,.54,4.63,2.45,4.91,6.4.27,3.69.27,7,.27,25Zm73.76-3.4c0,16.9,4.64,25,10.5,30.4,8.45,7.91,21,8.18,25,8.18,7.09,0,16.36-1,25.09-8.45,9.54-8.18,11.17-22.23,11.17-34.77V158.08c0-18-.13-21.26.14-25s.95-5.72,4.23-6.4a13.65,13.65,0,0,1,3-.28,1,1,0,0,0,.95-1c0-.68-.54-1-1.91-1-3.54,0-9.27.28-10.09.28s-7.63-.28-12.95-.28c-1.36,0-1.91.28-1.91,1a1,1,0,0,0,1,1,37.72,37.72,0,0,1,4.09.28c3.95.54,4.63,2.72,4.77,6.4s.27,7,.27,25v14.59c0,11.86-1.23,21.41-6.82,28.09-4.09,4.91-11.18,8.18-18.54,8.18-6.81,0-12-1-17.86-6.27-5.18-4.64-8.86-11.59-8.86-28.36V158.08c0-18,0-21.26.27-25s1-5.86,4.09-6.4a13.65,13.65,0,0,1,3-.28,1.16,1.16,0,0,0,1.09-1c0-.68-.68-1-2-1-3.55,0-11.05.28-12.14.28s-8.31-.28-13.77-.28c-1.36,0-1.9.28-1.9,1a1.15,1.15,0,0,0,1,1,37.55,37.55,0,0,1,4.09.28c3.95.54,4.64,2.72,4.91,6.4s.27,7,.27,25Zm132.12-45.27,15,.27c11.46.28,14.05,2.87,14.45,6.41l.14,1.23c.14,1.64.41,2,1,2s1.09-.54,1.09-1.5c0-1.36.41-9.67.41-13.22,0-.68,0-1.36-.55-1.36s-1.64.27-3.41.54a59.83,59.83,0,0,1-8.59.55H970.1c-1.37,0-6-.14-9.41-.55s-4.5-1.36-5.32-1.36c-.41,0-1.09,1.5-1.22,2.18-.28,1-2.59,11.32-2.59,12.54a.91.91,0,0,0,.81,1c.55,0,1-.14,1.23-1.09a18.9,18.9,0,0,1,1.91-3.68c1.77-2.73,4.64-3.55,12.13-3.69l17.32-.27v48.67c0,11.18,0,20.32-.55,25.09-.41,3.41-1.09,5.73-3.54,6.27a15.6,15.6,0,0,1-3.55.55c-.68,0-1,.41-1,.82,0,.68.55,1,1.91,1,3.54,0,11.86-.41,12.4-.41.69,0,8.32.41,14.87.41,1.36,0,1.9-.41,1.9-1a.85.85,0,0,0-1-1,46.17,46.17,0,0,1-5.45-.54c-3.68-.55-4.23-2.73-4.64-6.14-.54-4.77-.54-13.91-.54-25.09Zm57,48.67c0,11.18,0,20.32-.69,25.09-.54,3.41-.81,5.73-3.13,6.14a35.88,35.88,0,0,1-3.68.54.94.94,0,0,0-1,1c0,.68.69,1,1.91,1,1.91,0,4.64-.14,7-.27,2.59-.14,4.9-.14,5.18-.14,1.77,0,4.9,0,10,.27s11.86.41,20.86.41c4.63,0,5.86,0,6.68-3a96.39,96.39,0,0,0,1.64-11.18c0-.81-.14-1.77-.82-1.77s-1,.41-1.23,1.77c-.68,4.64-2.32,6.68-5.45,8-3.14,1.22-8.87,1.22-12,1.22-11.86,0-14-1.5-14.32-9.27-.13-2.31,0-15.81,0-19.77v-9.68a.72.72,0,0,1,.82-.81c2.05,0,14.86.13,18.13.54,4.64.55,5.73,1.91,6.14,3.55a10.17,10.17,0,0,1,.55,3.81c0,.69.27,1.1.81,1.1.82,0,1.09-1.23,1.09-2.19,0-.81.28-5.18.55-7.5a63,63,0,0,1,1-6.4c0-.68-.27-1-.68-1s-.95.68-1.77,1.5c-1.23,1.23-3,1.37-5.86,1.64s-18.54.27-20,.27c-.69,0-.69-.41-.69-1.23V130.68c0-.82.14-1.23.69-1.23,1.36,0,15.27.14,17.31.41,6.54.82,7.77,1.64,8.59,3.55a12.82,12.82,0,0,1,.68,4.09c0,.95.27,1.5,1,1.5.54,0,1-.69,1.09-1.23.27-1.36.54-6.54.68-7.64.27-3.27,1-4.63,1-5.45,0-.54-.13-1.09-.54-1.09a7.54,7.54,0,0,0-1.64.55c-1,.13-3.13.54-5.45.68-2.73.13-27.82,0-28.63,0s-8.46-.28-13.91-.28c-1.36,0-1.91.28-1.91,1a1.16,1.16,0,0,0,1,1,37.72,37.72,0,0,1,4.09.28c4,.54,4.63,2.45,4.9,6.4.28,3.69.28,7,.28,25Zm75.12,0c0,11.18,0,20.32-.68,25.09-.55,3.41-.82,5.59-3.14,6.14a17.31,17.31,0,0,1-3.68.54.93.93,0,0,0-1,1c0,.68.68,1,1.91,1,3.68,0,11.72-.41,11.86-.41.54,0,8.18.41,14.72.41,1.37,0,1.91-.41,1.91-1a.85.85,0,0,0-1-1,44.48,44.48,0,0,1-5.32-.54c-3.68-.55-4.36-2.73-4.77-6.14-.55-4.77-.55-13.77-.55-25v-2.73c0-.68.28-.95.82-.95l15.27.27a1.86,1.86,0,0,1,1.64.68c2.59,3.14,7.9,10.64,13,16.91,6.82,8.73,11.18,14.32,16.36,17,3,1.64,6,2.32,12.82,2.32h7.49c2.19,0,2.87-.27,2.87-1a1.06,1.06,0,0,0-1.09-1,22.05,22.05,0,0,1-4.23-.41c-3-.41-7-1.5-13.36-8-7-7.23-15.27-17.73-25.09-30,11.18-9.54,14.73-17.86,14.73-26.45,0-8-5.32-13.63-8.32-15.81-6.27-4.36-14.72-5-22.36-5-3.68,0-13.77.28-15,.28-.68,0-8.72-.28-14.17-.28-1.37,0-1.91.28-1.91,1a1.15,1.15,0,0,0,1,1,37.55,37.55,0,0,1,4.09.28c4,.54,4.64,2.45,4.91,6.4.27,3.69.27,7,.27,25Zm10.36-47.85a1.48,1.48,0,0,1,1-1.36,51.51,51.51,0,0,1,8.59-.68c12.81,0,20.72,8.31,20.72,22.76,0,8.87-3.14,15-7.23,17.73-2.86,1.91-6.13,2-9,2-5.32,0-11.46-.82-13.23-1.77a1.73,1.73,0,0,1-.82-1.5Zm138.25,83.44c7.37,0,14.73-1.64,20.59-5.73,9.41-6.68,11.59-17,11.59-22.63,0-10.91-3.82-19.36-19.9-32l-3.82-3c-13.09-10.22-16.63-15.13-16.63-22.9,0-10,7.36-15.82,16.76-15.82,12.55,0,16.23,5.73,17,7.23A24.36,24.36,0,0,1,1304,126c.13,1.1.27,1.78,1.09,1.78s1-1,1-3.14c0-9.27.55-13.77.55-14.45s-.27-1-1.36-1a22.16,22.16,0,0,1-4.78-.69,53.24,53.24,0,0,0-12.68-1.36c-17.31,0-28.22,10-28.22,24.54,0,9.27,3.28,17.73,17.73,29.59l6.13,5c11.73,9.68,15.68,15.13,15.68,24.54,0,8.73-6.41,18.13-19.5,18.13-9.13,0-18.13-3.81-20.17-13.9a24,24,0,0,1-.41-5c0-1.09-.14-1.5-1-1.5s-1,.68-1.09,2.18c-.13,2.19-.68,7.64-.68,14.46,0,3.68.14,4.22,2,5.18C1263.92,213.16,1270.19,214.12,1276.59,214.12Zm105.53-.41c7.77,0,16.77-.68,21.68-2.59,2-.82,2.32-1.23,3-3.41a120.66,120.66,0,0,0,2.86-14.86c0-.82-.54-1.64-1.09-1.64-.82,0-1,.41-1.23,1.64-.41,2.18-2,7.09-4.63,9.68-4.77,4.77-10.77,5.45-19.77,5.45-25.63,0-43.22-19.77-43.22-42,0-11.72,1.91-22.08,10.77-30.27,4.23-3.95,11.59-8,27-8,10.63,0,19.36,2.86,23.58,6.41,3.14,2.45,5,7.09,5,11.59,0,1.63.13,2.45,1,2.45s1.23-.68,1.36-2.45.14-8.05.28-11.86c.27-4.23.54-5.59.54-6.55,0-.68-.27-1.23-1.5-1.23a84.74,84.74,0,0,1-12.27-1.77,118.28,118.28,0,0,0-17.45-1.36c-18.4,0-29.31,5.45-36.54,12.41A45.76,45.76,0,0,0,1328,167c0,11,2.86,24.26,14.58,34.35C1352,209.48,1364.12,213.71,1382.12,213.71Zm67-55.63c0-18,0-21.26.13-25,.28-4.09,1-5.72,4.23-6.4a13,13,0,0,1,3-.28,1.15,1.15,0,0,0,1-1c0-.68-.54-1-1.91-1-3.68,0-11.45.28-12,.28-.69,0-8.18-.28-12.14-.28-1.36,0-1.91.28-1.91,1a1,1,0,0,0,1,1,21.67,21.67,0,0,1,3.68.41c2.59.55,3.54,2.32,3.82,6.27.27,3.69.27,7,.27,25v20.45c0,11.18-.14,20.32-.68,25.09-.41,3.41-.82,5.59-3.14,6.14a17.31,17.31,0,0,1-3.68.54.93.93,0,0,0-1,1c0,.68.68,1,1.91,1,3.68,0,11.17-.41,11.86-.41.54,0,8.31.41,15,.41,1.37,0,1.91-.41,1.91-1a.93.93,0,0,0-1-1,49.54,49.54,0,0,1-5.46-.54c-3.54-.55-4-2.73-4.36-6.14-.54-4.77-.54-13.91-.54-25.09Zm39.4,20.45c0,11.18,0,20.32-.68,25.09-.55,3.41-.82,5.73-3.14,6.14a35.88,35.88,0,0,1-3.68.54.93.93,0,0,0-1,1c0,.68.68,1,1.91,1,1.91,0,4.63-.14,7-.27,2.59-.14,4.91-.14,5.18-.14,1.77,0,4.91,0,10,.27s11.87.41,20.86.41c4.64,0,5.87,0,6.68-3a94.25,94.25,0,0,0,1.64-11.18c0-.81-.14-1.77-.82-1.77s-.95.41-1.23,1.77c-.68,4.64-2.31,6.68-5.45,8-3.13,1.22-8.86,1.22-12,1.22-11.86,0-14-1.5-14.31-9.27-.14-2.31,0-15.81,0-19.77v-9.68c0-.4.13-.81.82-.81,2,0,14.86.13,18.13.54,4.63.55,5.73,1.91,6.13,3.55a10.17,10.17,0,0,1,.55,3.81c0,.69.27,1.1.82,1.1.82,0,1.09-1.23,1.09-2.19,0-.81.27-5.18.54-7.5a64.7,64.7,0,0,1,1-6.4c0-.68-.27-1-.68-1s-1,.68-1.78,1.5c-1.22,1.23-3,1.37-5.86,1.64s-18.54.27-20,.27c-.68,0-.68-.41-.68-1.23V130.68c0-.82.13-1.23.68-1.23,1.36,0,15.27.14,17.32.41,6.54.82,7.77,1.64,8.58,3.55a12.6,12.6,0,0,1,.69,4.09c0,.95.27,1.5.95,1.5s1-.69,1.09-1.23c.27-1.36.55-6.54.68-7.64.27-3.27,1-4.63,1-5.45,0-.54-.14-1.09-.55-1.09a7.46,7.46,0,0,0-1.63.55c-1,.13-3.14.54-5.46.68-2.73.13-27.81,0-28.63,0s-8.45-.28-13.91-.28c-1.36,0-1.9.28-1.9,1a1.15,1.15,0,0,0,1,1,37.55,37.55,0,0,1,4.09.28c4,.54,4.64,2.45,4.91,6.4.27,3.69.27,7,.27,25Zm78.81-36.81c3.68,4.09,17.18,18.27,31.08,32.86,12.68,13.23,30,30.27,31.22,31.36,6.68,6.13,7.91,7.09,9.14,7.09.82,0,1-.68,1-8.32l.28-67.89c0-7,.27-9.28,4.22-10.09a13.27,13.27,0,0,1,2.86-.28,1.36,1.36,0,0,0,1.37-1.09c0-.68-1-.82-2.18-.82-4.91,0-8.87.28-10.23.28s-7.09-.28-12.54-.28c-1.37,0-2.32.14-2.32.82,0,.41.14,1.09.95,1.09a38.41,38.41,0,0,1,5.87.55c3.68.68,4.36,3.27,4.5,10.77l1.22,58.08c-3.68-3.82-16.49-17.59-28.35-29.86-18.55-19.09-36-37.63-37.91-39.54-1.22-1.22-3.27-3.54-4.63-3.54-1,0-1.64,1.23-1.64,5.86v66.4c0,10.5-.41,13.63-3.41,14.45a18.62,18.62,0,0,1-4.9.68.94.94,0,0,0-1,1c0,.81.68,1,1.91,1,5.45,0,10.5-.41,11.59-.41s5.86.41,12.68.41c1.36,0,2.18-.27,2.18-1a.93.93,0,0,0-1-1,28.12,28.12,0,0,1-6-.68c-3.28-.82-4.37-3.68-4.64-13.23Zm148.47,72c7.77,0,16.77-.68,21.68-2.59,2-.82,2.32-1.23,3-3.41a120.66,120.66,0,0,0,2.86-14.86c0-.82-.54-1.64-1.09-1.64-.82,0-1,.41-1.22,1.64-.41,2.18-2,7.09-4.64,9.68-4.77,4.77-10.77,5.45-19.77,5.45-25.63,0-43.22-19.77-43.22-42,0-11.72,1.91-22.08,10.77-30.27,4.23-3.95,11.59-8,27-8,10.63,0,19.36,2.86,23.58,6.41,3.14,2.45,5,7.09,5,11.59,0,1.63.13,2.45,1,2.45s1.23-.68,1.37-2.45.13-8.05.27-11.86c.27-4.23.54-5.59.54-6.55,0-.68-.27-1.23-1.5-1.23a84.74,84.74,0,0,1-12.27-1.77,118.28,118.28,0,0,0-17.45-1.36c-18.4,0-29.31,5.45-36.54,12.41A45.76,45.76,0,0,0,1661.63,167c0,11,2.86,24.26,14.59,34.35C1685.62,209.48,1697.76,213.71,1715.75,213.71Zm56-35.18c0,11.18,0,20.32-.68,25.09-.55,3.41-.82,5.73-3.14,6.14a35.88,35.88,0,0,1-3.68.54.93.93,0,0,0-1,1c0,.68.68,1,1.91,1,1.91,0,4.63-.14,7-.27,2.59-.14,4.91-.14,5.18-.14,1.77,0,4.91,0,9.95.27s11.87.41,20.86.41c4.64,0,5.87,0,6.68-3a94.25,94.25,0,0,0,1.64-11.18c0-.81-.14-1.77-.82-1.77s-1,.41-1.23,1.77c-.68,4.64-2.31,6.68-5.45,8-3.13,1.22-8.86,1.22-12,1.22-11.86,0-14-1.5-14.31-9.27-.14-2.31,0-15.81,0-19.77v-9.68c0-.4.13-.81.82-.81,2,0,14.86.13,18.13.54,4.64.55,5.73,1.91,6.13,3.55a10.17,10.17,0,0,1,.55,3.81c0,.69.27,1.1.82,1.1.82,0,1.09-1.23,1.09-2.19,0-.81.27-5.18.54-7.5a64.7,64.7,0,0,1,1-6.4c0-.68-.27-1-.68-1s-1,.68-1.78,1.5c-1.22,1.23-3,1.37-5.86,1.64s-18.54.27-20,.27c-.68,0-.68-.41-.68-1.23V130.68c0-.82.13-1.23.68-1.23,1.36,0,15.27.14,17.32.41,6.54.82,7.77,1.64,8.58,3.55a12.6,12.6,0,0,1,.69,4.09c0,.95.27,1.5,1,1.5s1-.69,1.09-1.23c.27-1.36.55-6.54.68-7.64.27-3.27,1-4.63,1-5.45,0-.54-.14-1.09-.55-1.09a7.46,7.46,0,0,0-1.63.55c-1,.13-3.14.54-5.46.68-2.72.13-27.81,0-28.63,0s-8.45-.28-13.91-.28c-1.36,0-1.9.28-1.9,1a1.15,1.15,0,0,0,1,1,37.55,37.55,0,0,1,4.09.28c4,.54,4.64,2.45,4.91,6.4.27,3.69.27,7,.27,25Z"/></g></svg>