<svg id="Layer_1" data-name="Layer 1" xmlns="http://www.w3.org/2000/svg" viewBox="0 0 335.81 325.91"><defs><style>.cls-1{fill:#fff;stroke:#000;stroke-miterlimit:10;stroke-width:14px;}</style></defs><rect class="cls-1" x="134.32" y="181.82" width="67.18" height="67.18" transform="translate(-103.14 181.82) rotate(-45)"/><polygon class="cls-1" points="215.41 215.41 215.41 120.4 167.91 167.91 215.41 215.41"/><polygon class="cls-1" points="120.4 215.41 18.2 317.61 120.4 310.42 167.91 262.91 120.4 215.41"/><polygon class="cls-1" points="215.41 215.41 167.91 262.91 215.41 310.42 317.61 208.21 215.41 215.41"/><polygon class="cls-1" points="215.41 120.4 113.2 18.2 120.4 120.4 167.91 167.91 215.41 120.4"/><polygon class="cls-1" points="120.4 310.42 215.41 310.42 167.91 262.91 120.4 310.42"/><polygon class="cls-1" points="120.4 120.4 120.4 215.41 167.91 167.91 120.4 120.4"/></svg>