<?xml version="1.0" encoding="utf-8"?>
<!-- Generator: Adobe Illustrator 26.0.2, SVG Export Plug-In . SVG Version: 6.00 Build 0)  -->
<svg version="1.1" id="Layer_1" xmlns="http://www.w3.org/2000/svg" xmlns:xlink="http://www.w3.org/1999/xlink" x="0px" y="0px"
	 viewBox="0 0 512 512" style="enable-background:new 0 0 512 512;" xml:space="preserve">
<g>
	<path d="M382,40.5L470.8,190H293.2L382,40.5 M130,290c50.7,0,92,41.3,92,92s-41.3,92-92,92s-92-41.3-92-92S79.3,290,130,290
		 M474,322v152H322V322H474 M382,2c-11.1,0-22.2,5.3-28.5,16l-95,160c-12.7,21.3,3.2,48,28.5,48H477c25.3,0,41.2-26.7,28.5-48
		l-95-160C404.2,7.3,393.1,2,382,2L382,2z M477,226L477,226L477,226L477,226z M130,254C59.3,254,2,311.3,2,382s57.3,128,128,128
		s128-57.3,128-128S200.7,254,130,254L130,254z M478,286H318c-17.7,0-32,14.3-32,32v160c0,17.7,14.3,32,32,32h160
		c17.7,0,32-14.3,32-32V318C510,300.3,495.7,286,478,286L478,286z"/>
</g>
</svg>
