<?xml version="1.0" encoding="utf-8"?>
<!-- Generator: Adobe Illustrator 26.0.2, SVG Export Plug-In . SVG Version: 6.00 Build 0)  -->
<svg version="1.1" id="Layer_1" xmlns="http://www.w3.org/2000/svg" xmlns:xlink="http://www.w3.org/1999/xlink" x="0px" y="0px"
	 viewBox="0 0 512 512" style="enable-background:new 0 0 512 512;" xml:space="preserve">
<path d="M270.2,9.3c-7-7-18.4-7.1-25.5,0c0,0,0,0,0,0l-216,216c-3.4,3.4-5.3,8-5.3,12.7v252c0,9.9,8.1,18,18,18h162
	c9.9,0,18-8.1,18-18V346h72v144c0,9.9,8.1,18,18,18h162c9.9,0,18-8.1,18-18V238c0-4.8-1.9-9.4-5.3-12.7l-48.7-48.7V58
	c0-9.9-8.1-18-18-18h-36c-9.9,0-18,8.1-18,18v46.5L270.2,9.3z M59.5,472V245.5l198-198l198,198V472h-126V328c0-9.9-8.1-18-18-18
	h-108c-9.9,0-18,8.1-18,18v144H59.5z"/>
</svg>
