<svg id="Layer_1" data-name="Layer 1" xmlns="http://www.w3.org/2000/svg" viewBox="0 0 335.8 325.9"><defs><style>.cls-1{fill:#fff;stroke:#333;stroke-miterlimit:10;stroke-width:12px;}.cls-2{fill:#333;}</style></defs><path class="cls-1" d="M75,210.4c0,41.84,34.66,75.75,77.42,75.75h31c42.76,0,77.42-33.91,77.42-75.75V149.8H75ZM158.32,41.75h-7.57A75.74,75.74,0,0,0,75,117.5v15.15h83.32Zm26.73,0h-7.58v90.9H260.8V117.5A75.74,75.74,0,0,0,185.05,41.75Z"/><path class="cls-2" d="M137.34,195.69a22.72,22.72,0,0,1,3.83-12.08,29.54,29.54,0,0,1,11.16-10.13,35.25,35.25,0,0,1,17.13-4,36.68,36.68,0,0,1,16.06,3.35A26.06,26.06,0,0,1,196.28,182a22.39,22.39,0,0,1,3.79,12.55,19.4,19.4,0,0,1-2.16,9.34,28.81,28.81,0,0,1-5.15,6.94q-3,2.91-10.69,9.81a45.55,45.55,0,0,0-3.42,3.42,13.48,13.48,0,0,0-1.91,2.7,12.92,12.92,0,0,0-1,2.45c-.23.81-.57,2.24-1,4.29-.8,4.35-3.28,6.53-7.47,6.53a7.58,7.58,0,0,1-5.48-2.14q-2.24-2.13-2.23-6.33a22.2,22.2,0,0,1,6-15.9,97.84,97.84,0,0,1,7.28-6.94c2.67-2.34,4.61-4.1,5.8-5.3a18.21,18.21,0,0,0,3-4,9.67,9.67,0,0,0,1.22-4.77,11.1,11.1,0,0,0-3.73-8.47,13.67,13.67,0,0,0-9.63-3.44q-6.9,0-10.16,3.48t-5.52,10.25q-2.13,7.09-8.09,7.09a7.92,7.92,0,0,1-5.93-2.48A7.58,7.58,0,0,1,137.34,195.69ZM168,264.44a9.9,9.9,0,0,1-6.68-2.48,8.69,8.69,0,0,1-2.85-6.93,8.94,8.94,0,0,1,2.76-6.65,9.32,9.32,0,0,1,6.77-2.7A9.22,9.22,0,0,1,177.3,255a8.75,8.75,0,0,1-2.82,6.9A9.55,9.55,0,0,1,168,264.44Z"/></svg>